<svg xmlns="http://www.w3.org/2000/svg" id="advertising" width="36" height="36" viewBox="0 0 36 36">
    <defs>
        <style>
            .cls-1{fill:#606aea}.cls-2{fill:#4855b7}.cls-3{fill:#ffda00}.cls-4{fill:#fdba12}.cls-5{fill:#afb4c8}.cls-6{fill:#fe6a16}.cls-7{fill:#fa5d0f}.cls-8{fill:#fff}.cls-9{fill:#e9edf5}.cls-10{fill:#dce1eb}.cls-11{fill:#cdd2e1}
        </style>
    </defs>
    <g id="Group_24" data-name="Group 24">
        <g id="Group_23" data-name="Group 23">
            <g id="Group_22" data-name="Group 22">
                <g id="Group_21" data-name="Group 21">
                    <g id="Group_20" data-name="Group 20">
                        <g id="Group_19" data-name="Group 19">
                            <g id="Group_18" data-name="Group 18">
                                <g id="Group_17" data-name="Group 17">
                                    <g id="Group_16" data-name="Group 16">
                                        <circle id="Ellipse_1" cx="18" cy="18" r="18" class="cls-1" data-name="Ellipse 1"/>
                                    </g>
                                </g>
                            </g>
                        </g>
                    </g>
                </g>
            </g>
        </g>
    </g>
    <g id="Group_25" data-name="Group 25" transform="translate(5.71 5.711)">
        <path id="Path_7" d="M96.012 125.8l-14.8 14.518 6.106 6.107-.049.046 6.482 6.482a18.008 18.008 0 0 0 16.9-12.517z" class="cls-2" data-name="Path 7" transform="translate(-81.208 -122.667)"/>
        <path id="Path_8" d="M310.574 83.628l6.752 6.752-.211.361 7.1 7.1a18.044 18.044 0 0 0 .522-4.323q0-.773-.064-1.53l-10.759-10.759z" class="cls-2" data-name="Path 8" transform="translate(-294.447 -81.229)"/>
    </g>
    <g id="Group_27" data-name="Group 27" transform="translate(27.695 12.098)">
        <g id="Group_26" data-name="Group 26">
            <path id="Path_9" d="M0 0h2.019v3.582H0z" class="cls-3" data-name="Path 9" transform="rotate(69.88 1.682 2.408)"/>
        </g>
    </g>
    <g id="Group_29" data-name="Group 29" transform="translate(28.05 13.107)">
        <g id="Group_28" data-name="Group 28">
            <path id="Path_10" d="M398.935 187.626l.328.9 3.364-1.231-.324-.886z" class="cls-4" data-name="Path 10" transform="translate(-398.935 -186.405)"/>
        </g>
    </g>
    <g id="Group_31" data-name="Group 31" transform="translate(27.281 21.15)">
        <g id="Group_30" data-name="Group 30">
            <path id="Path_11" d="M0 0h2.019v3.582H0z" class="cls-4" data-name="Path 11" transform="rotate(114.899 1.568 2.062)"/>
        </g>
    </g>
    <g id="Group_33" data-name="Group 33" transform="translate(21.836 4.861)">
        <g id="Group_32" data-name="Group 32">
            <path id="Path_12" d="M0 0h2.019v3.582H0z" class="cls-3" data-name="Path 12" transform="rotate(24.899 .754 3.415)"/>
        </g>
    </g>
    <g id="Group_35" data-name="Group 35" transform="translate(7.549 21.587)">
        <g id="Group_34" data-name="Group 34">
            <path id="Path_13" d="M113.674 315.579a2.2 2.2 0 0 1-2.405-1.038l-3.9-6.38 4.445-1.141 3.112 5.085a2.309 2.309 0 0 1-1.252 3.474z" class="cls-5" data-name="Path 13" transform="translate(-107.364 -307.02)"/>
        </g>
    </g>
    <g id="Group_37" data-name="Group 37" transform="translate(19.896 14.227)">
        <g id="Group_36" data-name="Group 36">
            <path id="Path_14" d="M286.115 206.463l-.742.19a1.814 1.814 0 0 1-2.207-1.306l-.143-.557a1.814 1.814 0 0 1 1.306-2.207l.742-.19a1.814 1.814 0 0 1 2.207 1.306l.143.557a1.813 1.813 0 0 1-1.306 2.207z" class="cls-6" data-name="Path 14" transform="translate(-282.965 -202.335)"/>
        </g>
    </g>
    <g id="Group_39" data-name="Group 39" transform="translate(20.016 15.799)">
        <g id="Group_38" data-name="Group 38">
            <path id="Path_15" d="M288.918 224.693l-4.246 1.127.08.313a1.814 1.814 0 0 0 2.207 1.306l.742-.19a1.814 1.814 0 0 0 1.306-2.207z" class="cls-7" data-name="Path 15" transform="translate(-284.672 -224.693)"/>
        </g>
    </g>
    <g id="Group_41" data-name="Group 41" transform="translate(7.397 8.845)">
        <g id="Group_40" data-name="Group 40">
            <path id="Path_16" d="M122.165 140.792l-15.207-.435-1.758-6.851 13.117-7.7z" class="cls-8" data-name="Path 16" transform="translate(-105.2 -125.801)"/>
        </g>
    </g>
    <g id="Group_43" data-name="Group 43" transform="translate(8.292 16.287)">
        <g id="Group_42" data-name="Group 42">
            <path id="Path_17" d="M117.935 235.385l.863 3.362 15.207.435-1.938-7.55z" class="cls-9" data-name="Path 17" transform="translate(-117.935 -231.633)"/>
        </g>
    </g>
    <g id="Group_45" data-name="Group 45" transform="translate(4.219 16.55)">
        <g id="Group_44" data-name="Group 44">
            <path id="Path_18" d="M63.177 235.382l-1.552.4a2.28 2.28 0 0 0-1.547 2.824l.59 2.3a2.28 2.28 0 0 0 2.716 1.73l1.552-.4z" class="cls-10" data-name="Path 18" transform="translate(-59.999 -235.382)"/>
        </g>
    </g>
    <g id="Group_47" data-name="Group 47" transform="translate(4.617 20.039)">
        <g id="Group_46" data-name="Group 46">
            <path id="Path_19" d="M65.661 285.976l.271 1.055a2.28 2.28 0 0 0 2.716 1.73l1.552-.4-.863-3.361z" class="cls-11" data-name="Path 19" transform="translate(-65.661 -285)"/>
        </g>
    </g>
</svg>
