<svg xmlns="http://www.w3.org/2000/svg" width="13" height="12" viewBox="0 0 13 12">
    <path fill="#4B5862" fill-rule="nonzero" d="M13 4.755c0-1.185-.885-2.17-2.04-2.35V1.046C10.96.43 10.565 0 10 0c-.166 0-.336.038-.507.114L4.38 2.376H1.4C.628 2.376 0 2.993 0 3.752v2.005c0 .481.253.905.635 1.152l.6 2.95c.147.72.847 1.284 1.593 1.284.773 0 1.401-.618 1.401-1.377V7.134h.15l5.114 2.261c.17.076.341.114.507.114.278 0 .528-.11.704-.308.168-.189.256-.444.256-.738V7.104c1.155-.18 2.04-1.165 2.04-2.35zM.762 3.752c0-.346.286-.628.639-.628h2.678v3.26H1.401a.634.634 0 0 1-.64-.627V3.752zm2.706 6.014a.634.634 0 0 1-.64.628c-.376 0-.772-.319-.846-.682l-.525-2.578h2.01v2.632zm6.73-1.303c0 .11-.024.197-.068.247-.02.022-.054.05-.13.05a.496.496 0 0 1-.194-.047L4.84 6.517V2.992L9.806.796A.497.497 0 0 1 10 .75c.164 0 .199.161.199.297v7.417zm.762-2.121V3.168a1.64 1.64 0 0 1 1.278 1.587 1.64 1.64 0 0 1-1.278 1.587z"/>
</svg>
