<svg xmlns="http://www.w3.org/2000/svg" width="12" height="16" viewBox="0 0 12 16">
  <defs>
    <style>
      .cls-1 {
        fill: #59678e;
      }
    </style>
  </defs>
  <g id="log" transform="translate(-64)">
    <g id="Group_345" data-name="Group 345" transform="translate(64)">
      <g id="Group_344" data-name="Group 344" transform="translate(0)">
        <path id="Path_24" data-name="Path 24" class="cls-1" d="M154.6,154.239a7.377,7.377,0,0,1-2.807-.5.333.333,0,0,0-.261.613,8.049,8.049,0,0,0,3.068.556.333.333,0,1,0,0-.667Z" transform="translate(-148.599 -148.905)"/>
        <path id="Path_25" data-name="Path 25" class="cls-1" d="M111.333,43.333q.337,0,.661.024a.333.333,0,1,0,.048-.665c-.231-.017-.468-.026-.709-.026-2.617,0-4.667,1.025-4.667,2.333a1.4,1.4,0,0,0,.291.837.333.333,0,0,0,.538-.393.754.754,0,0,1-.162-.443C107.333,44.211,108.976,43.333,111.333,43.333Z" transform="translate(-105.333 -41.333)"/>
        <path id="Path_26" data-name="Path 26" class="cls-1" d="M313.635,50.841a.333.333,0,0,0-.167.645c1.192.31,1.962.868,1.962,1.422a.333.333,0,0,0,.667,0C316.1,52.014,315.177,51.241,313.635,50.841Z" transform="translate(-305.43 -49.241)"/>
        <path id="Path_27" data-name="Path 27" class="cls-1" d="M198.09,122.538a7.137,7.137,0,0,1-2.517-.09.333.333,0,1,0-.168.645,6.831,6.831,0,0,0,1.652.184,7.681,7.681,0,0,0,1.132-.079.333.333,0,1,0-.1-.659Z" transform="translate(-191.057 -118.61)"/>
        <path id="Path_28" data-name="Path 28" class="cls-1" d="M180.061,85.333a4.936,4.936,0,0,0-2.29.435.333.333,0,0,0,.348.568A4.363,4.363,0,0,1,180.061,86a4.056,4.056,0,0,1,1.978.357.333.333,0,0,0,.6.267.55.55,0,0,0,.084-.29C182.728,85.361,180.334,85.333,180.061,85.333Z" transform="translate(-174.061 -82.666)"/>
        <path id="Path_29" data-name="Path 29" class="cls-1" d="M70,0c-3.365,0-6,1.611-6,3.667v8.667C64,14.389,66.635,16,70,16s6-1.611,6-3.667V3.667C76,1.611,73.365,0,70,0Zm5.333,12.333c0,1.626-2.442,3-5.333,3s-5.333-1.374-5.333-3V5.367A7.044,7.044,0,0,0,70,7.333a9.185,9.185,0,0,0,2.956-.47l.721,2.884A.333.333,0,0,0,74,10h.027a.333.333,0,0,0,.305-.3L74.64,6a4.057,4.057,0,0,0,.694-.652v6.984Zm-1.2-6.787a.333.333,0,0,0-.142.246l-.153,1.839-.323-1.291a.333.333,0,0,0-.323-.253.327.327,0,0,0-.124.024A8.316,8.316,0,0,1,70,6.667c-2.891,0-5.333-1.374-5.333-3s2.442-3,5.333-3,5.333,1.374,5.333,3A2.4,2.4,0,0,1,74.131,5.547Z" transform="translate(-64)"/>
        <path id="Path_30" data-name="Path 30" class="cls-1" d="M299,405.333a.333.333,0,0,0-.333.333v.667a.333.333,0,0,0,.667,0v-.667A.333.333,0,0,0,299,405.333Z" transform="translate(-291.333 -392.666)"/>
        <path id="Path_31" data-name="Path 31" class="cls-1" d="M299,277.333a.333.333,0,0,0-.333.333v2.667a.333.333,0,0,0,.667,0v-2.667A.333.333,0,0,0,299,277.333Z" transform="translate(-291.333 -268.666)"/>
        <path id="Path_32" data-name="Path 32" class="cls-1" d="M213.666,341.333a.333.333,0,0,0-.333.333v2.667a.333.333,0,0,0,.667,0v-2.667A.333.333,0,0,0,213.666,341.333Z" transform="translate(-208.666 -330.666)"/>
        <path id="Path_33" data-name="Path 33" class="cls-1" d="M213.666,277.333a.333.333,0,0,0-.333.333v.667a.333.333,0,0,0,.667,0v-.667A.333.333,0,0,0,213.666,277.333Z" transform="translate(-208.666 -268.666)"/>
        <path id="Path_34" data-name="Path 34" class="cls-1" d="M128.333,384a.333.333,0,0,0-.333.333v1.333a.333.333,0,0,0,.667,0v-1.333A.333.333,0,0,0,128.333,384Z" transform="translate(-126 -372)"/>
        <path id="Path_35" data-name="Path 35" class="cls-1" d="M128.333,256a.333.333,0,0,0-.333.333v1.333a.333.333,0,0,0,.667,0v-1.333A.333.333,0,0,0,128.333,256Z" transform="translate(-126 -248)"/>
      </g>
    </g>
  </g>
</svg>
