<svg xmlns="http://www.w3.org/2000/svg" width="25" height="25" viewBox="0 0 25 25">
    <g fill="#C3CCE6" fill-rule="nonzero">
        <path d="M9.677 8.871c-.305 0-.612-.078-.884-.233L.385 3.843a.76.76 0 0 1-.284-1.04.766.766 0 0 1 1.042-.284l8.408 4.795a.255.255 0 0 0 .253 0l8.408-4.795a.766.766 0 0 1 1.042.284.76.76 0 0 1-.284 1.04l-8.408 4.794a1.773 1.773 0 0 1-.885.234z"/>
        <path d="M16.553 14.516H2.801C1.256 14.516 0 13.238 0 11.665V2.85C0 1.278 1.256 0 2.801 0h13.752c1.546 0 2.802 1.278 2.802 2.851v8.814c0 1.573-1.256 2.851-2.802 2.851zM2.801 1.556c-.702 0-1.273.581-1.273 1.295v8.814c0 .714.571 1.296 1.273 1.296h13.752c.702 0 1.274-.582 1.274-1.296V2.85c0-.714-.572-1.296-1.274-1.296H2.801z"/>
        <path d="M9.814 25a.783.783 0 0 1-.786-.783V21.87h-1.31A2.878 2.878 0 0 1 4.839 19v-2.61a.784.784 0 0 1 1.572 0V19c0 .72.587 1.305 1.309 1.305h2.095c.433 0 .785.35.785.782v1.12l1.516-1.649a.787.787 0 0 1 .579-.253h9.426c.721 0 1.309-.586 1.309-1.305v-8.87c0-.72-.588-1.305-1.31-1.305h-.785a.784.784 0 0 1-.785-.783c0-.432.352-.783.785-.783h.786a2.878 2.878 0 0 1 2.88 2.87V19a2.878 2.878 0 0 1-2.88 2.87h-9.08l-2.647 2.877a.787.787 0 0 1-.58.254z"/>
    </g>
</svg>
