<svg xmlns="http://www.w3.org/2000/svg" xmlns:xlink="http://www.w3.org/1999/xlink" width="247" height="275" viewBox="0 0 247 275">
    <defs>
        <path id="a" d="M0 .814h247.035V29H0z"/>
        <path id="c" d="M.761.816h2v17.092h-2z"/>
    </defs>
    <g fill="none" fill-rule="evenodd">
        <path fill="#7CABFF" d="M93.893 123.514c-2.962 2.823-4.09 7.217-1.265 10.607 2.66 3.193 7.81 3.87 11.133 1.324 8.022-6.142-.34-17.476-8.996-15.13-1.605.434-1.204 2.701.38 2.79 2.531.143 5.239.24 7.264 1.999 2.17 1.891 2.218 5.088.436 7.262-4.718 5.756-12.915-2.72-7.96-7.866.626-.65-.337-1.61-.992-.986"/>
        <path fill="#FF7081" d="M175.025 133.042c1.05 4.023 2.206 8.003 3.408 11.98.288.957 1.166 1.256 1.963.698 3.131-2.195 6.267-4.356 9.233-6.787.57-.469.446-1.41-.119-1.811-3.474-2.462-8.167-6.096-12.576-6.122-1.12-.006-1.906 1.623-.767 2.3 1.78 1.059 3.91 1.437 5.81 2.253 2.195.94 4.367 2.044 6.302 3.474.045-.66.087-1.322.13-1.983-3.315 2.11-6.438 4.473-9.593 6.827l1.864.386c-1.347-3.929-2.728-7.831-4.22-11.704-.315-.816-1.658-.368-1.435.49"/>
        <path fill="#FBC580" d="M197.255 154.9c4.816-2.335 9.744-5.02 14.083-8.171 1.592-1.158.024-3.417-1.656-2.526-4.638 2.46-9.16 5.637-13.297 8.878-.829.651-.218 2.347.87 1.818"/>
        <path fill="#FF957E" d="M22.98 169.025c-.988-5.043-2.276-10.278-4.15-15.075-.689-1.764-3.202-.849-2.783.93 1.149 4.91 3.001 9.883 5.009 14.516.403.93 2.147.77 1.925-.371"/>
        <path fill="#241352" d="M38.161 123.051l-.257-.226c-1.129-1-2.985-1.196-4.086 0-1.111 1.208-1.07 2.867 0 4.076.077.085.152.169.227.256 1.013 1.14 3.098 1.107 4.116 0 1.013-1.101 1.219-3.031 0-4.106"/>
        <path fill="#FF7081" d="M164 255.673s-49.941 11.552-70-8.397l7.178-47.648c2.18-13.697.88-40.049 11.427-49.397 2.041-1.81 4.007-2.71 4.007-2.71 7.398-3.554 20.56-5.473 33.2-5.52 15.354-.06 31.156 11.485 35.188 26.217l-16.62 38.655-4.38 48.8z"/>
        <path fill="#FFAFA7" d="M159.351 173.963s22.371 43.045 11.264 45.339c-36.544 7.54-57.752 13.726-57.752 13.726L111 247.203c.545 2.143 73.929.29 82.621-9.559 6.137-6.954 14.295-23.026-3.062-57.81L185.287 168l-25.936 5.963zM117 152.221l-55.763 21.482-1.745-29.109L47.553 140s-17.311 46.72 4.339 55.419c21.65 8.698 46.044-7.375 46.044-7.375L117 152.22z"/>
        <path fill="#FF7081" d="M124 145c-19.307 6.17-30.82 13.402-58 24.776L79.957 201l24.055-7.748L124 145zM155.892 168.01L170.057 201 202 195.153 180.48 158 155 168.01"/>
        <path fill="#002C68" d="M139.38 190.734c6.76-.408 13.436-.09 20.19.006.59.008.556-.894 0-.964-6.656-.862-13.528-.518-20.19.102-.501.046-.512.886 0 .856M168.73 153.001c-22.261 2.054-7.035 35.596-1.33 45.752.316.566 1.169.057.855-.512-5.669-10.26-20.845-41.475.547-44.685.306-.046.238-.584-.072-.555M106.423 172.213c-2.826 11.195-4.723 22.837-5.422 34.364-.03.477.781.599.85.115 1.642-11.461 3.294-22.89 5.144-34.324.06-.364-.478-.532-.572-.155"/>
        <path fill="#241352" d="M159.162 110c.351-4.856.703-9.713 1.053-14.57 3.81-1.075 5.793-5.958 4.27-9.62-1.52-3.66-5.837-5.717-9.756-5.156 2.473-1.687 2.283-5.716.253-7.917-2.03-2.202-5.21-2.916-8.199-3.032-2.992-.115-6.018.248-8.958-.298-2.607-.486-5.158-1.681-7.79-1.35-2.628.334-5.142 3.298-3.725 5.541-3.792-.557-7.895-1.064-11.265.768-3.37 1.833-5.061 7.047-2.166 9.564-1.913.977-2.391 3.75-1.316 5.613 1.076 1.86 3.28 2.84 5.421 2.994 2.14.153 4.265-.39 6.344-.928"/>
        <path fill="#FFAFA7" d="M159.216 100.725l-.763 10.054s8.545 1.153 6.11 8.95c-2.437 7.796-8.282 4.385-8.282 4.385s-1.461 19.98-21.925 13.645c-16.286-5.043-15.289-26.135-13.223-44.118.802-6.964 7.39-11.756 14.272-10.416l12.302 2.397a14.284 14.284 0 0 1 11.509 15.103"/>
        <path fill="#FFAFA7" d="M158 119l-5.532 29.383c-1.248 6.62-7.8 10.854-14.379 9.292-6.096-1.448-10-7.38-8.905-13.525l3.004-16.84L158 119z"/>
        <path fill="#241352" d="M135.978 119.213c.037-.013.106.42-.568.718-.699.283-1.819-.334-2.11-1.348-.373-.977-.317-2.159-.256-3.373l.23-3.99c.392-5.66.948-10.235 1.246-10.22.297.019.222 4.62-.166 10.281-.112 1.38-.215 2.697-.32 3.987-.117 1.226-.225 2.295-.001 3.118.164.831.831 1.24 1.267 1.177.442-.068.604-.402.678-.35M129.004 135.015c.089-.127 1.026.563 2.675 1.34 1.634.782 4.04 1.581 6.768 1.64 2.727.062 5.16-.627 6.826-1.336 1.677-.703 2.64-1.35 2.723-1.22.069.095-.773.963-2.45 1.865-1.66.907-4.22 1.758-7.12 1.692-2.9-.063-5.422-1.029-7.046-2.007-1.641-.979-2.446-1.884-2.376-1.974M133.016 123.794c.107-.102.534.353 1.346.75.793.404 2.048.7 3.29.264 1.237-.446 2.1-1.495 2.534-2.332.45-.848.556-1.491.696-1.476.107-.002.244.71-.112 1.78-.335 1.043-1.283 2.426-2.839 2.99-1.565.545-3.062.031-3.885-.601-.852-.642-1.12-1.307-1.03-1.375M159 119.828c-.014-.138.566-.207 1.21-.536.32-.17.598-.411.7-.75.103-.344-.015-.664-.338-.75-.266-.086-.519-.014-.578.068l-.935-.403c.876-1.5 1.659-2.536 1.889-2.452.225.084-.171 1.26-.924 2.806l-.933-.403c.392-.553 1.251-.679 1.871-.469.456.125.857.503.965.86.128.364.073.716-.055 1.007-.258.595-.863.941-1.33 1.07-.974.255-1.546.055-1.542-.048M143.007 100.698c-.099-.258.929-.864 2.227-.478 1.301.378 1.928 1.47 1.73 1.642-.193.204-.945-.35-1.967-.634-1.011-.314-1.914-.246-1.99-.53M125.01 98.176c-.128-.246 1-1 2.578-.854 1.579.136 2.561 1.074 2.393 1.294-.16.25-1.187-.156-2.481-.256-1.295-.13-2.376.09-2.49-.184"/>
        <path fill="#241352" d="M157.584 110.459c-5.69-5.619-7.361-14.98-8.905-22.872-5.268 3.887-12.516 4.842-18.59 2.452a30.084 30.084 0 0 1-6.623 5.86c-.705.457-1.539.903-2.341.658-.954-.293-1.38-1.401-1.607-2.385-.726-3.148-.752-6.52.331-9.559 1.086-3.041 3.356-5.712 6.335-6.879 3.18-1.249 6.762-.706 10.064.161a55.581 55.581 0 0 1 14.21 5.947c4.352 2.582 8.535 6 10.382 10.757 1.845 4.756 1.838 13.998-2.614 16.401M144.882 109c-.288-.018-.466-.706-.402-1.534.066-.829.352-1.484.638-1.466.288.018.468.706.4 1.534-.064.827-.35 1.484-.636 1.466M127.881 107c-.288-.018-.466-.706-.4-1.534.064-.829.35-1.484.636-1.466.288.018.468.706.402 1.534-.066.827-.35 1.484-.638 1.466"/>
        <path fill="#FFAFA7" d="M48 141.152s2.402-15.04 5.274-14.877c2.871.161 8.61 0 8.61 0s.48-14.305 2.076-12.03c1.596 2.276 2.096 21.522-4.055 30.755L48 141.152zM113 233s-26.513 4.645-25.992 8.087c.516 3.442 2.379 6.913 2.379 6.913l23.613-.556V233z"/>
        <path fill="#6F35A5" d="M141 248.73l-.2-3.652-54.172-3.325L68.46 193 9 196.28 29.286 249z"/>
        <path fill="#FFF" d="M42.007 219.747a4.498 4.498 0 0 0 4.741 4.246 4.495 4.495 0 0 0 4.245-4.74 4.5 4.5 0 0 0-8.986.495"/>
        <path fill="#FFF" d="M40.01 220.329a6 6 0 1 0 11.981-.659 6 6 0 0 0-11.982.659"/>
        <g transform="translate(0 246)">
            <mask id="b" fill="#fff">
                <use xlink:href="#a"/>
            </mask>
            <path fill="#E2D3F5" d="M0 3.767L233.368.814l13.666 7.271S67.885 57.902-.001 3.767" mask="url(#b)"/>
        </g>
        <path fill="#E2D3F5" d="M182.135 77.225c-.711 1.374 1.614 36.858 1.614 36.858l17.552-1.451-2.048 9.368 8.575-9.63L225 110.396 223.957 76l-41.822 1.225z"/>
        <path fill="#FFBC7A" d="M138.473 22.052s-12.07.612-12.473 13.659c0 0 .203 7.134 4.024 9.783 3.822 2.651 3.62 5.506 3.62 5.506H143.7s-.4-3.67 1.208-5.71c1.61-2.038 5.634-6.318 5.03-12.637-.604-6.321-5.23-11.213-11.466-10.601"/>
        <path fill="#6F35A5" d="M133.422 53.673c3.69-.18 7.423.246 11.09.022.528-.034.708-.9.131-1.026-3.564-.776-7.636-.346-11.22.078-.55.064-.578.954 0 .926M134.442 56.689c1.505-.09 3.02-.154 4.528-.138 1.503.016 3.04.272 4.53.16.549-.042.718-.87.137-1.026-2.888-.776-6.4-.328-9.316.094-.5.074-.383.94.12.91M135.435 59.272c1.323.094 2.69.478 4.007.45.652-.016.771-.96.151-1.16-1.28-.414-2.83-.27-4.158-.216-.584.024-.576.884 0 .926M135.8 50.444c.293-3.492-.978-7.356-1.622-10.782l-1.109.433c.535.81 1.42 3.15 2.781 3.066 1.406-.087 1.93-2.41 2.127-3.356h-1.214c.272 1.079.305 3.68 2.135 3.434 1.549-.209 2.595-2.337 3.069-3.505l-1.262-.32c-.936 3.415-1.384 7.74-.448 11.18.168.62 1.23.497 1.21-.15-.115-3.619-.662-7.162.5-10.71.248-.761-.962-1.031-1.262-.32-.172.402-1.173 2.694-2.119 2.398-.239-.074-.556-2.118-.609-2.315-.14-.535-1.1-.577-1.214 0-.137.701-.452 2.612-1.346 2.041-.517-.33-.973-1.506-1.298-2.01-.376-.577-1.212-.169-1.11.433.585 3.427.746 7.419 2.232 10.624.13.276.539.102.558-.141"/>
        <path fill="#FFBC7A" d="M100.531 45.977c5.394-1.716 10.957-3.195 16.222-5.272.42-.167.27-.805-.19-.691-5.49 1.363-10.877 3.395-16.262 5.128-.528.17-.304 1.005.23.835M107.46 29.692c3.335-.074 6.805.134 10.114-.328.555-.078.58-.918 0-.964-3.326-.274-6.78.134-10.114.252-.61.022-.616 1.054 0 1.04M123.837 24.192c-3.826-3.32-7.48-7.462-11.836-10.089-.684-.411-1.32.503-.825 1.063 3.344 3.774 8.033 6.578 11.965 9.717.484.387 1.178-.272.696-.691M131.999 19.745c.034-1.141-.72-2.239-1.19-3.189-.557-1.123-1.037-2.424-1.805-3.366-.388-.474-1.171.01-.972.67.371 1.228 1.136 2.32 1.742 3.41.513.927 1.008 2.224 1.89 2.7.154.084.328-.014.335-.225"/>
        <g transform="translate(138)">
            <mask id="d" fill="#fff">
                <use xlink:href="#c"/>
            </mask>
            <path fill="#FFBC7A" d="M2.532 17.392c.17-5.238.378-10.778-.262-15.988-.096-.772-1.22-.796-1.284 0-.42 5.23.028 10.758.422 15.988.052.68 1.102.694 1.124 0" mask="url(#d)"/>
        </g>
        <path fill="#FFBC7A" d="M145.947 19.78c1.418-1.89 2.895-3.784 3.971-5.856.382-.73-.674-1.29-1.188-.632-1.46 1.871-2.552 3.97-3.667 6.02-.293.537.512.965.884.468M150.519 23.964c2.51-1.074 4.874-2.469 7.262-3.793 2.359-1.306 5-2.443 7.053-4.214.418-.363-.027-1.101-.535-.932-2.404.796-4.58 2.36-6.767 3.633-2.476 1.442-5.025 2.81-7.349 4.5-.362.265-.154 1.014.336.806M154.346 30.669c1.847.752 5.022.197 6.456-1.405.5-.557-.033-1.374-.627-1.252-.985.2-1.894.805-2.876 1.072-.976.265-1.976.26-2.953.494-.504.12-.417.92 0 1.091M155.428 39.172c7.147 1.808 14.524 3.874 21.833 4.821.883.114 1.003-1.284.206-1.524-7.003-2.107-14.526-3.2-21.722-4.459-.74-.128-1.073.97-.317 1.162"/>
        <path fill="#7E2E84" d="M53.732 165.322c.234-1.62.188-3.162 1.06-4.59 1.734-2.847 4.196-2.13 6.582-.88 2.43 1.276 4.714 2.04 7.356.849 4.124-1.862 6.06-8.346 2.125-11.397-1.275-.988-2.53.643-2.36 1.892.238 1.745 1.069 3.663-.365 5.164-1.917 2.005-4.163.32-6.078-.579-2.067-.971-4.262-1.185-6.395-.287-3.67 1.548-6.33 6.736-3.415 10.238.41.495 1.392.272 1.49-.41"/>
        <path fill="#FBC580" d="M108.068 167.963c5.066-1.355 10.31-3.02 15.059-5.226 1.746-.81.62-3.201-1.163-2.657-4.92 1.503-9.85 3.701-14.423 6.025-.916.466-.621 2.164.527 1.858"/>
        <path fill="#F0E7F6" d="M83.025 174.04c1.051 4.026 2.206 8.004 3.407 11.982.29.957 1.168 1.256 1.964.698 3.131-2.195 6.267-4.356 9.233-6.788.57-.469.446-1.411-.119-1.812-3.474-2.462-8.167-6.096-12.576-6.12-1.12-.007-1.905 1.621-.767 2.298 1.778 1.06 3.91 1.437 5.81 2.254 2.195.94 4.367 2.046 6.302 3.474.045-.66.087-1.323.131-1.983-3.318 2.11-6.438 4.473-9.594 6.828.622.128 1.243.258 1.864.385-1.346-3.929-2.727-7.832-4.22-11.704-.315-.817-1.659-.369-1.435.489"/>
        <path fill="#7E2E84" d="M89.763 213.672c5.216.357 10.7.5 15.908.027 1.913-.174 1.679-2.587-.177-2.655-5.131-.184-10.506.229-15.589.86-1.02.126-1.324 1.688-.142 1.768"/>
        <path fill="#FFF" d="M192 93.035L195.607 106l5.05-1.018-.494-2.61 1.432-.89 2.707 2.766 8.55-1.724 1.109-3.381-2.434-.563 3.142-1.086-.683-3.622-2.717.247L215 93.067l-.848-4.496-8.69 1.752s.56-6.281-2.007-8.323l-1.963.397s.662 1.972.602 3.188c-.062 1.215-1.77 6.825-1.77 6.825l-2.67 1.29-.632-1.828L192 93.035z"/>
        <path fill="#E2D3F5" d="M12 69l2.968 35.507h65.194L83.77 117l3.807-13.7 12.423-.724-5.726-31.803z"/>
        <path fill="#FFF" d="M20.521 82.836c22.339-.976 44.598-.91 66.881 1.161.795.073.8-1.2 0-1.262-22.257-1.714-44.587-2.367-66.881-.995-.69.043-.7 1.126 0 1.096M22.521 89.836c22.339-.976 44.599-.91 66.88 1.161.796.073.801-1.2 0-1.264-22.255-1.712-44.587-2.365-66.88-.992-.69.043-.7 1.125 0 1.095M22.522 95.179c15.022.552 29.87-.636 44.878.818.796.078.804-1.29 0-1.35-14.99-1.11-29.869-.4-44.878-.64-.698-.012-.694 1.146 0 1.172"/>
    </g>
</svg>
