<svg xmlns="http://www.w3.org/2000/svg" width="16" height="16" viewBox="0 0 16 16">
  <defs>
    <style>
      .cls-1 {
        fill: #59678e;
      }
    </style>
  </defs>
  <path id="support" class="cls-1" d="M4.694,7.843A4.58,4.58,0,0,1,3.375,4.625a4.625,4.625,0,1,1,5.709,4.5,1.25,1.25,0,1,1-.029-1.29A3.375,3.375,0,1,0,4.625,4.625a3.338,3.338,0,0,0,.962,2.344.625.625,0,1,1-.894.874Zm10.037,2.313a7.494,7.494,0,0,0-1.911-1.2.625.625,0,1,0-.508,1.142,6.251,6.251,0,0,1,1.594.993,2.492,2.492,0,0,1,.844,1.873v1.156a.626.626,0,0,1-.625.625H1.875a.626.626,0,0,1-.625-.625V12.969A2.492,2.492,0,0,1,2.094,11.1,7.244,7.244,0,0,1,5.1,9.6.625.625,0,0,0,4.782,8.4a8.492,8.492,0,0,0-3.513,1.761A3.742,3.742,0,0,0,0,12.969v1.156A1.877,1.877,0,0,0,1.875,16h12.25A1.877,1.877,0,0,0,16,14.125V12.969A3.742,3.742,0,0,0,14.731,10.157Zm0,0"/>
</svg>
