<svg xmlns="http://www.w3.org/2000/svg" width="55" height="55" viewBox="0 0 55 55">
    <g fill="none" fill-rule="evenodd">
        <rect width="55" height="55" fill="#D1D9DC" rx="8"/>
        <path fill="#FFF" d="M21.46 40.875l.001-.065c.928 0 1.86.052 2.783-.01 2.314-.158 2.092.381 2.103-2.25.004-1.045-.093-1.153-1.129-1.083-2.568.174-5.133.383-7.701.557-.593.04-.877.312-.888.886-.006.327-.007.655-.002.982.016.997.208 1.177 1.243 1.138 1.197-.046 2.393-.103 3.59-.155zm4.895-6.802c.002-1.768-.017-1.794-1.736-1.572-2.047.265-4.086.604-6.138.807-2.118.208-1.8.274-1.837 2.294 0 .03.002.06.004.09.037.544.308.797.878.746 2.713-.243 5.428-.456 8.136-.74.254-.027.536-.446.669-.743.11-.248.022-.585.024-.882zm0-5.05h.004v-.448c-.012-1.263-.088-1.339-1.37-1.109-2.182.39-4.36.802-6.54 1.21-1.953.366-1.981.408-1.814 2.363.003.03.002.06.004.09.037.606.358.837.959.749 2.64-.388 5.278-.788 7.923-1.135.672-.088.87-.408.836-1.004-.014-.238-.002-.478-.002-.716zM26.347 18.9v-.358c0-1.359-.15-1.48-1.458-1.1-2.184.633-4.364 1.284-6.546 1.926-1.784.525-1.784.524-1.714 2.38.035.913.275 1.104 1.168.882 2.324-.575 4.646-1.162 6.969-1.745 1.575-.395 1.575-.395 1.581-1.985zm-.002 5.041c0-.298.005-.596 0-.893-.013-.63-.35-.858-.944-.717-2.678.635-5.358 1.26-8.024 1.941-.293.075-.705.49-.704.747.002.768.17 1.538.318 2.298.01.056.389.095.579.056 2.668-.544 5.33-1.116 8-1.649.59-.117.82-.408.778-.979-.02-.266-.004-.536-.003-.804zm3.95-10.416v30.708h10.83V42.21c0-7.042-.01-14.084.018-21.127.003-.688-.2-1.097-.8-1.425-.867-.473-1.689-1.026-2.533-1.542-2.472-1.511-4.947-3.021-7.515-4.589zM11 46.444c.022-.206.06-.411.065-.618.028-1.461.025-1.461 1.578-1.578v-.936c0-8.118.012-16.236-.019-24.355-.003-.849.225-1.266 1.077-1.537 5.311-1.688 10.6-3.446 15.91-5.138.385-.123.96-.048 1.31.16 3.65 2.185 7.266 4.426 10.91 6.62.506.305.566.677.565 1.186-.01 7.64-.005 15.282-.004 22.922v1.03c1.378.209 1.378.209 1.608 2.244H11z"/>
        <path fill="#FFF" d="M30.428 7.333c1.523 1.125 3.04 2.258 4.57 3.373 1.166.849 2.371 1.647 3.51 2.53.291.225.53.671.56 1.035.078.925.026 1.861.026 2.84-.962-.225-1.441-.707-1.267-1.639.17-.906-.234-1.455-.988-1.966-2.101-1.426-4.154-2.922-6.207-4.415-.422-.307-.777-.358-1.273-.169-3.73 1.423-7.463 2.842-11.217 4.2-.801.29-1.128.695-1.01 1.498.032.223-.03.46.01.682.162.917-.336 1.212-1.236 1.244 0-1.157-.058-2.296.04-3.422.025-.284.505-.638.852-.77 4.083-1.56 8.18-3.081 12.272-4.619.288-.108.557-.267.835-.402h.523z"/>
    </g>
</svg>
