<svg xmlns="http://www.w3.org/2000/svg" width="55" height="55" viewBox="0 0 55 55">
    <g fill="none" fill-rule="evenodd">
        <rect width="55" height="55" fill="#D1D9DC" rx="8"/>
        <g fill="#FFF">
            <path d="M48 21.915c-.356.273-.678.652-1.072.803a2825.887 2825.887 0 0 1-17.78 6.765c-.301.114-.694.14-.992.031-3.08-1.13-6.15-2.296-9.223-3.454-.087-.032-.172-.077-.414-.187.543-.256.955-.462 1.375-.647 2.785-1.229 5.572-2.453 8.357-3.68.07-.03.134-.074.204-.1.614-.228.907-.673.712-1.387-.163-.6-.674-.78-1.36-.482-1.452.631-2.9 1.278-4.346 1.925-2.251 1.007-4.482 2.075-6.758 3.007-1.28.525-2.095 1.489-2.524 2.818-.32.993-.437 2.072-.581 3.123-.032.227.167.538.328.744.634.815.782 1.949.178 2.707-.424.53-.398 1.055-.374 1.66.054 1.344.13 2.691.085 4.032-.079 2.327-.877 4.244-2.82 5.407h-.298L8 43.291c.253-.373.398-.59.548-.805 1.504-2.158 2.64-4.502 3.06-7.225.067-.427.02-.67-.295-.973-.949-.91-.902-2.49.114-3.27.396-.303.468-.615.47-1.08.009-2.093.443-4.024 1.834-5.568.041-.045.032-.145.048-.234-1.4-.524-2.795-1.015-4.164-1.582-.295-.122-.495-.524-.74-.796.248-.238.49-.482.745-.71.073-.065.18-.088.274-.123 3.967-1.485 7.936-2.96 11.898-4.457 2.127-.803 4.242-1.644 6.363-2.468h.596c.286.144.564.316.86.429 5.686 2.166 11.377 4.318 17.059 6.499.472.181.888.544 1.33.822v.165z"/>
            <path d="M40.989 28c0 2.403.034 4.688-.016 6.97-.021.946-.617 1.53-1.322 1.942-3.75 2.193-7.727 3.207-11.934 3.077-3.35-.103-6.527-.967-9.507-2.74-.99-.589-1.079-.922-.627-2.045.411-1.02.5-2.13-.062-3.036-.52-.837-.53-1.683-.519-2.596.006-.439.001-.878.001-1.433 1.644.635 3.177 1.22 4.706 1.818 2.2.859 4.392 1.746 6.602 2.569.356.132.82.1 1.18-.04 3.648-1.412 7.284-2.862 10.925-4.3.155-.061.316-.103.573-.186"/>
        </g>
    </g>
</svg>
