<svg xmlns="http://www.w3.org/2000/svg" width="26.317" height="24.39" viewBox="0 0 26.317 24.39">
    <defs>
        <style>
            .prefix__cls-1{fill:#b6b7bc}
        </style>
    </defs>
    <g id="prefix__download" transform="translate(0 -.011)">
        <path id="prefix__Path" d="M25.563.112a.751.751 0 0 0-.754.754v6.858A3.384 3.384 0 0 1 21.43 11.1H4.887a3.384 3.384 0 0 1-3.379-3.376V.754A.754.754 0 0 0 0 .754v6.97a4.892 4.892 0 0 0 4.887 4.887H21.43a4.892 4.892 0 0 0 4.887-4.887V.866a.754.754 0 0 0-.754-.754z" class="prefix__cls-1" transform="translate(0 11.79)"/>
        <path id="prefix__Path-2" d="M5.02 18.4a.759.759 0 0 0 .531.223.736.736 0 0 0 .531-.223l4.792-4.792a.754.754 0 0 0-1.067-1.067L6.3 16.052V.754a.754.754 0 0 0-1.5 0v15.3l-3.511-3.51a.754.754 0 0 0-1.067 1.067z" class="prefix__cls-1" data-name="Path" transform="translate(7.608 .011)"/>
    </g>
</svg>
