<svg xmlns="http://www.w3.org/2000/svg" width="13" height="13" viewBox="0 0 13 13">
    <path fill="#5779d9" fill-rule="nonzero" d="M11.906.58a1.94 1.94 0 0 0-2.744 0L1.47 8.272a.431.431 0 0 0-.111.19L.347 12.114a.431.431 0 0 0 .53.53l3.653-1.011a.431.431 0 0 0 .19-.11l7.692-7.693a1.942 1.942 0 0 0 0-2.744L11.906.58zM2.41 8.552l6.296-6.296 2.03 2.03-6.296 6.297-2.03-2.03zm-.406.814l1.623 1.622-2.244.622.621-2.244zm9.8-6.146l-.458.457-2.03-2.03.457-.458c.42-.42 1.103-.42 1.524 0l.506.506a1.08 1.08 0 0 1 0 1.525z"/>
</svg>
