<svg xmlns="http://www.w3.org/2000/svg" width="17" height="20" viewBox="0 0 17 20">
    <g fill="#5779D9" fill-rule="nonzero">
        <path d="M15.765 4.943L11.706.884C11.273.451 10.7.17 9.99.04v6.62h6.621c-.13-.71-.412-1.283-.845-1.716z"/>
        <path d="M9.573 8.324c-.347 0-.642-.12-.884-.364a1.204 1.204 0 0 1-.365-.884V0H1.25C.902 0 .607.121.364.364A1.204 1.204 0 0 0 0 1.25V18.73c0 .347.121.642.364.885.243.242.538.364.885.364H15.4c.346 0 .64-.122.884-.364.242-.243.364-.538.364-.885V8.324H9.573z"/>
    </g>
</svg>
