<svg xmlns="http://www.w3.org/2000/svg" width="12" height="12" viewBox="0 0 12 12">
    <g fill="#5779D9" fill-rule="nonzero" stroke="#5779D9" stroke-width=".5">
        <path d="M9.317 6.322v3.534c0 .631-.512 1.144-1.143 1.144h-6.03C1.513 11 1 10.487 1 9.856v-6.03c0-.63.513-1.143 1.144-1.143h3.535a.312.312 0 0 1 0 .624H2.144a.52.52 0 0 0-.52.52v6.03c0 .286.233.52.52.52h6.03a.52.52 0 0 0 .52-.52V6.321a.312.312 0 0 1 .623 0zM10.98 1.331v2.703a.312.312 0 0 1-.623 0v-2.39H7.966a.312.312 0 0 1 0-.625h2.703c.172 0 .312.14.312.312z"/>
        <path d="M10.98 1.331c0 .08-.03.16-.09.22L7.353 5.088a.312.312 0 1 1-.44-.442l3.534-3.534a.312.312 0 0 1 .533.22z"/>
    </g>
</svg>
