<svg xmlns="http://www.w3.org/2000/svg" width="62" height="62" viewBox="0 0 62 62">
    <path fill="#FFF" fill-rule="evenodd" d="M31.22 12.14c-5.981-.15-11.137 4.657-11.308 10.542-.184 6.339 4.56 11.473 10.793 11.683 5.954.199 11.237-4.741 11.386-10.651.16-6.366-4.583-11.418-10.87-11.574m-.913 46.611c7.5 0 14.362-2.658 19.19-7.038.868-.789.943-1.384.41-2.366-4.135-7.589-10.481-11.713-19.131-11.631-8.526.077-14.739 4.273-18.756 11.767-.47.873-.42 1.436.374 2.13 5.342 4.65 11.515 7.079 17.913 7.138M31.005 0A30.873 30.873 0 0 1 62 30.965C62.012 48.241 48.219 62.015 30.923 62 13.744 61.985-.012 48.176 0 30.96.015 13.76 13.794-.002 31.005 0"/>
</svg>
