<svg xmlns="http://www.w3.org/2000/svg" width="25" height="25" viewBox="0 0 25 25">
    <g fill="#5293CC" fill-rule="nonzero">
        <path d="M12.5 0C5.607 0 0 5.608 0 12.5 0 19.393 5.607 25 12.5 25 19.392 25 25 19.393 25 12.5 25 5.608 19.392 0 12.5 0zm0 22.727c-5.64 0-10.227-4.588-10.227-10.227C2.273 6.86 6.86 2.273 12.5 2.273c5.64 0 10.227 4.588 10.227 10.227 0 5.64-4.588 10.227-10.227 10.227z"/>
        <path d="M12.5 5.303a1.516 1.516 0 0 0 0 3.03 1.516 1.516 0 0 0 0-3.03zM12.5 10.606c-.628 0-1.136.509-1.136 1.136v6.819a1.136 1.136 0 0 0 2.272 0v-6.819c0-.627-.508-1.136-1.136-1.136z"/>
    </g>
</svg>
