<svg xmlns="http://www.w3.org/2000/svg" width="9" height="12" viewBox="0 0 9 12">
    <path fill="#F2F4F6" fill-rule="nonzero" d="M8.485 4.5h-.727v-1c0-1.93-1.523-3.5-3.394-3.5C2.492 0 .97 1.57.97 3.5v1H.242A.246.246 0 0 0 0 4.75V11c0 .552.435 1 .97 1h6.788c.534 0 .97-.448.97-1V4.75a.246.246 0 0 0-.243-.25zM5.09 9.722a.256.256 0 0 1-.06.195.24.24 0 0 1-.181.083h-.97a.24.24 0 0 1-.18-.083.256.256 0 0 1-.061-.195l.153-1.418a1 1 0 0 1-.397-.804c0-.552.435-1 .97-1 .534 0 .97.448.97 1a1 1 0 0 1-.397.804l.153 1.418zM6.303 4.5H2.424v-1c0-1.103.87-2 1.94-2 1.069 0 1.939.897 1.939 2v1z"/>
</svg>
