<svg xmlns="http://www.w3.org/2000/svg" width="14" height="15.205" viewBox="0 0 14 15.205">
    <defs>
        <style>
            .cls-1{fill:rgba(75,88,98,.75)}.cls-2{clip-path:url(#clip-path)}
        </style>
        <clipPath id="clip-path">
            <path id="Rectangle_3" d="M0 0h14v8.2a7 7 0 0 1-7 7 7 7 0 0 1-7-7V0z" class="cls-1" data-name="Rectangle 3" transform="translate(548 160)"/>
        </clipPath>
    </defs>
    <g id="Mask_Group_1" class="cls-2" data-name="Mask Group 1" transform="translate(-548 -160)">
        <g id="share-option" transform="translate(548 161.352)">
            <path id="Path_1" d="M13.852 48.344l-4-4A.5.5 0 0 0 9 44.7v2H7.25q-5.571 0-6.836 3.148A7.114 7.114 0 0 0 0 52.446a9.382 9.382 0 0 0 .992 3.523l.082.187.105.234a.888.888 0 0 0 .1.172.267.267 0 0 0 .221.138.228.228 0 0 0 .184-.078.291.291 0 0 0 .066-.2 1.591 1.591 0 0 0-.02-.207 1.616 1.616 0 0 1-.02-.184q-.039-.531-.039-.961a6.65 6.65 0 0 1 .137-1.414 4.246 4.246 0 0 1 .379-1.082 2.718 2.718 0 0 1 .625-.789 3.668 3.668 0 0 1 .824-.543 4.469 4.469 0 0 1 1.039-.332 9.9 9.9 0 0 1 1.2-.168q.609-.042 1.375-.042H9v2a.5.5 0 0 0 .852.352l4-4a.491.491 0 0 0 0-.7z" class="cls-1" data-name="Path 1" transform="translate(0 -44.195)"/>
        </g>
    </g>
</svg>
