<svg xmlns="http://www.w3.org/2000/svg" xmlns:xlink="http://www.w3.org/1999/xlink" width="170" height="168" viewBox="0 0 170 168">
    <defs>
        <circle id="a" cx="30.994" cy="30.994" r="30.994"/>
        <path id="c" d="M11.314 0C5.065 0 0 5.065 0 11.314V50.88c0 6.249 5.065 11.314 11.314 11.314H50.88c6.249 0 11.314-5.065 11.314-11.314V11.314C62.195 5.065 57.13 0 50.881 0H11.314z"/>
        <linearGradient id="d" x1="5.328%" x2="94.672%" y1="5.328%" y2="94.672%">
            <stop offset="0%" stop-color="#2A3B6B"/>
            <stop offset="100%" stop-color="#141C34"/>
        </linearGradient>
    </defs>
    <g fill="none" fill-rule="evenodd">
        <circle cx="87.924" cy="89.624" r="72.624" fill="#F2F2F2"/>
        <path fill="#3F3D56" d="M40.957 141.148c-4.678 7.174-3.396 16.298-3.396 16.298s8.866-2.507 13.544-9.68c4.678-7.175 3.397-16.3 3.397-16.3s-8.867 2.508-13.545 9.682z"/>
        <path fill="#6C63FF" d="M37.933 157.041s-.113-.018-.323-.06a21.04 21.04 0 0 1-.678-.15c-2.513-.592-9.194-2.595-13.561-7.86-5.466-6.593-5.236-15.804-5.236-15.804s8.358 1.358 13.866 7.279c.238.254.47.518.696.79 4.757 5.737 5.2 13.456 5.235 15.364.005.286.001.441.001.441z"/>
        <path stroke="#3F3D56" stroke-width="2" d="M34.105 141.148c4.678 7.174 3.397 16.298 3.397 16.298s-8.867-2.507-13.545-9.68c-4.678-7.175-3.396-16.3-3.396-16.3s8.866 2.508 13.544 9.682z"/>
        <path fill="#000" d="M37.766 156.688c-.124.149-.233.276-.322.38-.2.227-.312.346-.312.346s-.137-.173-.367-.495c-1.264-1.761-5.328-8.025-5.014-15.26.017-.38.044-.755.083-1.126.239.255.471.518.697.791 4.756 5.737 5.2 13.456 5.235 15.364z" opacity=".1"/>
        <path fill="#6C63FF" d="M44.421 142.121c-.37 8.557-6.721 15.232-6.721 15.232s-5.753-7.198-5.383-15.755c.37-8.556 6.722-15.231 6.722-15.231s5.752 7.198 5.382 15.754z"/>
        <path stroke="#3F3D56" stroke-width="2" d="M37.967 157.328l1.396-30.395"/>
        <ellipse cx="85" cy="160.505" fill="#3F3D56" rx="85" ry="6.939"/>
        <path fill="#2F2E41" d="M98.172 77.092c-2.119.715-4.039 2.39-4.473 4.584-.201 1.017-.078 2.074-.247 3.097-.393 2.372-2.255 4.184-3.972 5.867-1.718 1.683-3.492 3.638-3.617 6.04-.137 2.63 1.77 5.093 1.44 7.705-.384 3.035-3.59 5.002-4.382 7.956-.529 1.973.12 4.099 1.186 5.84 2.033 3.32 5.508 5.574 9.208 6.782 3.7 1.208 7.642 1.462 11.534 1.503 4.74.05 9.885-.357 13.446-3.485a10.772 10.772 0 0 0 3.577-7.013c.338-3.623-1.174-7.367-.131-10.853.656-2.194 2.302-4.198 2.057-6.475-.24-2.227-2.185-3.805-3.519-5.603-1.245-1.68-2.001-3.663-2.742-5.618l-2.534-6.69c-.498-1.315-1.045-2.698-2.156-3.56-2.078-1.617-5.42-1.3-7.851-.966-2.255.31-4.656.157-6.824.889z"/>
        <path fill="#FFB9B9" d="M99.24 96.652s1.124 3.651-7.302 7.864.843 8.707.843 8.707l9.83 2.247s10.111-1.404 11.235-3.09c1.123-1.685 3.09-7.302 2.528-8.145-.42-.6-.89-1.163-1.405-1.685 0 0-6.74-1.123-6.46-4.213.281-3.09-9.268-1.685-9.268-1.685z"/>
        <path fill="#000" d="M99.24 96.652s1.124 3.651-7.302 7.864.843 8.707.843 8.707l9.83 2.247s10.111-1.404 11.235-3.09c1.123-1.685 3.09-7.302 2.528-8.145-.42-.6-.89-1.163-1.405-1.685 0 0-6.74-1.123-6.46-4.213.281-3.09-9.268-1.685-9.268-1.685z" opacity=".1"/>
        <circle cx="104.754" cy="93.421" r="8.988" fill="#FFB9B9"/>
        <path fill="#6C63FF" d="M103.518 112.167s-10.825-.791-11.03-8.26c0 0-3.856-.446-4.98.677-1.123 1.123-4.775 1.966-4.775 4.775 0 2.808 6.18 11.234 6.18 11.234s3.37 11.235 1.965 13.201c-1.404 1.966-1.685 7.022-1.685 7.022s14.044-1.124 16.29 0c2.248 1.123 11.235 1.123 11.797 0 .562-1.124-.562-15.167-.562-15.167s2.528-3.37 1.966-7.303l6.741-7.864s-2.528-7.583-6.46-7.583c0 0-5.336-1.405-5.477-.702-.14.702 2.669 8.566-9.97 9.97z"/>
        <path fill="#FFB9B9" d="M78.2 137.104s2.528 3.932 8.988 4.774c6.46.843 7.583-1.404 7.021-1.966-.561-.561-7.302-3.09-7.302-3.09l-3.932-3.089-4.775 3.37zM124.533 133.733l-7.303 4.213s-9.55-.561-5.898 2.247c3.651 2.809 10.392 1.685 10.392 1.685l6.46-3.09-3.651-5.055z"/>
        <path fill="#2F2E41" d="M87.62 141.1s-6.741 16.571 1.404 19.099c8.145 2.528 30.614 1.966 35.67-1.404 5.056-3.37 6.46-7.865 5.617-9.269-.842-1.404-6.46-5.336-10.392-5.617-3.932-.281-32.3-2.809-32.3-2.809z"/>
        <path fill="#000" d="M87.62 141.1s-6.741 16.571 1.404 19.099c8.145 2.528 30.614 1.966 35.67-1.404 5.056-3.37 6.46-7.865 5.617-9.269-.842-1.404-6.46-5.336-10.392-5.617-3.932-.281-32.3-2.809-32.3-2.809z" opacity=".05"/>
        <path fill="#2F2E41" d="M119.455 142.184s23.793-8.613 23.512 1.78c-.28 10.391-15.167 13.2-15.167 13.2l-4.494.562-24.716.842s.843-4.494-1.123-5.055c0 0 6.46-1.686 6.74-1.966.281-.281 16.29-5.899 17.414-6.18 1.124-.28 4.494-2.527 7.022-2.246 0 0 2.809-2.247 5.898-1.686l-8.707.562-6.38.187z"/>
        <path fill="#000" d="M119.455 142.184s23.793-8.613 23.512 1.78c-.28 10.391-15.167 13.2-15.167 13.2l-4.494.562-24.716.842s.843-4.494-1.123-5.055c0 0 6.46-1.686 6.74-1.966.281-.281 16.29-5.899 17.414-6.18 1.124-.28 4.494-2.527 7.022-2.246 0 0 2.809-2.247 5.898-1.686l-8.707.562-6.38.187z" opacity=".1"/>
        <path fill="#2F2E41" d="M115.6 143.51l3 6.844 18.256-6.46 1.404-3.651-4.774-.843-9.6 1.685-4.163 1.124z"/>
        <path fill="#000" d="M115.6 143.51l3 6.844 18.256-6.46 1.404-3.651-4.774-.843-9.6 1.685-4.163 1.124z" opacity=".1"/>
        <path fill="#2F2E41" d="M76.456 151.712s5.336 6.741 11.515 8.426c6.18 1.685 9.55-.562 9.55-.562l-1.966-7.864-.843-5.055-3.651-2.528-7.303-3.37-8.707-2.81s-3.651-.561-3.651 0c0 .562 3.37 8.988 3.37 8.988l1.686 4.775z"/>
        <path fill="#F2F2F2" d="M83.3 155.31s1.123 8.146 2.528 8.708c1.404.561 5.617-.562 6.74-1.124 1.124-.562 4.943-3.153 4.943-3.153s-13.368-4.992-14.211-4.43z"/>
        <path fill="#FFB9B9" d="M108.635 156.4l5.337.843-.562 6.46-7.443-1.808z"/>
        <path fill="#F2F2F2" d="M112.17 158.14s-2.5 2.977.027 4.662l1.685 1.404s5.618 1.124 6.18 1.685c.561.562 2.808-.842 2.808-.842s.281-8.426 0-8.988c-.28-.562-3.651-1.123-3.932-.562-.28.562-3.651 1.405-5.617.843l-1.15 1.798z"/>
        <path fill="#2F2E41" d="M89.487 143.096s-19.66-11.515-22.75-7.302c-3.09 4.213-6.46 10.11 2.528 14.605 8.988 4.494 37.074 13.762 37.074 13.762s4.213-6.46 4.213-8.145c0 0-14.885-6.74-17.413-7.303-2.528-.561-12.64-7.021-14.044-7.583-1.404-.562-3.37-2.247-3.37-2.247l13.762 4.213z"/>
        <path fill="#6C63FF" d="M83.82 108.233l-1.124.843s-2.528 6.46-2.809 10.111c-.28 3.651-3.651 14.886-3.37 16.29.28 1.405.561 2.528 2.247 3.933 0 0 2.246-5.056 6.179-4.213l4.774-17.414-5.898-9.55zM123.203 108.233l2.247 2.528s1.404 3.37 1.404 4.213 2.81 13.2 3.09 13.763c.28.561 1.404 7.583 0 9.268-1.404 1.685-3.932 2.809-3.932 2.809s1.685-5.898-3.651-6.18l.561-2.246-5.055-16.852 5.336-7.303z"/>
        <path fill="#3F3D56" d="M84.433 127.657v14.794a3.557 3.557 0 0 0 3.504 3.557l30.94.458a3.557 3.557 0 0 0 3.607-3.42l.569-14.796a3.557 3.557 0 0 0-3.503-3.693l-31.508-.457a3.557 3.557 0 0 0-3.609 3.557z"/>
        <ellipse cx="104.874" cy="87.943" fill="#2F2E41" rx="9.674" ry="5.209"/>
        <circle cx="103.68" cy="135.414" r="2.247" fill="#F2F2F2"/>
        <path fill="#2F2E41" d="M164.884 134.867v25.659c0 .44-.237.503-.622.717-1.301.722-4.507 2.007-8.357-.027-.395-.21-.638-.28-.638-.727v-25.458s4.89 1.973 9.617-.164z"/>
        <ellipse cx="160.076" cy="134.755" fill="#3F3D56" stroke="#6C63FF" rx="4.809" ry="1.021"/>
        <g fill="#000" opacity=".8" transform="translate(155.267 145.633)">
            <circle cx="8.889" cy=".128" r="1"/>
            <circle cx="8.341" cy=".281" r="1"/>
            <circle cx="7.665" cy=".497" r="1"/>
            <circle cx="6.451" cy=".758" r="1"/>
            <circle cx="5.172" cy=".913" r="1"/>
            <circle cx="3.847" cy=".974" r="1"/>
            <circle cx="1.946" cy=".712" r="1"/>
            <circle cx="2.576" cy=".866" r="1"/>
            <circle cx=".768" cy=".497" r="1"/>
            <circle cx="1.335" cy=".605" r="1"/>
            <circle cx=".147" cy=".281" r="1"/>
            <circle cx="7.045" cy=".65" r="1"/>
            <circle cx="5.793" cy=".866" r="1"/>
            <circle cx="4.435" cy=".974" r="1"/>
            <circle cx="3.199" cy=".974" r="1"/>
        </g>
        <g fill="#000" opacity=".8" transform="translate(155.267 145.633)">
            <circle cx="8.889" cy=".244" r="1"/>
            <circle cx="8.341" cy=".397" r="1"/>
            <circle cx="7.665" cy=".613" r="1"/>
            <circle cx="6.451" cy=".874" r="1"/>
            <circle cx="5.172" cy="1.029" r="1"/>
            <circle cx="3.847" cy="1.09" r="1"/>
            <circle cx="1.946" cy=".829" r="1"/>
            <circle cx="2.576" cy=".982" r="1"/>
            <circle cx=".768" cy=".613" r="1"/>
            <circle cx="1.335" cy=".721" r="1"/>
            <circle cx=".147" cy=".397" r="1"/>
            <circle cx="7.045" cy=".766" r="1"/>
            <circle cx="5.793" cy=".982" r="1"/>
            <circle cx="4.435" cy="1.09" r="1"/>
            <circle cx="3.199" cy="1.09" r="1"/>
        </g>
        <g fill="#000" opacity=".8" transform="translate(155.267 146.2)">
            <circle cx="8.889" cy=".153" r="1"/>
            <circle cx="8.341" cy=".306" r="1"/>
            <circle cx="7.665" cy=".522" r="1"/>
            <circle cx="6.451" cy=".783" r="1"/>
            <circle cx="5.172" cy=".938" r="1"/>
            <circle cx="3.847" cy=".999" r="1"/>
            <circle cx="1.946" cy=".738" r="1"/>
            <circle cx="2.576" cy=".891" r="1"/>
            <circle cx=".768" cy=".522" r="1"/>
            <circle cx="1.335" cy=".63" r="1"/>
            <circle cx=".147" cy=".306" r="1"/>
            <circle cx="7.045" cy=".675" r="1"/>
            <circle cx="5.793" cy=".891" r="1"/>
            <circle cx="4.435" cy=".999" r="1"/>
            <circle cx="3.199" cy=".999" r="1"/>
        </g>
        <g fill="#000" opacity=".8" transform="translate(155.267 146.767)">
            <circle cx="8.889" cy=".269" r="1"/>
            <circle cx="8.341" cy=".422" r="1"/>
            <circle cx="7.665" cy=".638" r="1"/>
            <circle cx="6.451" cy=".9" r="1"/>
            <circle cx="5.172" cy="1.055" r="1"/>
            <circle cx="3.847" cy="1.115" r="1"/>
            <circle cx="1.946" cy=".854" r="1"/>
            <circle cx="2.576" cy="1.008" r="1"/>
            <circle cx=".768" cy=".638" r="1"/>
            <circle cx="1.335" cy=".746" r="1"/>
            <circle cx=".147" cy=".422" r="1"/>
            <circle cx="7.045" cy=".792" r="1"/>
            <circle cx="5.793" cy="1.008" r="1"/>
            <circle cx="4.435" cy="1.115" r="1"/>
            <circle cx="3.199" cy="1.115" r="1"/>
        </g>
        <g fill="#000" opacity=".8" transform="translate(155.267 147.333)">
            <circle cx="8.889" cy=".178" r="1"/>
            <circle cx="8.341" cy=".331" r="1"/>
            <circle cx="7.665" cy=".547" r="1"/>
            <circle cx="6.451" cy=".809" r="1"/>
            <circle cx="5.172" cy=".964" r="1"/>
            <circle cx="3.847" cy="1.024" r="1"/>
            <circle cx="1.946" cy=".763" r="1"/>
            <circle cx="2.576" cy=".917" r="1"/>
            <circle cx=".768" cy=".547" r="1"/>
            <circle cx="1.335" cy=".655" r="1"/>
            <circle cx=".147" cy=".331" r="1"/>
            <circle cx="7.045" cy=".701" r="1"/>
            <circle cx="5.793" cy=".917" r="1"/>
            <circle cx="4.435" cy="1.024" r="1"/>
            <circle cx="3.199" cy="1.024" r="1"/>
        </g>
        <g fill="#000" opacity=".8" transform="translate(155.267 147.9)">
            <circle cx="8.889" cy=".295" r="1"/>
            <circle cx="8.341" cy=".448" r="1"/>
            <circle cx="7.665" cy=".664" r="1"/>
            <circle cx="6.451" cy=".925" r="1"/>
            <circle cx="5.172" cy="1.08" r="1"/>
            <circle cx="3.847" cy="1.141" r="1"/>
            <circle cx="1.946" cy=".879" r="1"/>
            <circle cx="2.576" cy="1.033" r="1"/>
            <circle cx=".768" cy=".664" r="1"/>
            <circle cx="1.335" cy=".771" r="1"/>
            <circle cx=".147" cy=".448" r="1"/>
            <circle cx="7.045" cy=".817" r="1"/>
            <circle cx="5.793" cy="1.033" r="1"/>
            <circle cx="4.435" cy="1.141" r="1"/>
            <circle cx="3.199" cy="1.141" r="1"/>
        </g>
        <g fill="#000" opacity=".8" transform="translate(155.267 148.467)">
            <circle cx="8.889" cy=".204" r="1"/>
            <circle cx="8.341" cy=".357" r="1"/>
            <circle cx="7.665" cy=".573" r="1"/>
            <circle cx="6.451" cy=".834" r="1"/>
            <circle cx="5.172" cy=".989" r="1"/>
            <circle cx="3.847" cy="1.05" r="1"/>
            <circle cx="1.946" cy=".788" r="1"/>
            <circle cx="2.576" cy=".942" r="1"/>
            <circle cx=".768" cy=".573" r="1"/>
            <circle cx="1.335" cy=".68" r="1"/>
            <circle cx=".147" cy=".357" r="1"/>
            <circle cx="7.045" cy=".726" r="1"/>
            <circle cx="5.793" cy=".942" r="1"/>
            <circle cx="4.435" cy="1.05" r="1"/>
            <circle cx="3.199" cy="1.05" r="1"/>
        </g>
        <g fill="#000" opacity=".8" transform="translate(155.267 149.033)">
            <circle cx="8.889" cy=".113" r="1"/>
            <circle cx="8.341" cy=".266" r="1"/>
            <circle cx="7.665" cy=".482" r="1"/>
            <circle cx="6.451" cy=".743" r="1"/>
            <circle cx="5.172" cy=".898" r="1"/>
            <circle cx="3.847" cy=".959" r="1"/>
            <circle cx="1.946" cy=".697" r="1"/>
            <circle cx="2.576" cy=".851" r="1"/>
            <circle cx=".768" cy=".482" r="1"/>
            <circle cx="1.335" cy=".589" r="1"/>
            <circle cx=".147" cy=".266" r="1"/>
            <circle cx="7.045" cy=".635" r="1"/>
            <circle cx="5.793" cy=".851" r="1"/>
            <circle cx="4.435" cy=".959" r="1"/>
            <circle cx="3.199" cy=".959" r="1"/>
        </g>
        <g fill="#000" opacity=".8" transform="translate(155.267 149.6)">
            <circle cx="8.889" cy=".229" r="1"/>
            <circle cx="8.341" cy=".382" r="1"/>
            <circle cx="7.665" cy=".598" r="1"/>
            <circle cx="6.451" cy=".859" r="1"/>
            <circle cx="5.172" cy="1.014" r="1"/>
            <circle cx="3.847" cy="1.075" r="1"/>
            <circle cx="1.946" cy=".814" r="1"/>
            <circle cx="2.576" cy=".967" r="1"/>
            <circle cx=".768" cy=".598" r="1"/>
            <circle cx="1.335" cy=".706" r="1"/>
            <circle cx=".147" cy=".382" r="1"/>
            <circle cx="7.045" cy=".751" r="1"/>
            <circle cx="5.793" cy=".967" r="1"/>
            <circle cx="4.435" cy="1.075" r="1"/>
            <circle cx="3.199" cy="1.075" r="1"/>
        </g>
        <g fill="#000" opacity=".8" transform="translate(155.267 150.167)">
            <circle cx="8.889" cy=".138" r="1"/>
            <circle cx="8.341" cy=".291" r="1"/>
            <circle cx="7.665" cy=".507" r="1"/>
            <circle cx="6.451" cy=".768" r="1"/>
            <circle cx="5.172" cy=".923" r="1"/>
            <circle cx="3.847" cy=".984" r="1"/>
            <circle cx="1.946" cy=".723" r="1"/>
            <circle cx="2.576" cy=".876" r="1"/>
            <circle cx=".768" cy=".507" r="1"/>
            <circle cx="1.335" cy=".615" r="1"/>
            <circle cx=".147" cy=".291" r="1"/>
            <circle cx="7.045" cy=".66" r="1"/>
            <circle cx="5.793" cy=".876" r="1"/>
            <circle cx="4.435" cy=".984" r="1"/>
            <circle cx="3.199" cy=".984" r="1"/>
        </g>
        <g fill="#000" opacity=".8" transform="translate(155.267 150.733)">
            <circle cx="8.889" cy=".254" r="1"/>
            <circle cx="8.341" cy=".407" r="1"/>
            <circle cx="7.665" cy=".623" r="1"/>
            <circle cx="6.451" cy=".885" r="1"/>
            <circle cx="5.172" cy="1.039" r="1"/>
            <circle cx="3.847" cy="1.1" r="1"/>
            <circle cx="1.946" cy=".839" r="1"/>
            <circle cx="2.576" cy=".992" r="1"/>
            <circle cx=".768" cy=".623" r="1"/>
            <circle cx="1.335" cy=".731" r="1"/>
            <circle cx=".147" cy=".407" r="1"/>
            <circle cx="7.045" cy=".777" r="1"/>
            <circle cx="5.793" cy=".992" r="1"/>
            <circle cx="4.435" cy="1.1" r="1"/>
            <circle cx="3.199" cy="1.1" r="1"/>
        </g>
        <g fill="#000" opacity=".8" transform="translate(155.267 151.3)">
            <circle cx="8.889" cy=".163" r="1"/>
            <circle cx="8.341" cy=".316" r="1"/>
            <circle cx="7.665" cy=".532" r="1"/>
            <circle cx="6.451" cy=".794" r="1"/>
            <circle cx="5.172" cy=".948" r="1"/>
            <circle cx="3.847" cy="1.009" r="1"/>
            <circle cx="1.946" cy=".748" r="1"/>
            <circle cx="2.576" cy=".901" r="1"/>
            <circle cx=".768" cy=".532" r="1"/>
            <circle cx="1.335" cy=".64" r="1"/>
            <circle cx=".147" cy=".316" r="1"/>
            <circle cx="7.045" cy=".686" r="1"/>
            <circle cx="5.793" cy=".901" r="1"/>
            <circle cx="4.435" cy="1.009" r="1"/>
            <circle cx="3.199" cy="1.009" r="1"/>
        </g>
        <g fill="#000" opacity=".8" transform="translate(155.267 151.3)">
            <circle cx="8.889" cy=".28" r="1"/>
            <circle cx="8.341" cy=".433" r="1"/>
            <circle cx="7.665" cy=".648" r="1"/>
            <circle cx="6.451" cy=".91" r="1"/>
            <circle cx="5.172" cy="1.065" r="1"/>
            <circle cx="3.847" cy="1.126" r="1"/>
            <circle cx="1.946" cy=".864" r="1"/>
            <circle cx="2.576" cy="1.018" r="1"/>
            <circle cx=".768" cy=".648" r="1"/>
            <circle cx="1.335" cy=".756" r="1"/>
            <circle cx=".147" cy=".433" r="1"/>
            <circle cx="7.045" cy=".802" r="1"/>
            <circle cx="5.793" cy="1.018" r="1"/>
            <circle cx="4.435" cy="1.126" r="1"/>
            <circle cx="3.199" cy="1.126" r="1"/>
        </g>
        <g fill="#000" opacity=".8" transform="translate(155.267 152.433)">
            <circle cx="8.889" cy=".188" r="1"/>
            <circle cx="8.341" cy=".342" r="1"/>
            <circle cx="7.665" cy=".557" r="1"/>
            <circle cx="6.451" cy=".819" r="1"/>
            <circle cx="5.172" cy=".974" r="1"/>
            <circle cx="3.847" cy="1.035" r="1"/>
            <circle cx="1.946" cy=".773" r="1"/>
            <circle cx="2.576" cy=".927" r="1"/>
            <circle cx=".768" cy=".557" r="1"/>
            <circle cx="1.335" cy=".665" r="1"/>
            <circle cx=".147" cy=".342" r="1"/>
            <circle cx="7.045" cy=".711" r="1"/>
            <circle cx="5.793" cy=".927" r="1"/>
            <circle cx="4.435" cy="1.035" r="1"/>
            <circle cx="3.199" cy="1.035" r="1"/>
        </g>
        <g fill="#000" opacity=".8" transform="translate(155.267 152.433)">
            <circle cx="8.889" cy=".305" r="1"/>
            <circle cx="8.341" cy=".458" r="1"/>
            <circle cx="7.665" cy=".674" r="1"/>
            <circle cx="6.451" cy=".935" r="1"/>
            <circle cx="5.172" cy="1.09" r="1"/>
            <circle cx="3.847" cy="1.151" r="1"/>
            <circle cx="1.946" cy=".89" r="1"/>
            <circle cx="2.576" cy="1.043" r="1"/>
            <circle cx=".768" cy=".674" r="1"/>
            <circle cx="1.335" cy=".782" r="1"/>
            <circle cx=".147" cy=".458" r="1"/>
            <circle cx="7.045" cy=".827" r="1"/>
            <circle cx="5.793" cy="1.043" r="1"/>
            <circle cx="4.435" cy="1.151" r="1"/>
            <circle cx="3.199" cy="1.151" r="1"/>
        </g>
        <g fill="#000" opacity=".8" transform="translate(155.267 153)">
            <circle cx="8.889" cy=".214" r="1"/>
            <circle cx="8.341" cy=".367" r="1"/>
            <circle cx="7.665" cy=".583" r="1"/>
            <circle cx="6.451" cy=".844" r="1"/>
            <circle cx="5.172" cy=".999" r="1"/>
            <circle cx="3.847" cy="1.06" r="1"/>
            <circle cx="1.946" cy=".798" r="1"/>
            <circle cx="2.576" cy=".952" r="1"/>
            <circle cx=".768" cy=".583" r="1"/>
            <circle cx="1.335" cy=".691" r="1"/>
            <circle cx=".147" cy=".367" r="1"/>
            <circle cx="7.045" cy=".736" r="1"/>
            <circle cx="5.793" cy=".952" r="1"/>
            <circle cx="4.435" cy="1.06" r="1"/>
            <circle cx="3.199" cy="1.06" r="1"/>
        </g>
        <g fill="#000" opacity=".8" transform="translate(155.267 154.133)">
            <circle cx="8.889" cy=".123" r="1"/>
            <circle cx="8.341" cy=".276" r="1"/>
            <circle cx="7.665" cy=".492" r="1"/>
            <circle cx="6.451" cy=".753" r="1"/>
            <circle cx="5.172" cy=".908" r="1"/>
            <circle cx="3.847" cy=".969" r="1"/>
            <circle cx="1.946" cy=".707" r="1"/>
            <circle cx="2.576" cy=".861" r="1"/>
            <circle cx=".768" cy=".492" r="1"/>
            <circle cx="1.335" cy=".6" r="1"/>
            <circle cx=".147" cy=".276" r="1"/>
            <circle cx="7.045" cy=".645" r="1"/>
            <circle cx="5.793" cy=".861" r="1"/>
            <circle cx="4.435" cy=".969" r="1"/>
            <circle cx="3.199" cy=".969" r="1"/>
        </g>
        <g fill="#000" opacity=".8" transform="translate(155.267 154.133)">
            <circle cx="8.889" cy=".239" r="1"/>
            <circle cx="8.341" cy=".392" r="1"/>
            <circle cx="7.665" cy=".608" r="1"/>
            <circle cx="6.451" cy=".869" r="1"/>
            <circle cx="5.172" cy="1.024" r="1"/>
            <circle cx="3.847" cy="1.085" r="1"/>
            <circle cx="1.946" cy=".824" r="1"/>
            <circle cx="2.576" cy=".977" r="1"/>
            <circle cx=".768" cy=".608" r="1"/>
            <circle cx="1.335" cy=".716" r="1"/>
            <circle cx=".147" cy=".392" r="1"/>
            <circle cx="7.045" cy=".762" r="1"/>
            <circle cx="5.793" cy=".977" r="1"/>
            <circle cx="4.435" cy="1.085" r="1"/>
            <circle cx="3.199" cy="1.085" r="1"/>
        </g>
        <g fill="#000" opacity=".8" transform="translate(155.267 154.7)">
            <circle cx="8.889" cy=".148" r="1"/>
            <circle cx="8.341" cy=".301" r="1"/>
            <circle cx="7.665" cy=".517" r="1"/>
            <circle cx="6.451" cy=".778" r="1"/>
            <circle cx="5.172" cy=".933" r="1"/>
            <circle cx="3.847" cy=".994" r="1"/>
            <circle cx="1.946" cy=".733" r="1"/>
            <circle cx="2.576" cy=".886" r="1"/>
            <circle cx=".768" cy=".517" r="1"/>
            <circle cx="1.335" cy=".625" r="1"/>
            <circle cx=".147" cy=".301" r="1"/>
            <circle cx="7.045" cy=".671" r="1"/>
            <circle cx="5.793" cy=".886" r="1"/>
            <circle cx="4.435" cy=".994" r="1"/>
            <circle cx="3.199" cy=".994" r="1"/>
        </g>
        <g fill="#000" opacity=".8" transform="translate(155.267 155.267)">
            <circle cx="8.889" cy=".264" r="1"/>
            <circle cx="8.341" cy=".418" r="1"/>
            <circle cx="7.665" cy=".633" r="1"/>
            <circle cx="6.451" cy=".895" r="1"/>
            <circle cx="5.172" cy="1.05" r="1"/>
            <circle cx="3.847" cy="1.11" r="1"/>
            <circle cx="1.946" cy=".849" r="1"/>
            <circle cx="2.576" cy="1.003" r="1"/>
            <circle cx=".768" cy=".633" r="1"/>
            <circle cx="1.335" cy=".741" r="1"/>
            <circle cx=".147" cy=".418" r="1"/>
            <circle cx="7.045" cy=".787" r="1"/>
            <circle cx="5.793" cy="1.003" r="1"/>
            <circle cx="4.435" cy="1.11" r="1"/>
            <circle cx="3.199" cy="1.11" r="1"/>
        </g>
        <g fill="#000" opacity=".8" transform="translate(155.267 155.833)">
            <circle cx="8.889" cy=".173" r="1"/>
            <circle cx="8.341" cy=".327" r="1"/>
            <circle cx="7.665" cy=".542" r="1"/>
            <circle cx="6.451" cy=".804" r="1"/>
            <circle cx="5.172" cy=".959" r="1"/>
            <circle cx="3.847" cy="1.019" r="1"/>
            <circle cx="1.946" cy=".758" r="1"/>
            <circle cx="2.576" cy=".912" r="1"/>
            <circle cx=".768" cy=".542" r="1"/>
            <circle cx="1.335" cy=".65" r="1"/>
            <circle cx=".147" cy=".327" r="1"/>
            <circle cx="7.045" cy=".696" r="1"/>
            <circle cx="5.793" cy=".912" r="1"/>
            <circle cx="4.435" cy="1.019" r="1"/>
            <circle cx="3.199" cy="1.019" r="1"/>
        </g>
        <g fill="#000" opacity=".8" transform="translate(155.267 156.4)">
            <circle cx="8.889" cy=".29" r="1"/>
            <circle cx="8.341" cy=".443" r="1"/>
            <circle cx="7.665" cy=".659" r="1"/>
            <circle cx="6.451" cy=".92" r="1"/>
            <circle cx="5.172" cy="1.075" r="1"/>
            <circle cx="3.847" cy="1.136" r="1"/>
            <circle cx="1.946" cy=".874" r="1"/>
            <circle cx="2.576" cy="1.028" r="1"/>
            <circle cx=".768" cy=".659" r="1"/>
            <circle cx="1.335" cy=".767" r="1"/>
            <circle cx=".147" cy=".443" r="1"/>
            <circle cx="7.045" cy=".812" r="1"/>
            <circle cx="5.793" cy="1.028" r="1"/>
            <circle cx="4.435" cy="1.136" r="1"/>
            <circle cx="3.199" cy="1.136" r="1"/>
        </g>
        <g fill="#000" opacity=".8" transform="translate(155.267 156.967)">
            <circle cx="8.889" cy=".199" r="1"/>
            <circle cx="8.341" cy=".352" r="1"/>
            <circle cx="7.665" cy=".568" r="1"/>
            <circle cx="6.451" cy=".829" r="1"/>
            <circle cx="5.172" cy=".984" r="1"/>
            <circle cx="3.847" cy="1.045" r="1"/>
            <circle cx="1.946" cy=".783" r="1"/>
            <circle cx="2.576" cy=".937" r="1"/>
            <circle cx=".768" cy=".568" r="1"/>
            <circle cx="1.335" cy=".675" r="1"/>
            <circle cx=".147" cy=".352" r="1"/>
            <circle cx="7.045" cy=".721" r="1"/>
            <circle cx="5.793" cy=".937" r="1"/>
            <circle cx="4.435" cy="1.045" r="1"/>
            <circle cx="3.199" cy="1.045" r="1"/>
        </g>
        <g fill="#000" opacity=".8" transform="translate(155.267 157.533)">
            <circle cx="8.889" cy=".315" r="1"/>
            <circle cx="8.341" cy=".468" r="1"/>
            <circle cx="7.665" cy=".684" r="1"/>
            <circle cx="6.451" cy=".945" r="1"/>
            <circle cx="5.172" cy="1.1" r="1"/>
            <circle cx="3.847" cy="1.161" r="1"/>
            <circle cx="1.946" cy=".9" r="1"/>
            <circle cx="2.576" cy="1.053" r="1"/>
            <circle cx=".768" cy=".684" r="1"/>
            <circle cx="1.335" cy=".792" r="1"/>
            <circle cx=".147" cy=".468" r="1"/>
            <circle cx="7.045" cy=".837" r="1"/>
            <circle cx="5.793" cy="1.053" r="1"/>
            <circle cx="4.435" cy="1.161" r="1"/>
            <circle cx="3.199" cy="1.161" r="1"/>
        </g>
        <g transform="translate(28.333)">
            <mask id="b" fill="#fff">
                <use xlink:href="#a"/>
            </mask>
            <use fill="#FFF" xlink:href="#a"/>
            <g mask="url(#b)">
                <mask id="e" fill="#fff">
                    <use xlink:href="#c"/>
                </mask>
                <path fill="url(#d)" d="M10.259-1.659C3.677-1.659-1.66 3.677-1.66 10.26v41.677c0 6.582 5.336 11.918 11.918 11.918h41.677c6.582 0 11.918-5.336 11.918-11.918V10.26c0-6.582-5.336-11.918-11.918-11.918H10.26z" mask="url(#e)"/>
            </g>
        </g>
        <path fill="#FFF" d="M43.882 31.098c0 8.587 6.962 15.548 15.549 15.548S74.98 39.685 74.98 31.098c0-8.588-6.962-15.55-15.55-15.55-8.586 0-15.548 6.962-15.548 15.55"/>
        <path fill="#FFF" d="M47.031 45.082h10.59c.869 0 1.574-.705 1.574-1.575V32.278c0-.87-.705-1.574-1.575-1.574H47.031c-.87 0-1.574.705-1.574 1.574v11.23c0 .869.705 1.574 1.574 1.574"/>
        <path fill="#7F8180" d="M53.32 31.933h5.127c.516 0 .935.42.935.936v5.126a.936.936 0 0 1-.935.936H53.32a.936.936 0 0 1-.936-.936V32.87c0-.517.419-.936.936-.936"/>
        <path fill="#434542" d="M53.32 24.051h5.127c.516 0 .935.42.935.936v5.126a.936.936 0 0 1-.935.936H53.32a.936.936 0 0 1-.936-.936v-5.126c0-.517.419-.936.936-.936"/>
        <path fill="#A3A5A3" d="M61.203 24.051h5.126c.516 0 .935.42.935.936v5.126a.936.936 0 0 1-.935.936h-5.126a.936.936 0 0 1-.936-.936v-5.126c0-.517.419-.936.936-.936"/>
        <circle cx="75.65" cy="67.717" r="3.683" fill="#3F3D56"/>
        <circle cx="81.883" cy="74.517" r="1.983" fill="#3F3D56"/>
    </g>
</svg>
