<svg xmlns="http://www.w3.org/2000/svg" width="413" height="365" viewBox="0 0 413 365">
    <defs>
        <linearGradient id="a" x1="50.311%" x2="50.311%" y1="100.125%" y2=".281%">
            <stop offset="0%" stop-color="gray" stop-opacity=".25"/>
            <stop offset="54%" stop-color="gray" stop-opacity=".12"/>
            <stop offset="100%" stop-color="gray" stop-opacity=".1"/>
        </linearGradient>
        <linearGradient id="b" x1="49.993%" x2="49.993%" y1="100.041%" y2=".032%">
            <stop offset="0%" stop-color="gray" stop-opacity=".25"/>
            <stop offset="54%" stop-color="gray" stop-opacity=".12"/>
            <stop offset="100%" stop-color="gray" stop-opacity=".1"/>
        </linearGradient>
    </defs>
    <g fill="none" fill-rule="evenodd">
        <path fill="#FF718D" stroke="#FF718D" stroke-width="3" d="M227.763 192.625L212.12 177l15.642-15.625a.823.823 0 0 0 0-1.144.826.826 0 0 0-1.146 0l-15.642 15.625-15.598-15.625a.826.826 0 0 0-1.146 0 .823.823 0 0 0 0 1.144L209.873 177l-15.642 15.625a.823.823 0 0 0 0 1.144.826.826 0 0 0 1.146 0l15.642-15.625 15.642 15.625a.826.826 0 0 0 1.146 0c.264-.352.264-.836-.044-1.144z"/>
        <ellipse cx="335" cy="336" fill="#6C63FF" opacity=".1" rx="53" ry="9"/>
        <ellipse cx="175.5" cy="327.5" fill="#6C63FF" opacity=".1" rx="78.5" ry="5.5"/>
        <path fill="#6C63FF" d="M127.474 14.268C141.482 1.75 163.493-.79 183.504.19c62.876 3.119 119.661 33.547 168.798 67.94 17.787 12.475 35.262 25.885 46.824 43.037 23.479 34.928 16.542 83.31-16.142 112.046-11.117 9.801-24.59 17.286-38.42 23.924-24.59 11.806-51.137 21.34-79.018 24.013-19.922 1.916-40.065.356-59.853-2.317-55.273-7.529-109.524-24.147-155.014-52.526-19.966-12.474-38.731-27.978-46.957-48.115-8.227-20.137-2.98-45.665 17.386-57.604 8.45-4.946 18.499-7.173 28.37-9.267 14.497-3.074 29.26-6.104 42.378-12.385 13.518-6.46 29.526-18.979 26.858-33.324-2.935-15.37-5.247-28.825 8.76-41.344z" opacity=".1"/>
        <path d="M73 79h-3"/>
        <g fill="#000" opacity=".1">
            <path d="M180.606 287.88c1.691 2.891 4.407 4.76 7.389 4.76 5.164 0 9.348-5.471 9.348-12.188 0-6.717-4.229-12.143-9.348-12.143-2.448 0-4.63 1.2-6.321 3.202a13.217 13.217 0 0 0-1.603 2.491l-.089.534s-2.003 1.69-4.718.133v-39.498H136.67c-.623-.845-.801-1.913-.445-2.891.267-.89.89-1.646 1.736-2.136 2.894-1.69 4.808-4.403 4.808-7.383 0-5.16-5.476-9.341-12.197-9.341-6.722 0-12.197 4.181-12.197 9.34 0 2.447 1.202 4.627 3.205 6.317a13.23 13.23 0 0 0 2.493 1.601l.044.09c1.202 1.156 1.514 2.98.757 4.447h-17.405v73.17c0 9.564 7.79 17.348 17.36 17.348h50.524v-38.876a3.058 3.058 0 0 1 3.16-.667 3.6 3.6 0 0 1 2.093 1.69z"/>
            <path d="M115.66 233.614h6.053c-2.982-2.269-4.718-5.827-4.763-9.563 0-6.94 6.054-12.544 13.533-12.544 7.478 0 13.532 5.605 13.532 12.544-.044 3.736-1.78 7.294-4.763 9.563h36.19v-38.965c.846-.8 2.048-1.023 3.16-.667.89.267 1.648.89 2.137 1.735 1.692 2.89 4.363 4.759 7.39 4.759 5.163 0 9.347-5.471 9.347-12.188 0-6.716-4.184-12.187-9.347-12.187-2.449 0-4.63 1.2-6.321 3.202a13.217 13.217 0 0 0-1.603 2.491l-.089.045c-1.246 1.29-3.205 1.556-4.719.622v-39.498h-37.169c-.623-.845-.801-1.913-.445-2.892.267-.89.89-1.645 1.736-2.135 2.894-1.69 4.763-4.403 4.763-7.383 0-5.16-5.475-9.341-12.197-9.341-6.721 0-12.197 4.18-12.197 9.34 0 2.447 1.202 4.627 3.205 6.317a13.23 13.23 0 0 0 2.493 1.601l.045.09c1.202 1.156 1.513 2.98.756 4.447h-10.772v-2.046h7.924c-2.983-2.268-4.719-5.782-4.763-9.563 0-6.94 6.053-12.544 13.532-12.544 7.478 0 13.532 5.605 13.532 12.544-.044 3.736-1.78 7.295-4.807 9.563h34.32v-39.454a3.058 3.058 0 0 1 3.16-.667c.89.266 1.648.89 2.137 1.734 1.692 2.892 4.407 4.76 7.39 4.76 5.163 0 9.347-5.471 9.347-12.188 0-6.716-4.184-12.188-9.348-12.188-2.448 0-4.629 1.201-6.32 3.203a13.217 13.217 0 0 0-1.603 2.49l-.089.535s-2.003 1.69-4.719.133V52.534h-50.39c-9.57 0-17.36 7.784-17.36 17.347v18.77h-.267c-.579 0-1.024.446-1.024 1.024v8.896c0 .578.445 1.023 1.024 1.023h.267v9.074h-.356c-.579 0-1.024.445-1.024 1.023v16.992c0 .578.445 1.023 1.024 1.023h.356v6.672h-.267c-.579 0-1.024.445-1.024 1.023v5.471H106v11.52c0 .579.445 1.024 1.024 1.024h.311v80.198h8.325z"/>
            <path d="M247.733 115.518c0-.578-.445-1.023-1.024-1.023h-.623v-1.112h-.312V68.992c0-9.208-7.478-16.68-16.692-16.68h-50.079v33.805a12.423 12.423 0 0 1 9.793-4.938c6.989 0 12.687 6.05 12.687 13.522 0 7.473-5.654 13.522-12.687 13.522a12.252 12.252 0 0 1-9.793-4.892v37.497h40.508a12.267 12.267 0 0 1-4.763-9.564c0-6.939 6.054-12.588 13.488-12.588a14.36 14.36 0 0 1 9.08 3.247c5.12 4.093 5.966 11.565 1.87 16.725a9.298 9.298 0 0 1-1.87 1.868v.312h8.814v-.045h1.647l-.044-25.265zM234.29 231.657v-4.448c.178-.267.356-.534.49-.845.578-1.068.89-2.313.934-3.559 0-.845-.133-1.646-.4-2.402-.223-.711-.58-1.334-.98-1.957-2.047-2.936-6.098-4.982-10.772-4.982-6.766 0-12.197 4.181-12.197 9.341 0 2.447 1.202 4.626 3.205 6.316a13.23 13.23 0 0 0 2.493 1.602l.044.089c1.202 1.156 1.514 2.98.757 4.448h-39.261v36.474c2.27-3.07 5.875-4.849 9.704-4.893 6.944 0 12.553 6.05 12.553 13.522 0 7.473-5.61 13.522-12.553 13.522a12.274 12.274 0 0 1-9.704-4.893v29.446h45.048c5.92 0 10.683-4.76 10.728-10.675V235.26v72.414c0 5.916-4.808 10.72-10.728 10.72h-45.138v7.117h46.74c9.57 0 17.36-7.784 17.36-17.348v-74.816h-8.323v-1.69z"/>
        </g>
        <path fill="#3A3768" d="M127.085 316.842c-5.93 0-10.747-4.832-10.747-10.783V233H108v73.552c0 9.619 7.803 17.448 17.39 17.448H176v-7.158h-48.915z"/>
        <path fill="#6C63FF" d="M179.253 284.634c.885.267 1.636.888 2.123 1.732 1.68 2.886 4.377 4.75 7.34 4.75 5.128 0 9.284-5.46 9.284-12.165 0-6.704-4.156-12.165-9.285-12.165-2.432 0-4.598 1.2-6.278 3.197a13.2 13.2 0 0 0-1.592 2.486l-.088.533s-1.99 1.687-4.687.133V233.71h-38.334c-.619-.843-.795-1.909-.442-2.885.265-.888.884-1.643 1.725-2.132 2.873-1.687 4.775-4.395 4.775-7.37 0-5.15-5.439-9.323-12.115-9.323s-12.115 4.173-12.115 9.323c0 2.442 1.194 4.618 3.184 6.305a13.133 13.133 0 0 0 2.476 1.598l.044.089c1.194 1.154 1.503 2.975.752 4.44H117V306.3c0 5.905 4.775 10.7 10.656 10.7h48.547v-31.7a2.878 2.878 0 0 1 3.05-.666z"/>
        <path fill="#3A3768" d="M107 139h1v2h-1zM109 139h7v2h-7zM108 139h1v2h-1zM107.767 152H108v-10h-1v9.017c0 .556.333.983.767.983zM116 141h-6.93v9.421c0 .581-.428 1.027-.984 1.027H108V232h8v-91z"/>
        <path fill="#3A3768" d="M108 152h.08c.52 0 .92-.427.92-.983V142h-1v10z"/>
        <path fill="#6C63FF" d="M117.338 222.3c0-6.973 6.064-12.605 13.555-12.605 7.49 0 13.555 5.632 13.555 12.605-.045 3.8-1.784 7.33-4.771 9.655h36.251V192.8c.847-.805 2.051-1.028 3.166-.67.892.267 1.65.893 2.14 1.742 1.695 2.906 4.37 4.783 7.402 4.783 5.173 0 9.364-5.498 9.364-12.247 0-6.75-4.191-12.248-9.364-12.248-2.452 0-4.637 1.207-6.331 3.218-.625.76-1.16 1.61-1.606 2.504l-.089.044c-1.248 1.297-3.21 1.565-4.726.626v-39.693H138.65c-.624-.85-.802-1.922-.445-2.905.267-.894.891-1.654 1.739-2.146 2.898-1.699 4.77-4.425 4.77-7.42 0-5.185-5.484-9.387-12.217-9.387-6.733 0-12.217 4.202-12.217 9.387 0 2.458 1.204 4.649 3.21 6.347a13.247 13.247 0 0 0 2.497 1.61l.045.089c1.204 1.162 1.516 2.995.758 4.47H116V232h6.064c-2.943-2.37-4.726-5.945-4.726-9.7z"/>
        <path fill="#3A3768" d="M109 133.08c0-.61-.4-1.08-.92-1.08H108v7h1v-5.92zM107.966 87h-.173c-.448 0-.793.447-.793 1.028v8.944c0 .58.345 1.028.793 1.028H108l-.034-11zM107.742 107c-.42 0-.742.444-.742 1.021v16.958c0 .577.323 1.021.742 1.021H108v-19h-.258zM107.967 133h-.2c-.434 0-.767.47-.767 1.08V140h1l-.033-7z"/>
        <path fill="#3A3768" d="M108 68.496v18.883c.535 0 .981.492.981 1.029v8.949c0 .537-.446.984-.981 1.03v9.127h.178c.58 0 1.026.448 1.026 1.03v17.093a1.01 1.01 0 0 1-1.026 1.029H108v6.712h.09c.579 0 1.025.447 1.025 1.029V140h7.223V68.988c0-5.951 4.816-10.784 10.702-10.784h14.536v1.88c0 4.877 3.969 8.86 8.83 8.86H176V63.08h-11.772c-.936 0-1.694-.76-1.739-1.745v-.358c0-.94.758-1.745 1.74-1.745H176V51h-50.61c-9.631.045-17.39 7.875-17.39 17.496z"/>
        <path fill="#3A3768" d="M109 96.972v-8.944c0-.536-.455-.983-1-1.028v11c.545-.045 1-.492 1-1.028zM109 124.979v-16.958c0-.577-.37-1.021-.852-1.021H108v19h.148c.482 0 .852-.444.852-1.021z"/>
        <path fill="#6C63FF" d="M119.04 129.473c0-6.912 6.081-12.495 13.592-12.495 7.512 0 13.593 5.583 13.593 12.495-.045 3.722-1.789 7.267-4.83 9.527h34.473V99.696a3.09 3.09 0 0 1 3.175-.664c.894.266 1.654.886 2.146 1.728 1.699 2.88 4.426 4.741 7.422 4.741 5.186 0 9.389-5.45 9.389-12.141s-4.203-12.141-9.39-12.141c-2.458 0-4.65 1.196-6.348 3.19a13.154 13.154 0 0 0-1.61 2.482l-.09.531s-2.011 1.684-4.739.133v-18.92h-25.62c-4.873 0-8.852-3.944-8.852-8.774V58h-14.576C120.83 58 116 62.786 116 68.679V139h7.735a12.375 12.375 0 0 1-4.695-9.527z"/>
        <path fill="#E6E8EC" d="M164.673 59c-.9 0-1.673.782-1.673 1.793v.414c0 .965.73 1.793 1.673 1.793H176v-3.954L164.673 59z"/>
        <path fill="#3A3768" d="M244 112.087V139h3v-28h-1.632c-.75 0-1.368.498-1.368 1.087zM179 51h4v8h-4zM179 63h4v6h-4z"/>
        <path fill="#E6E8EC" d="M179 59h4v4h-4z"/>
        <path fill="#3A3768" d="M246.905 113H246v26h2v-24.99c0-.527-.476-1.01-1.095-1.01z"/>
        <path fill="#3A3768" fill-rule="nonzero" d="M183.448 58.046c.94.224 1.79 1.967 1.79 1.967v.358s-.85 1.743-1.79 1.698v5.811h20.229c4.878 0 8.861-3.978 8.861-8.85v-1.878h15.217c5.953 0 10.742 4.828 10.742 10.773v52.077c5.146 4.113 5.997 11.622 1.88 16.808a9.346 9.346 0 0 1-1.88 1.877V139h6.265v-26.24c0-.089.045-.134.135-.134H247V66.763C247 57.51 239.481 50 230.217 50H183v8.046h.448zm6.758-.044c1.208 0 2.193.983 2.193 2.19 0 1.207-.985 2.19-2.193 2.19a2.195 2.195 0 0 1-2.193-2.19c.044-1.207 1.029-2.19 2.193-2.19z"/>
        <path fill="#6C63FF" d="M189.74 78.944c6.952 0 12.619 6.091 12.619 13.615 0 7.523-5.623 13.614-12.619 13.614-3.851 0-7.438-1.836-9.74-4.926V139h40.29a12.404 12.404 0 0 1-4.737-9.629c0-6.986 6.021-12.674 13.415-12.674 3.32-.044 6.508 1.165 9.032 3.314V67.793c0-5.956-4.737-10.748-10.626-10.793h-15.053v1.88c0 4.882-3.94 8.868-8.767 8.868H180v16.123a12.394 12.394 0 0 1 9.74-4.927z"/>
        <path fill="#E6E8EC" d="M183.4 63c.84 0 1.56-.756 1.6-1.689v-.355c-.08-.978-.76-1.734-1.6-1.956h-.4v4h.4z"/>
        <circle cx="190" cy="61" r="2" fill="#E6E8EC"/>
        <path fill="#3A3768" d="M235 230v-4.392c1.333-2.591 1.333-6.06 0-8.608v13zM235 232h8v2h-8z"/>
        <path fill="#6C63FF" d="M231.808 229.033a3.404 3.404 0 0 0-1.638 2.11c-.336.967-.168 2.066.462 2.857H235v-1.89h-1.68c.588-.528 1.176-1.099 1.68-1.714V226c-.882 1.275-1.932 2.286-3.192 3.033z"/>
        <path fill="#6C63FF" d="M233 232h2v-2c-.6.77-1.3 1.385-2 2z"/>
        <path fill="#3A3768" d="M236 221.5c0-1.607-.344-3.214-1-4.5v9c.656-1.332 1-2.893 1-4.5zM243 234v72.7c0 9.538-7.778 17.3-17.333 17.3H179v-7.097h44.978c5.91 0 10.71-4.79 10.71-10.69V234H243z"/>
        <path fill="#6C63FF" d="M229.816 230.864c.268-.89.893-1.646 1.743-2.135a10.531 10.531 0 0 0 3.396-3.026v-8.72C232.9 214.047 228.832 212 224.14 212c-6.794 0-12.246 4.182-12.246 9.343 0 2.447 1.207 4.627 3.218 6.318.76.623 1.609 1.157 2.503 1.602l.044.089c1.207 1.156 1.52 2.98.76 4.449H179v36.483c2.28-3.07 5.9-4.85 9.743-4.894 6.972 0 12.603 6.05 12.603 13.525 0 7.475-5.63 13.526-12.603 13.526-3.844-.045-7.419-1.824-9.743-4.894V317h45.23c5.943 0 10.725-4.76 10.77-10.678v-72.566h-4.648c-.715-.845-.894-1.913-.536-2.892z"/>
        <path fill="url(#a)" d="M314 120c2.663-1.094 4.613-2.931 5.279-5.338a5.76 5.76 0 0 0 .19-.875c.095-.262.237-.568.285-.83.666-2.363-.048-4.857-1.807-6.957l-3.471 12.25L314 120z"/>
        <path fill="url(#b)" fill-rule="nonzero" d="M389.536 115.782c-.49-2.984-9.93-9.442-9.93-9.442s-4.14-2.227-6.367-4.81c-1.425-1.648-1.87-1.604-2.004-1.38a.643.643 0 0 0-.312-.09c-.089-.045-.178-.134-.267-.178.045-.267-.133-.49-.356-.624a1.353 1.353 0 0 1-.312-.222c-.712-1.203-.98-2.895-1.068-4.365-.09-1.87-2.227-1.38-2.94-1.203-.489-.935-.979-1.915-1.424-2.895.223-.311.356-.668.49-.98 1.291-2.85 1.024-6.101 1.603-9.13.4-2.182 1.247-4.453 1.113-6.591v-.178.044a6.107 6.107 0 0 0-.356-1.559c-.357-.935-1.024-1.781-1.336-2.76-.49-1.426-.178-3.03-.579-4.5-.49-1.825-2.048-3.25-3.83-4.097-1.78-.801-3.74-1.113-5.654-1.336-4.81-.623-9.975-.98-14.383 1.07a2.72 2.72 0 0 1-1.336.355c-.445-.133-.846-.311-1.202-.579-1.202-.579-2.672-.222-3.74.58-1.07.801-1.782 1.914-2.494 3.028-.712 1.113-1.47 2.227-2.583 2.94-1.29.846-2.983 1.157-4.007 2.315a3.747 3.747 0 0 0-.846 1.915v-.044V72.313c.133 1.069.445 2.138.846 3.162a5.041 5.041 0 0 0 1.158 2.004c1.558 1.247 4.007.09 5.877.758.178.044.312.133.49.222 0 .09-.044.134-.089.223-.4 1.38-.623 2.761-.579 4.186 0 8.374 6.947 15.143 15.496 15.143.312 0 .623 0 .935-.044.045.178.09.356.134.49.49 1.826.623 3.785.445 5.656l-.09-.846c-.222-.09-.444-.178-.623-.223a5.747 5.747 0 0 0-1.914-.312c-2.093-.044-5.255.802-8.639 4.944 0 0-4.319 2.405-5.61 2.984-.09.045-.178.178-.223.267 0 0-5.788 8.73-6.367 12.025-.58 3.34-1.336 7.126-1.336 7.126s-1.425 4.32-2.36 6.191c-.935 1.915-1.781 3.741-1.87 4.543-.09.846.356 2.628-1.425 3.786-1.781 1.158-2.227 4.32-2.227 4.32s-.89.846-2.137 1.915h-.045l4.676-17.86.846.223c.4.09.846-.044 1.113-.356.09-.09.134-.223.178-.357l.935-3.607.357-1.425.089-.312.534-2.093-1.87-.446-2.182-.534-6.145-1.559.534-2.049.446-1.737 2.805-10.733.445-1.737c-1.78-2.316-4.63-4.187-8.104-5.033-6.724-1.692-13.225 1.069-14.56 6.057-.09.312-.134.58-.179.89a3.105 3.105 0 0 0-.267.847 7.746 7.746 0 0 0-.178 2.672c0 .134.045.312.09.446a9.55 9.55 0 0 0 1.691 3.83 13.828 13.828 0 0 0 2.093 2.182l.045.09c.311.534.534 1.157.578 1.78v.268a2.926 2.926 0 0 1-.534.757l-41.1-10.199-.444 1.737-9.262 35.541c1.202-.935 2.582-1.648 4.007-2.138.58-.178 1.158-.356 1.737-.445l.222-.044c1.648-.268 3.34-.179 4.988.222 5.21 1.292 8.772 5.701 9.44 10.912.089.668.133 1.336.089 2.004 0 .846-.09 1.693-.268 2.494-2.226 6.77-9.083 10.867-15.718 9.175a12.384 12.384 0 0 1-8.416-7.17l-.445 1.736L234 201.383l36.38 9.042.4-1.737h.045a12.081 12.081 0 0 1-2.494-9.62c0-.045.045-.09.045-.179l.133-.4c.267-.624.534-1.203.89-1.782.179-.267.357-.58.58-.846.133-.178.267-.357.4-.49a13.91 13.91 0 0 1 2.182-2.094l.267-.178c.312-.222.58-.4.89-.579.179-.089.357-.222.535-.311 2.138-1.158 4.542-1.693 6.991-1.693 1.158 0 2.316.178 3.473.446a14.422 14.422 0 0 1 8.594 5.968c.267.4.49.801.713 1.247a12.216 12.216 0 0 1 1.246 4.053c.134 1.113.09 2.271-.089 3.384-.846 2.495-2.538 4.632-4.72 6.102l-.445 1.693h.045l-.09.044-.445 1.693 8.327 2.048 11.755-44.983c3.162-.356 4.81-1.781 4.81-2.004 0-.223 3.829-2.316 5.922-2.895 1.068-.267 2.27-.49 3.25-.713-1.158 5.657-2.226 11.135-2.137 11.447.044.133.223-.09.534-.49-.044.178-.044.311-.044.49 0 .089.133 0 .267-.134v.089s-6.59 12.782-7.125 14.252c-.534 1.47.134 5.211 2.138 6.458.4.267.757.58 1.024.935l-.223.49c-.757 1.56-1.425 3.252-1.291 4.32a5.543 5.543 0 0 1-.89 3.83s-5.7 17.682-5.611 22.76c.133 5.077-2.048 16.256-2.048 16.256s-2.36 7.215-.936 9.264c1.425 2.048 2.984 11 2.984 11s1.068 2.05 1.024 3.786c-.09 1.737 1.024 4.9 1.024 4.9l3.562 12.826s-.4 3.43.935 5.835c1.336 2.405 1.203 1.692.58 5.879-.624 4.23.756 8.105 3.027 9.352.89.49.935 1.203.668 1.916-.579-.223-1.069.98-1.336 1.96l-.311.266.178.045c-.134.445-.178.802-.178.802s-5.967 4.988-6.368 6.77c-.4 1.78-4.586 2.716-4.586 2.716s-6.368 1.737-8.015 2.583c-.98.446-1.648 1.337-1.737 2.405-.089.802 0 1.648.223 2.45.623 2.539 9.529 2.806 13.803 2.093 4.275-.712 13.092-3.162 13.092-3.162s9.261-.89 12.022-2.004c2.76-1.114.579-3.964.579-3.964v-.267c.09-1.025.267-4.81-.4-5.79-.49-.757-.49-2.672-.401-3.875 1.87-3.34-2.138-13.361-2.138-13.361s.757-9.798.267-11.224c-.49-1.425-2.671-13.584-2.671-13.584s-1.336-5.522-.802-6.458c.534-.935-.312-3.607-.312-3.607s-2.181-2.984-2.003-3.92c.178-.935-.624-2.583-.624-2.583s6.501-9.664 5.923-11.49c-.58-1.782.267-4.721.267-4.721s.801-1.381 1.78-3.029c1.203-2.004 2.672-4.41 3.162-5.166.624-.98 2.138-5.033 2.984-7.394.356-.98.579-1.692.579-1.692s1.024 18.26 1.914 20.131c.89 1.87 2.227 16.568 2.227 16.568a9.886 9.886 0 0 1 .623 4.097c-.134 2.316 2.048 12.293 2.048 12.293s.935 7.081.312 8.952c-.623 1.87-.134 15.588-.134 15.588s-3.473 2.672-4.363 4.721c-.89 2.049.133 7.616.133 7.616l.401.178c-.312.757-.579 1.604-.712 2.405-.134 1.203-2.049 6.503-1.826 7.26.178.757-.802 3.029-.935 4.231-.134 1.203-1.692 2.895-1.826 3.563a18.36 18.36 0 0 1-.712 1.648 12.048 12.048 0 0 0-.802 2.539c-.623 2.627 6.947 3.028 6.947 3.028 11.176 2.049 13.224-6.324 13.224-6.324s1.38-7.438 1.915-8.017c.134-.223.178-.49.09-.713a10.491 10.491 0 0 0-1.604-3.518c-.356-.4-.356-1.47-.312-2.45a9.21 9.21 0 0 0 .98-.178c4.497-1.291 2.672-8.818 2.672-8.818s3.028-4.944 3.028-6.904 1.068-7.838 1.068-7.838c3.874-6.948 2.36-23.828 2.984-25.209.623-1.38-1.336-6.458-2.94-8.774-1.602-2.315-.934-8.506 0-10.288.936-1.781-.934-8.017-.934-8.017s1.825-12.025 1.78-13.895c-.044-1.87 1.604-7.394 1.604-7.394s1.647-2.85 1.247-3.74c-.401-.891 1.246-3.118.846-4.098-.401-.98.356-4.053 1.202-5.835.445-.935.935-3.474 1.336-5.7.044-.268.089-.49.133-.758 1.87 1.158 3.563 2.05 4.186 1.826 1.113-.445-.668-6.235-1.915-9.842.223-.179.312-.268.223-.357-.757-.49.089-2.716.089-2.716 4.497-2.628 2.983-4.632 1.514-5.79-1.47-1.158-.49-4.454-.935-5.79-.445-1.336.534-7.349 1.291-11.758.178-.936.134-1.915 0-2.895.802-1.247 1.648-2.539 2.405-3.741 2.538-4.142 7.97-23.828 7.97-23.828l-.044-.09c.534-1.068.935-1.914 1.157-2.449 1.514-4.097-1.558-17.013-2.048-19.997zm-39.496-11.313l.133-.044v.089l-.133-.045zM325.37 315.712c-.267 0-.534-.045-.801-.178l.801.178z"/>
        <path fill="#FEC2BE" d="M278.828 171.438c3.636 1.383 12.148 1.562 15.916 1.562h1.862l2.394-4.955-2.394-4.107s-2.217-.625-5.143-1.16c-4.344-.804-10.285-1.384-13.122.357-4.788 2.946-4.256 6.517.487 8.303z"/>
        <path fill="#000" d="M294.482 173h1.977l2.541-4.847-2.541-4.018s-2.353-.611-5.459-1.135c2.541 1.703 8.612 5.459 3.482 10z" opacity=".1"/>
        <path fill="#4C4981" d="M334.162 113.25l-1.07-1.25s-5.534 8.746-6.114 12.048a361.91 361.91 0 0 1-1.339 7.095s-1.383 4.284-2.32 6.203c-.893 1.874-1.74 3.704-1.83 4.552-.089.848.313 2.632-1.428 3.793-1.74 1.16-2.142 4.283-2.142 4.283s-6.292 6.114-9.594 6.248c-3.302.134-12.807 1.83-12.45 3.48.357 1.651-3.971 2.633-5.712 3.035-1.74.401 11.156 5.355 3.615 11.736 0 0 4.775.981 5.266 2.142.49 1.16 5.533-.67 5.533-.67s1.07-2.543 4.775-2.722c3.703-.178 5.622-1.83 5.622-2.052 0-.224 3.704-2.32 5.801-2.9 2.098-.581 4.775-.849 4.864-1.384.09-.58 12.361-53.638 12.361-53.638h-3.838z"/>
        <path fill="#000" d="M334.162 113.25l-1.07-1.25s-5.534 8.746-6.114 12.048a361.91 361.91 0 0 1-1.339 7.095s-1.383 4.284-2.32 6.203c-.893 1.874-1.74 3.704-1.83 4.552-.089.848.313 2.632-1.428 3.793-1.74 1.16-2.142 4.283-2.142 4.283s-6.292 6.114-9.594 6.248c-3.302.134-12.807 1.83-12.45 3.48.357 1.651-3.971 2.633-5.712 3.035-1.74.401 11.156 5.355 3.615 11.736 0 0 4.775.981 5.266 2.142.49 1.16 5.533-.67 5.533-.67s1.07-2.543 4.775-2.722c3.703-.178 5.622-1.83 5.622-2.052 0-.224 3.704-2.32 5.801-2.9 2.098-.581 4.775-.849 4.864-1.384.09-.58 12.361-53.638 12.361-53.638h-3.838z" opacity=".05"/>
        <path fill="#CA8496" d="M346.896 340.68c11.08 2.036 13.079-6.288 13.079-6.288s1.362-7.35 1.907-7.925c.136-.221.136-.443.09-.708a8.92 8.92 0 0 0-1.589-3.454c-.68-.797-.136-4.117-.136-4.117L347.395 315s-1.135 2.524-1.271 3.675c-.137 1.15-1.999 6.464-1.817 7.172.182.753-.817 3.01-.954 4.162-.136 1.151-1.68 2.878-1.816 3.498a12.524 12.524 0 0 1-.681 1.638 12.224 12.224 0 0 0-.818 2.48c-.635 2.611 6.858 3.054 6.858 3.054z"/>
        <path fill="#000" d="M346.923 340.684c11.06 2.005 13.055-6.187 13.055-6.187s1.36-7.233 1.904-7.8c.136-.218.136-.436.09-.697l-2.674 7.32s-2.175 4.401-10.38 3.748c-4.67-.393-6.936-1.22-8.069-1.83a11.912 11.912 0 0 0-.816 2.44c-.59 2.57 6.89 3.006 6.89 3.006z" opacity=".1"/>
        <path fill="#000" d="M356 329s-2.815.042-3-2l3 2z" opacity=".1"/>
        <path fill="#6C63FF" d="M271.273 208l1.727.408-.364 1.592-1.636-.367z"/>
        <path fill="#000" d="M271.273 208l1.727.408-.364 1.592-1.636-.367z" opacity=".1"/>
        <path fill="#3A3768" d="M321.974 129.001l.527-2.07 1.81.46-.527 2.071zM313.883 126.955l.527-2.07 5.948 1.515-.526 2.07zM319.85 128.464l.527-2.07 2.112.538-.527 2.07z"/>
        <path fill="#6C63FF" d="M314.147 124.59c-.121.046-.243.137-.365.183l.325.09-.487 2.137-2.396-.682c-.365-1-.284-2.09.244-3a3.538 3.538 0 0 1 2.03-1.682c.528-.181 1.015-.363 1.502-.636l-.853 3.59z"/>
        <path fill="#3A3768" d="M321 133.736l.818.232c.546.14 1.137-.186 1.273-.743l.909-3.76-1.818-.465-1.182 4.736zM319.77 115.796c-.618 2.322-2.385 4.129-4.77 5.204l3.136-12c1.59 2.065 2.253 4.473 1.635 6.796zM319.945 133.337c-.527-.133-.878-.71-.747-1.241l.923-3.59-5.888-1.506-17.97 71.123c2.68 5.317 1.054 11.787-3.824 15.155l-.439 1.64 7.953 2.082L321 133.603l-1.055-.266z"/>
        <path fill="#3A3768" d="M319.03 132.522a.997.997 0 0 0 .743 1.217l1.091.261 1.136-4.478-2.053-.522-.917 3.522z"/>
        <path fill="#6C63FF" d="M310.984 123.137c.488-.798 1.287-1.375 2.22-1.641.577-.178 1.11-.355 1.643-.621L318 108.497c-1.998-2.528-4.752-4.258-7.86-5.013-6.528-1.641-12.834 1.02-14.077 5.99-.578 2.35.044 4.79 1.554 6.876a11.374 11.374 0 0 0 1.998 2.13l.045.088a3.738 3.738 0 0 1-.4 4.48l-39.834-10.114-8.97 35.268c2.975-2.395 6.838-3.283 10.569-2.35 6.705 1.73 10.658 8.916 8.837 16.147-1.82 7.231-8.749 11.668-15.454 9.982a12.19 12.19 0 0 1-8.171-7.143l-9.237 36.2L272.26 210a12.198 12.198 0 0 1-2.265-10.425c1.688-6.7 8.926-10.647 16.165-8.829 3.907.976 7.194 3.55 9.014 7.099l18.163-71.203-2.62-.666c-.4-.887-.31-1.951.267-2.839zM314.111 125.134l.09-.268c-.134.045-.268.134-.401.223l.311.045z"/>
        <g fill="#000" opacity=".1">
            <path fill-rule="nonzero" d="M322.224 127.114l-2.086-.535-5.948-1.515.09-.267.887-3.477c-.533.267-1.065.446-1.643.624a3.472 3.472 0 0 0-2.53 2.362c.09-.223.178-.49.311-.713.488-.802 1.287-1.382 2.22-1.65.577-.177 1.11-.356 1.642-.623l3.151-12.436a14.22 14.22 0 0 0-7.856-5.037c-6.525-1.65-12.828 1.025-14.071 6.017-.577 2.363.044 4.814 1.553 6.91a11.404 11.404 0 0 0 1.998 2.139l.044.089a3.771 3.771 0 0 1-.4 4.502l-39.815-10.163-8.966 35.436c2.974-2.407 6.835-3.298 10.564-2.362 6.702 1.738 10.653 8.959 8.833 16.225-1.82 7.265-8.744 11.722-15.447 10.029a12.204 12.204 0 0 1-8.167-7.177l-9.233 36.372 35.244 9.004a12.305 12.305 0 0 1-2.264-10.475c1.687-6.73 8.922-10.697 16.157-8.87 3.906.98 7.191 3.566 9.011 7.132 2.708 5.349 1.065 11.857-3.862 15.244l-.444 1.65 8.035 2.094 21.261-83.887.8.223c.532.133 1.109-.179 1.242-.713l.888-3.611.533-2.095-1.732-.446zm-8.167-2.228c-.089.044-.133.044-.177.089l.177-.09zm-3.018 1.604l2.619.669-2.62-.669z"/>
            <path d="M319.916 115.882c.622-2.407-.044-4.903-1.642-7.043l-3.152 12.436c2.442-1.07 4.217-2.986 4.794-5.393z"/>
        </g>
        <path fill="#3A3768" d="M322.398 127.268l.527-2.07 1.81.46-.526 2.071zM314.308 125.223l.526-2.07 5.949 1.515-.527 2.07zM320.284 126.726l.526-2.07 2.113.537-.527 2.071z"/>
        <path fill="#6C63FF" d="M315.147 122.545l-.365.228.325.09-.487 2.137-2.396-.682c-.365-1-.284-2.09.244-3a3.538 3.538 0 0 1 2.03-1.682c.528-.181 1.015-.363 1.502-.636l-.853 3.545z"/>
        <path fill="#3A3768" d="M321 131.736l.806.232a1.03 1.03 0 0 0 1.254-.743l.94-3.76-1.791-.465-1.209 4.736zM320.77 113.796c-.618 2.322-2.385 4.129-4.77 5.204l3.136-12c1.59 2.065 2.253 4.473 1.635 6.796zM319.945 131.34c-.527-.133-.878-.71-.747-1.241l.88-3.592-5.845-1.507-17.97 71.158c2.723 5.32 1.054 11.793-3.824 15.162l-.439 1.64 7.953 2.04L321 131.562l-1.055-.222z"/>
        <path fill="#3A3768" d="M319.03 130.522c-.132.521.178 1.087.71 1.217l1.108.261 1.152-4.478-2.083-.522-.886 3.522z"/>
        <path fill="#6C63FF" d="M311.987 122.12c.489-.798 1.288-1.374 2.22-1.64.577-.177 1.11-.354 1.642-.62L319 107.493c-1.953-2.527-4.749-4.256-7.856-5.01-6.524-1.64-12.827 1.02-14.114 6.03-.577 2.348.045 4.786 1.554 6.87a11.366 11.366 0 0 0 1.997 2.127l.044.089a3.734 3.734 0 0 1-.4 4.477l-39.811-10.106-8.966 35.283c2.974-2.393 6.88-3.28 10.564-2.349 6.701 1.684 10.652 8.91 8.832 16.135-1.82 7.225-8.744 11.658-15.49 9.973a12.123 12.123 0 0 1-8.122-7.136L238 200.046 273.24 209a12.185 12.185 0 0 1-2.263-10.417c1.687-6.693 8.921-10.638 16.156-8.82a13.975 13.975 0 0 1 9.054 7.136l18.153-71.144-2.619-.665c-.444-.975-.31-2.083.266-2.97z"/>
        <path fill="#6C63FF" d="M315.111 123.134l.09-.268c-.134.045-.268.134-.401.223l.311.045z"/>
        <path fill="#CEDDF9" d="M308.419 256.123c1.33 2.048 2.881 10.907 2.881 10.907s1.064 2.048.976 3.784c-.09 1.737.975 4.898.975 4.898l3.457 12.776s-.354 3.384.931 5.788c1.286 2.404 1.153 1.647.532 5.876-.62 4.23.754 8.103 2.97 9.35 2.217 1.246-.975 4.14-.975 4.14s14.14 3.828 17.11 1.468c2.97-2.36-1.55-13.934-1.55-13.934s.753-9.75.265-11.174c-.487-1.425-2.57-13.534-2.57-13.534s-1.286-5.475-.799-6.41c.488-.935-.31-3.562-.31-3.562s-2.084-2.983-1.906-3.873c.177-.935-.62-2.582-.62-2.582s6.25-9.66 5.718-11.486c-.532-1.825.266-4.674.266-4.674l1.728-2.983c1.153-2.003 2.571-4.407 3.059-5.164.62-.935 2.04-4.986 2.881-7.346l.577-1.691s.975 18.163 1.861 19.988c.843 1.87 2.128 16.472 2.128 16.472a9.809 9.809 0 0 1 .62 4.096c-.132 2.27 1.951 12.243 1.951 12.243s.931 7.034.31 8.903c-.62 1.87-.133 15.493-.133 15.493s-3.368 2.67-4.255 4.674c-.842 2.004.133 7.568.133 7.568s9.84 4.942 14.185 3.65c4.344-1.29 2.571-8.77 2.571-8.77s2.97-4.94 2.97-6.855c0-1.914 1.064-7.746 1.064-7.746 3.768-6.9 2.26-23.684 2.881-25.064.62-1.38-1.285-6.411-2.837-8.726-1.551-2.27-.93-8.458 0-10.24.931-1.78-.93-7.968-.93-7.968s1.772-11.975 1.728-13.845c-.044-1.87 1.552-7.346 1.552-7.346s1.595-2.849 1.24-3.695c-.354-.846 1.242-3.072.799-4.096-.444-.979.354-4.006 1.152-5.787.4-.935.931-3.428 1.33-5.698l.665-4.007-10.195-8.191-25.312-6.678-9.53-3.072-9.31 14.691c-.664 1.069-1.24 2.182-1.817 3.294-.753 1.514-1.374 3.206-1.285 4.274.133 1.336-.133 2.671-.843 3.829 0 0-5.54 17.585-5.408 22.66.133 5.075-1.95 16.16-1.95 16.16s-2.26 7.212-.931 9.215z"/>
        <path fill="#FEC2BE" d="M345.913 114c.404-.18 27.46-11.407 23.735-13.616-2.198-1.308-4.935-6.943-6.82-11.317a122.798 122.798 0 0 1-2.198-5.545s-21.716-3.878-13.954 9.513c1.212 2.074 2.154 4.283 2.737 6.582 2.243 9.108-3.32 14.248-3.5 14.383z"/>
        <path fill="#000" d="M346.692 92.658c1.223 1.998 2.175 4.126 2.764 6.342 5.662-.391 10.645-3.736 12.955-8.732.227-.478.408-.955.589-1.433a115.138 115.138 0 0 1-2.22-5.344s-21.925-3.692-14.088 9.167z" opacity=".1"/>
        <path fill="#FEC2BE" d="M334 84c0 8.299 6.746 15 15 15 8.299 0 15-6.746 15-15s-6.746-15-15-15c-6.701 0-12.56 4.438-14.423 10.873-.4 1.331-.577 2.707-.577 4.127z"/>
        <path fill="#000" d="M319 200.3c1.55 1.45 2.17 4.257 2.17 4.257s7.392 5.164 6.86 1.903c-.486-3.261 3.808-16.443 3.808-16.443L331.35 208s23.551-1.132 25.277-2.899c1.727-1.767 11.776-5.118 11.776-5.118s3.099 2.536 5.932 4.439l.664-4.077-10.093-8.425-25.278-6.795-9.518-3.125-9.296 14.948c-.664 1.087-1.24 2.22-1.815 3.352z" opacity=".1"/>
        <path fill="#FFF" d="M318.32 199.028c1.951 1.247 2.705 4.587 2.705 4.587s7.359 5.077 6.871 1.87c-.488-3.206 3.812-16.166 3.812-16.166L331.221 207s23.627-1.113 25.312-2.85c1.684-1.737 11.792-5.077 11.792-5.077s8.733 7.036 10.328 6.413c1.596-.624-2.837-12.604-2.837-12.604l-4.521-70.19s1.24-20.887-.62-21.6c-.267-.133-.533-.267-.799-.49-1.197-1.113-1.596-3.34-1.684-5.21-.133-2.227-3.06-1.114-3.06-1.114l1.73 2.227-15.25 9.308-.133.09c-.576-.312-1.197-.58-1.817-.847-1.33-.534-3.148-1.024-4.3-.534a4.235 4.235 0 0 0-1.596 1.47c-.887 1.291-1.552 2.716-2.084 4.23l-5.54 9.398s-2.838 12.47-2.838 12.96c0 .49-.842 11.846-1.862 13.093-1.02 1.247-1.95 7.393-1.596 9.264.355 1.87-.62 8.774-.62 8.774-4.078 3.34-6.162 14.697-6.162 14.697s-6.428 12.737-6.915 14.207c-.488 1.47.221 5.166 2.172 6.413z"/>
        <path fill="#000" d="M352 106.718c1.485 2.201 5.723 5.282 5.723 5.282L370 101.525c-1.18-1.1-1.573-3.301-1.66-5.15-.131-2.2-3.015-1.1-3.015-1.1l.35.44c.655.88.524 2.113-.35 2.773-.043.044-.13.088-.175.132L352 106.718z" opacity=".1"/>
        <path fill="#FFF" d="M352 105.705c1.485 2.206 5.723 5.295 5.723 5.295L370 100.542c-1.18-1.103-1.573-3.31-1.66-5.163-.131-2.206-3.015-1.103-3.015-1.103l.35.441c.655.883.524 2.118-.35 2.78-.043.044-.13.088-.175.132L352 105.705z"/>
        <path fill="#000" d="M346 107.822c1.577 1.83 3.854 3.957 3.723 2.893-.088-1.064 1.357-3.361 2.277-4.425a7.151 7.151 0 0 0-4.423.128c-.657.298-1.183.808-1.577 1.404z" opacity=".1"/>
        <path fill="#FFF" d="M346 106.67c1.624 1.96 3.97 4.141 3.835 3.028-.136-1.113 1.218-2.894 2.165-3.962-1.353-.534-3.203-1.024-4.376-.534-.632.356-1.218.846-1.624 1.469z"/>
        <circle cx="350" cy="116" r="1" fill="#FF718D"/>
        <circle cx="342" cy="143" r="1" fill="#FF718D"/>
        <circle cx="334" cy="170" r="1" fill="#FF718D"/>
        <circle cx="334" cy="199" r="1" fill="#FF718D"/>
        <circle cx="345" cy="129" r="1" fill="#FF718D"/>
        <circle cx="339" cy="156" r="1" fill="#FF718D"/>
        <circle cx="332" cy="183" r="1" fill="#FF718D"/>
        <circle cx="334" cy="202" r="1" fill="#FF718D"/>
        <path fill="#000" d="M369.968 101.422s-.177-1.466 1.953 1.067c2.129 2.533 6.166 4.755 6.166 4.755s9.095 6.4 9.583 9.377c.488 2.977 3.46 15.776 1.863 20.042-1.597 4.266-13.442 24.753-13.442 24.753s3.105 3.688 2.395 8.043c-.71 4.355-1.641 10.355-1.242 11.688.4 1.333-.488 4.622.887 5.733 1.376 1.11 2.884 3.11-1.464 5.732 0 0-.798 2.222-.088 2.711.754.489-10.914 5.6-15.528 2.889-4.614-2.711-12.865-24.398-13.043-29.242-.177-4.844 2.53-20.886 4.037-24.664 1.464-3.777 5.9-18.486 7.808-21.775 1.908-3.288 10.115-21.109 10.115-21.109z" opacity=".1"/>
        <path fill="#4C4981" d="M370.947 101.422s-.177-1.466 1.954 1.067c2.132 2.533 6.174 4.755 6.174 4.755s9.104 6.4 9.592 9.377c.489 2.977 3.464 15.776 1.866 20.042-1.6 4.266-13.413 24.753-13.413 24.753s3.11 3.688 2.399 8.043c-.711 4.355-1.644 10.355-1.244 11.688.4 1.333-.488 4.622.888 5.733 1.377 1.11 2.887 3.11-1.465 5.732 0 0-.8 2.222-.09 2.711.756.489-10.924 5.6-15.543 2.889s-12.879-24.398-13.057-29.242c-.177-4.844 2.532-20.886 4.042-24.664 1.465-3.777 5.906-18.486 7.816-21.775 1.91-3.288 10.081-21.109 10.081-21.109z"/>
        <path fill="#000" d="M374 115s-7.267 7.836-6.992 13c0 0-.092-8.37 6.992-13zM364 128c0 .222-4.652 17.986-4.435 20.207.261 2.22-1.391 8.793-1.391 8.793l-2.174-.577s1.696-9.104 2-12.48c.304-3.375 6-15.943 6-15.943zM362 179c.184.226 11.653 13.008 8.429 13.957C367.205 193.905 362 179 362 179zM371 176c.223.177 4.468 8.962 4.96 6.622.49-2.34-3.62 6.446-4.29-.088L371 176zM349.824 103.54s-4.529-2.804-10.245 4.362c0 0-4.133 2.404-5.364 2.983-1.231.578-2.594 15.89-2.594 15.89s-2.682 6.587-1.935 10.37c.748 3.784-2.11 16.78-2.11 16.78s-4.705 23.368-4.573 24.036c.132.667 4.792-7.344 4.704-11.261-.087-3.962 3.914-16.29 4.485-17.047.572-.757 4.485-21.9 4.485-21.9s3.166-8.99 5.189-11.928c2.022-2.937 4.572-8.546 5.628-9.57.747-.667 1.627-1.201 2.506-1.646l-.176-1.069z" opacity=".1"/>
        <path fill="#4C4981" d="M349.866 103.54s-5.197-2.804-10.975 4.362c0 0-4.211 2.404-5.465 2.983-1.255.578-2.643 15.89-2.643 15.89s-2.733 6.587-1.971 10.37c.761 3.784-2.15 16.78-2.15 16.78s-4.794 23.368-4.66 24.036c.135.667 4.883-7.344 4.794-11.261-.09-3.962 3.987-16.29 4.569-17.047.582-.757 4.57-21.9 4.57-21.9s3.224-8.99 5.285-11.928c2.06-2.937 4.659-8.546 5.734-9.57 1.075-1.023 3.046-1.646 3.046-1.646l-.134-1.069z"/>
        <path fill="#FEC2BE" d="M328 155.995s-9.982-6.208-14.792-3.147c-4.81 3.061-12.704 7.415-4.945 10.562 7.758 3.147 18.512 2.544 18.512 2.544l1.225-9.959z"/>
        <path fill="#000" d="M334.544 217.283c1.472 3.098 2.676 18.761 3.48 23.717 1.159-1.991 2.586-4.38 3.077-5.133.624-.929 2.052-4.955 2.899-7.3-.937-2.257-3.524-8.673-3.524-11.063 0-2.876-4.683-6.504-4.683-6.504s-2.989 2.61-1.249 6.283zM365 265.44s-10.514-4.485-13.616-1.294C348.282 267.338 365 265.44 365 265.44zM360 268s10.99 5.934 7.208 6.915C363.426 275.897 360 268 360 268zM327 262s4.252.213 2.632.852C328.012 263.46 327 262 327 262zM321 264c.043.313 13.254 4.697 10.663 6.71C329.073 272.678 321 264 321 264zM364 301.423c-2.053-.339-13.435-6.056-8.971-1.938 4.463 4.119 8.971 1.938 8.971 1.938zM359 306s-1.028 3.396-5.002 2.962C350.071 308.488 359 306 359 306zM362 313.328c-.671-.16-8.818-3.468-8.997-1.914-.18 1.555 7.744 4.266 8.37 3.429.358-.439.582-.957.627-1.515zM335 309c-.97-.03-10.147-2.065-12-.243l12 .243zM327 311s-1.815-1.601-3.63-.751c-1.814.8 3.63.75 3.63.75zM348 326a2.569 2.569 0 0 1-2 2l2-2z" opacity=".1"/>
        <path fill="#CA8496" d="M300.308 331.627c.616 2.494 9.154 2.713 13.247 2.056 4.093-.656 12.586-3.106 12.586-3.106s8.89-.831 11.53-1.925c2.641-1.094.529-3.894.529-3.894v-.263c.044-1.006.264-4.681-.396-5.688-.748-1.137-.308-4.9-.308-4.9s-12.63 2.406-12.895 1.269c-.264-1.138-2.2-2.8-3.124-3.15-.925-.35-1.585 3.018-1.585 3.018s-5.721 4.857-6.117 6.607c-.396 1.75-4.401 2.67-4.401 2.67s-6.117 1.706-7.702 2.537c-.924.437-1.584 1.312-1.672 2.363 0 .83.088 1.662.308 2.406z"/>
        <path fill="#000" d="M300.236 331.503c.617 2.624 9.17 2.854 13.271 2.164 4.1-.69 12.61-3.268 12.61-3.268s8.907-.875 11.552-2.026c2.646-1.15.53-4.097.53-4.097V324l-12.787 2.946s-6.305 2.808-10.317 2.808c-3.528 0-11.42 1.52-15.08-.782-.044.874 0 1.749.22 2.531z" opacity=".1"/>
        <path fill="#000" d="M318 322s.609 3.77 3 5l-3-5zM334 79.781c.219.133.481.221.743.31 1.137.31 2.23-.487 3.237-1.106 1.005-.62 2.405-1.062 3.28-.266 1.136 1.062.306 3.274 1.486 4.291.744.62 1.924.399 2.755.93.831.53 1.094 1.68 1.269 2.698.175 1.017.612 2.123 1.574 2.433.962.31 1.837-.354 2.799-.31.218 0 .437.045.568-.088.088-.133.131-.31.088-.442-.132-1.195 0-2.39.306-3.54.393-1.15 1.312-2.167 2.449-2.344 1.705-.265 3.148 1.239 4.154 2.654a46.287 46.287 0 0 1 2.887 4.69c.043.088.087.22.13.309 3.324-7.565-.087-16.412-7.521-19.73-7.434-3.318-16.224.089-19.504 7.609-.263.62-.525 1.283-.7 1.902z" opacity=".1"/>
        <path fill="#9A5E7F" d="M359.168 84.79c-1.02-1.444-2.484-2.979-4.214-2.708-1.198.18-2.085 1.219-2.485 2.393-.31 1.173-.443 2.392-.31 3.61.044.136 0 .317-.089.452-.133.136-.355.136-.576.136-.976-.045-1.908.586-2.84.316-.931-.271-1.42-1.445-1.597-2.483-.221-.993-.443-2.167-1.286-2.754-.843-.541-2.04-.316-2.795-.948-1.198-1.038-.355-3.34-1.508-4.378-.887-.813-2.307-.361-3.327.27-1.02.632-2.13 1.4-3.327 1.084-.4-.09-.754-.316-1.11-.497-1.818-.722-4.17.497-5.678-.767-.532-.542-.931-1.264-1.153-1.986-.4-1.038-.71-2.077-.843-3.205-.133-1.129.178-2.212.843-3.115.976-1.174 2.617-1.444 3.86-2.302 1.064-.722 1.774-1.85 2.484-2.98.71-1.083 1.375-2.257 2.395-3.024 1.02-.767 2.484-1.174 3.593-.587.355.271.755.452 1.198.587.444 0 .932-.135 1.287-.361 4.258-2.031 9.227-1.67 13.93-1.083 1.862.225 3.77.541 5.456 1.354 1.685.812 3.194 2.257 3.681 4.108.4 1.49.09 3.07.533 4.514.31.993.931 1.805 1.33 2.798.977 2.664-.177 5.553-.71 8.306-.531 3.025-.265 6.32-1.552 9.21-.266.54-.532 1.534-1.153 1.173-.444-.271-.932-1.896-1.198-2.393-.798-1.625-1.774-3.205-2.839-4.74z"/>
        <path fill="#000" d="M386.777 132.265l2.223 6.37s-5.247 19.735-7.737 23.861c-2.446 4.127-6.092 9.465-6.092 9.465s-6.092 3.094-13.162 1.66c-7.07-1.436-27.702-5.114-27.702-5.114s-1.734.314-2.624-.987c-.89-1.346-5.602-2.018-5.602-2.018s-5.425-7.984 1.245-11.259c0 0 .8 1.84 4.357.583 3.513-1.255 4.58.987 4.58.987s5.78 1.166 8.982.763c3.202-.404 11.206-.583 12.006-1.256.445-.404 1.112-.359 1.468.09 0 0 1.956-.763 2.623-1.48.667-.718 1.556.852 1.556.852s1.157-.673.8-1.48c-.31-.808 1.068-3.993 1.068-3.993s.667-2.063.267-3.722c-.4-1.66 2.045-7.626 2.045-7.626.045-.986-.089-2.018-.311-3.005-.4-1.48 3.113-4.485 3.113-4.485s3.468-16.91 10.76-11.348c7.293 5.562 6.137 13.142 6.137 13.142z" opacity=".1"/>
        <path fill="#4C4981" d="M386.777 132.265l2.223 6.37s-5.247 19.735-7.737 23.861c-2.49 4.127-6.092 9.465-6.092 9.465s-6.092 3.094-13.162 1.66c-7.07-1.436-27.702-5.114-27.702-5.114s-1.734.314-2.624-.987c-.89-1.346-5.602-2.018-5.602-2.018s-5.425-7.984 1.245-11.259c0 0 .8 1.84 4.357.583 3.558-1.255 4.58.987 4.58.987s5.78 1.166 8.982.763c3.202-.404 11.206-.583 12.006-1.256.445-.404 1.112-.359 1.468.09 0 0 1.956-.763 2.623-1.48.667-.718 1.556.852 1.556.852s1.157-.673.8-1.48c-.31-.808 1.068-3.993 1.068-3.993s.667-2.063.222-3.722c-.4-1.66 2.046-7.626 2.046-7.626.044-.986-.09-2.018-.311-3.005-.4-1.48 3.112-4.485 3.112-4.485s3.468-16.91 10.76-11.348c7.293 5.562 6.182 13.142 6.182 13.142z"/>
        <path fill="#000" d="M333.852 159c.075.592 1.557 2.962 1.038 3.372-.519.41-1.445.182-.63 1.504.815 1.367.741 3.372.185 3.099-.518-.274-1.445-3.281-1.445-4.466s.852-3.509.852-3.509zM358 158s.522 6.053 4.842 7.789C367.162 167.525 358 158 358 158zM366 156c.272.088 5.856 3.029 3.359 4.697C366.862 162.453 366 156 366 156zM367 152s8.192 1.5 5.431 2.756C369.671 156.013 367 152 367 152z" opacity=".1"/>
        <g fill="#000" opacity=".1">
            <path d="M352.363 83.067c.397-1.156 1.323-2.178 2.47-2.356 1.719-.267 3.173 1.245 4.187 2.667a46.476 46.476 0 0 1 2.91 4.71c.265.49.705 2.045 1.19 2.356.618.356.882-.622 1.147-1.155 1.278-2.845.97-6.045 1.543-9.067.308-1.733.925-3.555 1.058-5.289.176 2.134-.662 4.4-1.058 6.623-.53 2.977-.265 6.222-1.543 9.066-.265.534-.53 1.511-1.147 1.156-.44-.267-.925-1.822-1.19-2.356a46.476 46.476 0 0 0-2.91-4.71c-1.014-1.423-2.468-2.934-4.188-2.668-1.19.178-2.072 1.2-2.469 2.356-.176.578-.308 1.2-.308 1.867-.088-1.111.044-2.178.308-3.2zM326.882 75.244a3.852 3.852 0 0 0 1.146 1.956c1.499 1.244 3.835.089 5.643.756.397.133.75.355 1.102.488 1.146.312 2.293-.488 3.307-1.11 1.014-.623 2.424-1.067 3.306-.267 1.146 1.066.309 3.289 1.499 4.31.75.623 1.94.445 2.777.934.838.489 1.103 1.689 1.279 2.667.176.978.617 2.133 1.587 2.444.97.311 1.852-.355 2.821-.31.22 0 .441.044.574-.134.044-.045.044-.09.088-.134 0 .356 0 .667.044.978.044.134 0 .311-.088.445-.133.133-.353.133-.573.089-.97-.045-1.896.577-2.822.31-.926-.266-1.41-1.422-1.587-2.444-.22-1.022-.44-2.133-1.279-2.666-.837-.534-2.028-.312-2.777-.934-1.19-1.022-.353-3.289-1.499-4.31-.882-.8-2.292-.356-3.306.266-1.014.622-2.116 1.378-3.307 1.11-.397-.088-.75-.355-1.102-.488-1.807-.711-4.144.489-5.643-.756-.529-.533-.926-1.244-1.146-1.955-.397-1.022-.706-2.045-.838-3.156-.044-.355 0-.755.044-1.11.133 1.11.397 2.088.75 3.021z"/>
        </g>
        <path fill="#6C63FF" d="M44.646 324.023s-18.672-1.08-16.465 11.697c0 0-.441 2.244 1.678 3.28 0 0 .044-.95 1.898-.647.662.129 1.368.129 2.03.086.927-.043 1.766-.432 2.472-.993 0 0 5.253-2.115 7.283-10.488 0 0 1.501-1.813 1.457-2.288l-3.134 1.295s1.06 2.244.22 4.057c0 0-.088-3.97-.706-3.884-.132 0-1.633.776-1.633.776s1.854 3.885.442 6.69c0 0 .53-4.747-1.016-6.387l-2.207 1.251s2.163 4.014.707 7.252c0 0 .397-5.007-1.148-6.95l-2.03 1.511s2.03 3.928.794 6.647c0 0-.177-5.827-1.236-6.258 0 0-1.766 1.51-2.03 2.158 0 0 1.368 2.848.53 4.36 0 0-.53-3.885-.972-3.885 0 0-1.765 2.59-1.942 4.316 0 0 .088-2.633 1.5-4.575a5.039 5.039 0 0 0-2.692 1.38s.265-1.812 3.134-1.985c0 0 1.457-1.942 1.81-2.072 0 0-2.825-.215-4.547.518 0 0 1.501-1.726 5.077-.95l1.986-1.596s-3.708-.518-5.297.043c0 0 1.81-1.51 5.827-.432l2.163-1.251s-3.179-.648-5.077-.432c0 0 1.987-1.036 5.695.086l1.545-.69s-2.34-.432-3.002-.518c-.662-.087-.706-.26-.706-.26a7.963 7.963 0 0 1 4.37.476c0 .043 3.266-1.166 3.222-1.338z"/>
        <ellipse cx="31.5" cy="340.5" fill="#6C63FF" opacity=".1" rx="13.5" ry="2.5"/>
        <path fill="#6C63FF" d="M80.725 289.013s-10.903-.642-9.62 7.015c-.138.78.275 1.605.962 1.972 0 0 0-.55 1.145-.367.412.046.779.092 1.191.046.55-.046 1.054-.23 1.466-.596 0 0 3.07-1.238 4.26-6.282 0 0 .871-1.1.871-1.375l-1.832.78s.64 1.329.137 2.43c0 0-.046-2.385-.412-2.339-.092 0-.962.459-.962.459s1.1 2.292.275 3.989c0 0 .32-2.843-.596-3.852l-1.328.78s1.282 2.384.412 4.355c0 0 .229-2.98-.687-4.172l-1.191.917s1.19 2.384.458 3.989c0 0-.092-3.485-.733-3.76-.458.367-.825.826-1.191 1.284 0 0 .824 1.697.32 2.614 0 0-.32-2.339-.55-2.339 0 0-1.007 1.513-1.145 2.614.046-.963.367-1.926.87-2.751-.595.091-1.145.412-1.557.825 0 0 .183-1.1 1.833-1.192 0 0 .824-1.146 1.053-1.238 0 0-1.649-.138-2.657.32 0 0 .87-1.008 2.978-.55l1.145-.962s-2.199-.321-3.115.046c0 0 1.054-.917 3.436-.23l1.283-.733c-.962-.23-1.97-.321-2.978-.275 0 0 1.145-.642 3.344.045l.916-.412s-1.374-.275-1.74-.321c-.367-.046-.413-.138-.413-.138a4.902 4.902 0 0 1 2.566.275c-.046-.045 1.832-.733 1.786-.87z"/>
        <ellipse cx="73.5" cy="298" fill="#6C63FF" opacity=".1" rx="7.5" ry="1"/>
        <path fill="#6C63FF" d="M17.815 295.017s-13.25-.792-11.687 8.563c-.184.977.322 1.955 1.197 2.42 0 0 0-.698 1.334-.465.46.093.966.093 1.426.093.644-.047 1.288-.28 1.748-.745 0 0 3.727-1.536 5.153-7.726 0 0 1.059-1.35 1.013-1.675l-2.255.977s.736 1.63.184 2.979c0 0-.092-2.932-.506-2.84-.092 0-1.15.56-1.15.56s1.334 2.838.322 4.886c0 0 .368-3.49-.736-4.7l-1.565.93s1.519 2.932.507 5.306c0 0 .276-3.677-.829-5.12l-1.426 1.117s1.426 2.886.552 4.887c0 0-.092-4.281-.874-4.607 0 0-1.242 1.117-1.426 1.582 0 0 .966 2.094.368 3.211 0 0-.368-2.839-.69-2.885 0 0-1.242 1.908-1.38 3.165a6.547 6.547 0 0 1 1.058-3.351c-.736.14-1.38.465-1.887.977 0 0 .184-1.35 2.209-1.443 0 0 1.012-1.442 1.288-1.536 0 0-2.024-.186-3.22.373 0 0 1.058-1.257 3.588-.698l1.426-1.164s-2.622-.372-3.772.047c0 0 1.288-1.117 4.14-.326l1.519-.93s-2.255-.513-3.589-.327c0 0 1.426-.79 4.049.047l1.104-.512s-1.656-.326-2.116-.372c-.46-.047-.506-.186-.506-.186 1.058-.187 2.116-.047 3.082.325.046.186 2.393-.698 2.347-.837z"/>
        <ellipse cx="9" cy="306.5" fill="#6C63FF" opacity=".1" rx="9" ry="1.5"/>
        <ellipse cx="270.5" cy="362.5" fill="#6C63FF" opacity=".1" rx="13.5" ry="2.5"/>
        <path fill="#A8A8A8" d="M261 352.01s7.54-.217 9.789-1.823c2.249-1.606 11.553-3.473 12.126-.955.573 2.518 11.332 12.677 2.822 12.764-8.51.087-19.754-1.302-22.003-2.648-2.249-1.346-2.734-7.338-2.734-7.338z"/>
        <path fill="#000" d="M285.912 361.127c-8.51.087-19.753-1.304-22.002-2.651-1.72-1.043-2.425-4.738-2.645-6.476H261s.485 5.998 2.734 7.345c2.248 1.347 13.492 2.738 22.002 2.651 2.469 0 3.306-.87 3.262-2.173-.308.826-1.278 1.304-3.086 1.304z" opacity=".2"/>
    </g>
</svg>
