<svg xmlns="http://www.w3.org/2000/svg" width="12" height="15.401" viewBox="0 0 12 15.401">
    <path id="prefix__mute" fill="#6f85c1" d="M6.433 11.907V.541A.539.539 0 0 0 5.583.1L.317 3.8-2.029.691a.386.386 0 0 0-.542-.077.387.387 0 0 0-.077.541L-.5 4h-.924a1.934 1.934 0 0 0-1.935 1.934v3.53A1.934 1.934 0 0 0-1.426 11.4H.031l5.552 3.9a.539.539 0 0 0 .851-.441v-1.665L7.945 15.2a.392.392 0 0 0 .309.155.4.4 0 0 0 .232-.077.388.388 0 0 0 .077-.541zM5.66.985v9.893L.781 4.414zm0 13.423L.5 10.778a.386.386 0 0 0-.313-.158h-1.613a1.163 1.163 0 0 1-1.16-1.16V5.93a1.163 1.163 0 0 1 1.16-1.16H.081l5.575 7.392v2.246zm0 0" transform="translate(3.359)"/>
</svg>
