<svg xmlns="http://www.w3.org/2000/svg" width="12" height="11" viewBox="0 0 12 11">
    <path fill="#C3CCE6" fill-rule="nonzero" d="M11.855 3.008a1.211 1.211 0 0 0-.722-.592 1.211 1.211 0 0 0-.929.093 1.212 1.212 0 0 0-.61 1.35l-1.318.705A2.528 2.528 0 0 0 6.535 3.52V2.397A1.22 1.22 0 0 0 6.218 0a1.22 1.22 0 0 0-1.22 1.22c0 .562.383 1.037.902 1.177V3.52a2.533 2.533 0 0 0-2.02 1.548L2.437 4.68a1.211 1.211 0 0 0-.901-1.177A1.22 1.22 0 0 0 .163 5.288a1.212 1.212 0 0 0 1.059.612 1.213 1.213 0 0 0 1.051-.607l1.441.388a2.514 2.514 0 0 0 .507 1.893L3.165 8.631a1.22 1.22 0 0 0-1.47.193 1.22 1.22 0 0 0 .863 2.081A1.216 1.216 0 0 0 3.613 9.08L4.67 8.023a2.514 2.514 0 0 0 3.095 0L8.82 9.079a1.22 1.22 0 0 0 1.056 1.826c.312 0 .625-.119.862-.356a1.22 1.22 0 0 0 0-1.725 1.22 1.22 0 0 0-1.47-.193L8.214 7.574a2.514 2.514 0 0 0 .364-2.45l1.316-.705a1.211 1.211 0 0 0 .889.385c.198 0 .394-.05.574-.146.287-.153.497-.41.591-.721a1.212 1.212 0 0 0-.092-.93zm-.799 1.091a.58.58 0 0 1-.836-.685.58.58 0 0 1 .73-.39.58.58 0 0 1 .39.729.58.58 0 0 1-.284.346zM8.11 6.027c0 1.043-.849 1.892-1.893 1.892a1.895 1.895 0 0 1-1.892-1.892c0-1.044.849-1.893 1.892-1.893 1.044 0 1.893.849 1.893 1.893zM5.632 1.219a.586.586 0 1 1 1.172.002.586.586 0 0 1-1.172-.002zM1.068 5.245a.581.581 0 0 1-.413-.717.586.586 0 1 1 .413.717zM2.97 10.1a.586.586 0 1 1-.827-.83.586.586 0 0 1 .827.83zm7.32-.827a.586.586 0 1 1-.83.827.586.586 0 0 1 .83-.827z"/>
</svg>
