<?xml version="1.0" encoding="UTF-8"?>
<svg width="197px" height="222px" viewBox="0 0 197 222" version="1.1" xmlns="http://www.w3.org/2000/svg" xmlns:xlink="http://www.w3.org/1999/xlink">
    <!-- Generator: sketchtool 60 (101010) - https://sketch.com -->
    <title>2C1A9D34-D4C6-4B3C-8B72-2C23DAC76859</title>
    <desc>Created with sketchtool.</desc>
    <defs>
        <linearGradient x1="80223%" y1="79975%" x2="80223%" y2="24772%" id="linearGradient-1">
            <stop stop-color="#808080" stop-opacity="0.25" offset="0%"></stop>
            <stop stop-color="#808080" stop-opacity="0.12" offset="54%"></stop>
            <stop stop-color="#808080" stop-opacity="0.1" offset="100%"></stop>
        </linearGradient>
    </defs>
    <g id="Page-1" stroke="none" stroke-width="1" fill="none" fill-rule="evenodd">
        <g id="First-Time-Access-Web-Popup" transform="translate(-576.000000, -398.000000)" fill-rule="nonzero">
            <g id="undraw_app_installation_mbdv" transform="translate(574.000000, 395.000000)">
                <path d="M22,3 L143,3 C154.045695,3 163,11.954305 163,23 L163,196 C163,207.045695 154.045695,216 143,216 L22,216 C10.954305,216 2,207.045695 2,196 L2,23 C2,11.954305 10.954305,3 22,3 Z" id="Rectangle-path" fill="#535461"></path>
                <polygon id="Rectangle-path" fill="#F1F1F4" points="14 26 151 26 151 195 14 195"></polygon>
                <circle id="Oval" fill="#FFFFFF" cx="81.5" cy="11.5" r="1.5"></circle>
                <circle id="Oval" fill="#FFFFFF" cx="81" cy="205" r="6"></circle>
                <path d="M39.85,45 L44.15,45 C50.6945743,45 56,50.3054257 56,56.85 L56,61.15 C56,67.6945743 50.6945743,73 44.15,73 L39.85,73 C33.3054257,73 28,67.6945743 28,61.15 L28,56.85 C28,50.3054257 33.3054257,45 39.85,45 Z" id="Rectangle-path" fill="#6C63FF"></path>
                <path d="M119.85,45 L124.15,45 C130.694574,45 136,50.3054257 136,56.85 L136,61.15 C136,67.6945743 130.694574,73 124.15,73 L119.85,73 C113.305426,73 108,67.6945743 108,61.15 L108,56.85 C108,50.3054257 113.305426,45 119.85,45 Z" id="Rectangle-path" fill="#6C63FF" opacity="0.2" transform="translate(122.000000, 59.000000) rotate(-180.000000) translate(-122.000000, -59.000000) "></path>
                <path d="M79.85,45 L84.15,45 C90.6945743,45 96,50.3054257 96,56.85 L96,61.15 C96,67.6945743 90.6945743,73 84.15,73 L79.85,73 C73.3054257,73 68,67.6945743 68,61.15 L68,56.85 C68,50.3054257 73.3054257,45 79.85,45 Z" id="Rectangle-path" fill="#6C63FF"></path>
                <rect id="Rectangle-path" fill="#6C63FF" x="28" y="94" width="28" height="28" rx="11.85"></rect>
                <path d="M119.85,94 L124.15,94 C130.694574,94 136,99.3054257 136,105.85 L136,110.15 C136,116.694574 130.694574,122 124.15,122 L119.85,122 C113.305426,122 108,116.694574 108,110.15 L108,105.85 C108,99.3054257 113.305426,94 119.85,94 Z" id="Rectangle-path" fill="#6C63FF" opacity="0.2" transform="translate(122.000000, 108.000000) rotate(-180.000000) translate(-122.000000, -108.000000) "></path>
                <path d="M79.85,94 L84.15,94 C90.6945743,94 96,99.3054257 96,105.85 L96,110.15 C96,116.694574 90.6945743,122 84.15,122 L79.85,122 C73.3054257,122 68,116.694574 68,110.15 L68,105.85 C68,99.3054257 73.3054257,94 79.85,94 Z" id="Rectangle-path" fill="#6C63FF" opacity="0.2"></path>
                <path d="M39.85,145 L44.15,145 C50.6945743,145 56,150.305426 56,156.85 L56,161.15 C56,167.694574 50.6945743,173 44.15,173 L39.85,173 C33.3054257,173 28,167.694574 28,161.15 L28,156.85 C28,150.305426 33.3054257,145 39.85,145 Z" id="Rectangle-path" fill="#6C63FF"></path>
                <path d="M119.85,145 L124.15,145 C130.694574,145 136,150.305426 136,156.85 L136,161.15 C136,167.694574 130.694574,173 124.15,173 L119.85,173 C113.305426,173 108,167.694574 108,161.15 L108,156.85 C108,150.305426 113.305426,145 119.85,145 Z" id="Rectangle-path" fill="#6C63FF" transform="translate(122.000000, 159.000000) rotate(-180.000000) translate(-122.000000, -159.000000) "></path>
                <path d="M79.85,145 L84.15,145 C90.6945743,145 96,150.305426 96,156.85 L96,161.15 C96,167.694574 90.6945743,173 84.15,173 L79.85,173 C73.3054257,173 68,167.694574 68,161.15 L68,156.85 C68,150.305426 73.3054257,145 79.85,145 Z" id="Rectangle-path" fill="#6C63FF"></path>
                <path d="M198.860603,82.020987 C198.804729,81.7026978 198.68246,81.3992599 198.501507,81.1298116 C198.287136,80.8836391 198.04971,80.6578697 197.792368,80.4554888 C196.368054,79.1365492 197.134528,76.7600814 196.585322,74.9272305 C195.981799,72.9696151 193.869469,71.4694698 192.03476,70.4713533 C191.738289,70.3028046 191.419368,70.1758244 191.087229,70.0940891 C190.672098,70.0286201 190.252325,69.9958398 189.831901,69.9960598 C189.174747,69.957147 188.528487,69.8126502 187.918734,69.5682955 C187.046643,69.2177665 186.268099,68.6771201 185.374885,68.3800616 C185.201293,68.3174067 185.016081,68.2920838 184.831714,68.305797 C183.857025,68.2166795 183.823831,69.4108545 182.776719,70.1030008 C182.342182,70.4000593 181.928769,70.81 181.928769,71.3209406 C181.928769,72.019028 182.652997,72.4794687 183.298766,72.7854389 C183.944536,73.0914091 184.092399,73.0319974 184.219138,73.0290268 L184.273456,73.0290268 C184.360966,73.0438798 184.45753,73.1181444 184.707992,73.3884676 C180.704074,74.0034753 177.744836,77.3872236 177.722215,81.3763701 C177.721215,82.5026937 177.962913,83.6164165 178.431354,84.6440134 C178.404196,84.8341308 178.374019,85.0301894 178.340826,85.2381304 C178.023976,87.1541576 177.435541,89.4652726 176.427658,91.3783292 C175.600832,91.5446819 175.078785,91.6753877 175.078785,91.6753877 C175.086979,91.7145435 175.092024,91.7542744 175.093873,91.794211 L174.792111,92.0140343 L173.524713,92.9052098 C171.029146,88.832538 168.479262,83.7766027 168.376663,79.9801953 C168.376663,79.9801953 168.074902,80.1851656 167.561907,80.5059888 L167.561907,77.8086978 L167.398956,77.7789919 L167.561907,77.4819335 L168.738777,75.2896419 C169.181865,74.4649785 169.420712,73.5489088 169.435846,72.6161156 C169.490163,69.1702372 169.375493,60.6743646 166.955367,59.2633369 C163.904558,57.480986 163.295,65.186683 161.668506,69.1345902 C160.46146,72.0784397 161.064983,76.3441995 161.433132,78.3196384 C161.460291,78.4533147 161.484432,78.5751087 161.508573,78.6879909 C160.516344,79.0561082 159.551387,79.4918597 158.620716,79.9920776 C159.263468,80.2416067 159.743268,82.2229868 160.008818,83.6488675 C160.035977,83.8003673 160.063135,83.945926 160.087276,84.0796023 C159.473119,84.2695395 158.847179,84.420361 158.213338,84.5311312 L163.457952,95.7955888 C162.338417,97.0729402 160.002783,99.3097906 158.213338,98.1512625 C155.772088,96.5709114 148.25521,97.361087 148.25521,97.361087 C148.25521,97.361087 143.958127,86.1293058 144.163325,82.7666038 C144.163325,82.7666038 143.937004,82.879486 143.559802,83.0636623 L143.559802,80.0009894 C143.42032,80.0936734 143.27407,80.1760839 143.122248,80.2475479 L143.282182,79.9683129 L143.514538,79.5613428 C143.957622,78.790166 144.221459,77.9318549 144.287047,77.0482281 C144.540527,73.593438 144.911694,64.7232717 142.135488,63.6152436 C138.677302,62.2339217 137.660366,72.1022044 137.660366,72.1022044 L138.396664,81.0377235 L138.411752,81.2367527 C136.77017,81.3793407 135.421296,81.3793407 135.421296,81.3793407 C135.83471,81.7803697 135.967485,83.9934553 136.024819,85.3807185 C136.024819,85.5233065 136.024819,85.6540123 136.024819,85.7758062 C135.185922,85.9183943 134.46773,85.9302766 134,85.7223357 L139.492058,100.328701 C139.492058,100.328701 139.899436,103.893403 147.017988,105.461872 C151.20342,106.391665 154.121453,107.244223 155.817352,107.802693 C152.914407,114.575626 142.84161,138.993833 145.795855,144.935003 C145.795855,144.935003 147.377085,144.340886 148.994526,143.818063 C149.36871,148.939351 150.017497,156.695548 150.805094,161.665336 C149.945074,164.282421 149.296287,166.477684 149.085054,167.734241 C149.066949,167.838211 149.051861,167.936241 149.03979,168.031299 C148.436267,172.769382 143.547732,181.85046 150.871482,189.547245 C150.871482,189.547245 155.956162,192.51783 156.36354,196.061738 C156.704531,199.050146 162.078902,206.500373 163.780836,208.799605 C162.419892,211.101809 158.581487,217.173684 155.141406,218.762947 C150.871482,220.738386 154.32665,223.501029 158.394395,222.921765 C162.462139,222.342501 175.896558,212.854454 175.896558,212.854454 C175.896558,212.854454 175.803012,206.651872 174.529579,206.200344 L174.529579,206.200344 L173.307445,203.716935 C173.985756,203.613159 174.649876,203.433771 175.287,203.182229 C180.779058,201.010732 188.304988,197.062825 188.304988,197.062825 C188.304988,197.062825 188.452851,192.425742 186.319398,190.726567 C185.227022,187.408424 180.1695,184.428928 180.1695,184.428928 C180.1695,184.428928 176.503099,175.14585 167.552854,172.573324 C167.552854,172.573324 166.107417,170.568179 166.161734,168.271917 C166.750169,167.160918 167.148494,166.453919 167.148494,166.453919 L171.777514,155.64099 C172.975893,154.589071 173.994756,153.354399 174.795129,151.9842 C174.863528,151.861416 174.929916,151.737642 174.994291,151.612877 C177.785585,151.936671 179.973355,152.260465 179.973355,152.260465 L179.771175,142.784299 C177.927413,123.23191 183.624668,117.507593 183.624668,117.507593 C183.624668,117.507593 191.772227,107.835369 192.574913,100.925789 C193.326299,94.5479432 187.840276,94.22712 186.992326,94.2152377 C186.830497,93.269436 186.866435,92.3010727 187.097943,91.3694174 L187.194506,91.4377409 C187.366675,91.5765604 187.576603,91.6623227 187.798029,91.6842994 C187.842186,91.6884764 187.886648,91.6884764 187.930804,91.6842994 L188.003227,91.6842994 C188.203147,91.6750372 188.397365,91.6157373 188.567521,91.5120055 C190.694939,90.4128891 192.351609,88.4255679 194.687243,87.852245 C195.176096,87.7334216 195.686073,87.6799511 196.165874,87.5254807 C197.251939,87.1483002 198.127614,86.3401495 198.579965,85.2975421 C199.018395,84.2609088 199.116521,83.1152521 198.860603,82.020987 Z M168.986221,186.585572 C169.393599,187.966894 175.902593,192.704977 175.902593,192.704977 L176.153055,194.407122 C174.484294,195.963179 172.72831,197.426008 170.893353,198.788734 L168.578843,194.086299 C168.578843,194.086299 165.120657,183.228811 162.069849,182.046519 C161.505555,181.826695 161.324498,181.155343 161.402956,180.213668 C163.385529,181.642519 168.648248,185.477544 168.977168,186.594484 L168.986221,186.585572 Z" id="Shape" fill="url(#linearGradient-1)"></path>
                <path d="M158.313483,107.045534 C158.313483,107.045534 144.086335,138.256462 147.540702,145 C147.540702,145 153.232802,142.881611 154.058374,143.26704 C154.883946,143.652469 163,103 163,103 L158.313483,107.045534 Z" id="Shape" fill="#575988"></path>
                <path d="M158.313483,107.045534 C158.313483,107.045534 144.086335,138.256462 147.540702,145 C147.540702,145 153.232802,142.881611 154.058374,143.26704 C154.883946,143.652469 163,103 163,103 L158.313483,107.045534 Z" id="Shape" fill="#000000" opacity="0.05"></path>
                <path d="M165.277223,209.800415 C165.277223,209.800415 160.761764,218.755255 156.812175,220.73948 C152.862585,222.723705 156.059598,225.516205 159.82248,224.917595 C163.585362,224.318985 176,214.768574 176,214.768574 C176,214.768574 175.913827,208.518114 174.733259,208.062319 C173.552691,207.606525 165.277223,209.800415 165.277223,209.800415 Z" id="Shape" fill="#575988"></path>
                <path d="M178.325712,193.479699 C178.325712,193.479699 171.72858,200.320574 168.815291,200.925988 C165.902002,201.531403 171.337375,205.554181 176.577146,203.341499 C181.816917,201.128818 188.997893,197.102966 188.997893,197.102966 C188.997893,197.102966 189.190532,190.649311 185.891965,190.059262 C182.593399,189.469214 178.325712,193.479699 178.325712,193.479699 Z" id="Shape" fill="#575988"></path>
                <path d="M150,139.750977 C150,139.750977 151.390375,163.581568 153.181469,166.895598 C154.972564,170.209628 161.73015,180.372454 161.73015,180.372454 C161.73015,180.372454 169.483464,185.843139 169.881147,187.209319 C170.278831,188.575499 176.638734,193.264657 176.638734,193.264657 L177.036417,196 C177.036417,196 187.573517,195.403415 186.975473,191.898478 C186.37743,188.39354 180.812894,185.061613 180.812894,185.061613 C180.812894,185.061613 177.233741,175.880169 168.487737,173.341699 C168.487737,173.341699 165.703951,169.434067 168.090053,166.310944 C168.090053,166.310944 174.055308,151.661798 177.434101,149.904855 C180.812894,148.147912 176.04069,138 176.04069,138 L150,139.750977 Z" id="Shape" fill="#67647E"></path>
                <path d="M150,139.750977 C150,139.750977 151.390375,163.581568 153.181469,166.895598 C154.972564,170.209628 161.73015,180.372454 161.73015,180.372454 C161.73015,180.372454 169.483464,185.843139 169.881147,187.209319 C170.278831,188.575499 176.638734,193.264657 176.638734,193.264657 L177.036417,196 C177.036417,196 187.573517,195.403415 186.975473,191.898478 C186.37743,188.39354 180.812894,185.061613 180.812894,185.061613 C180.812894,185.061613 177.233741,175.880169 168.487737,173.341699 C168.487737,173.341699 165.703951,169.434067 168.090053,166.310944 C168.090053,166.310944 174.055308,151.661798 177.434101,149.904855 C180.812894,148.147912 176.04069,138 176.04069,138 L150,139.750977 Z" id="Shape" fill="#000000" opacity="0.05"></path>
                <path d="M168.97372,193.695554 L175.286614,206.671272 C174.303606,209.963265 164.852301,208.800863 164.852301,208.800863 C164.852301,208.800863 157.568424,199.117138 157.17462,195.629933 C156.780815,192.142727 151.859764,189.238201 151.859764,189.238201 C144.774292,181.684067 149.496938,172.775277 150.089147,168.125669 C150.089147,168.036936 150.116203,167.93933 150.131233,167.829893 C150.654302,164.712408 153.84081,155.744462 156.31787,149.027376 C157.989284,144.501995 159.339041,141 159.339041,141 C159.339041,141 172.526977,141.591553 175.271583,146.22933 C176.534162,148.358921 175.969008,150.574288 174.986,152.348947 C174.216864,153.690022 173.234448,154.901277 172.076056,155.936717 L167.593901,166.566927 C167.593901,166.566927 159.723826,180.716878 162.687881,181.882238 C165.651935,183.047597 168.97372,193.695554 168.97372,193.695554 Z" id="Shape" fill="#67647E"></path>
                <path d="M146.821794,78.4714205 C146.755531,79.282863 146.48479,80.0718514 146.028637,80.7828252 L145.788771,81.1569735 L144.608629,83 L140.837933,83 L140.757977,82.1408448 L140,73.9262122 C140,73.9262122 141.045817,64.8524244 144.608629,66.1217569 C147.464636,67.1416573 147.084048,75.2953176 146.821794,78.4714205 Z" id="Shape" fill="#F7C4A7"></path>
                <path d="M146,82 L144.827082,84 L141.079466,84 L141,83.0676692 C142.745073,82.9233083 144.820725,82.6225564 146,82 Z" id="Shape" fill="#000000" opacity="0.1"></path>
                <path d="M145,82 L145,86.8782971 L138.526336,89 C138.526336,89 138.526336,88.4914391 138.507634,87.7852846 C138.470229,86.2952337 138.355344,83.9176307 138,83.4868117 C138.002672,83.4932901 143.25,83.4932901 145,82 Z" id="Shape" fill="#E6E6F0"></path>
                <path d="M145,84 L145,85.4624413 L138.020165,87 C138.020165,87 138.020165,86.6314554 138,86.1197183 C140.324691,85.7887324 143.680658,84.5234742 145,84 Z" id="Shape" fill="#000000" opacity="0.1"></path>
                <path d="M188.771996,93.3421248 C187.321002,97.7760309 189.206081,99.7680756 189.206081,99.7680756 C189.206081,99.7680756 171.314527,101.030775 175.68876,97.6635767 C178.241661,95.6972358 179.373922,91.359719 179.871753,88.095336 C180.0835,86.7409693 180.214289,85.3738089 180.263339,84.0020053 C180.263339,84.0020053 194.560797,83.78031 191.595061,87.9989467 C190.40355,89.6182157 189.451644,91.4198756 188.771996,93.3421248 L188.771996,93.3421248 Z" id="Shape" fill="#F7C4A7"></path>
                <path d="M191.600858,87.4967562 C190.159385,89.3159544 189.687903,89.5834836 189.198402,90.8957845 C188.755908,90.9660978 188.307834,91.0009555 187.859033,91 C184.486586,91 181.204231,90.3494618 180,87.5925034 C180.209607,86.4045033 180.338997,85.2052756 180.387396,84.0019806 C180.387396,84.0019806 194.528851,83.7992216 191.600858,87.4967562 Z" id="Shape" fill="#000000" opacity="0.1"></path>
                <circle id="Oval" fill="#F7C4A7" cx="186" cy="83" r="8"></circle>
                <path d="M145.66841,85 C145.66841,85 138.126223,89.0023502 136,88.000235 L141.22106,102.805875 C141.22106,102.805875 141.607914,106.407991 148.376392,107.999765 C155.14487,109.591539 158.431657,111 158.431657,111 L171,95.5955347 L164.618377,97.3950646 C164.618377,97.3950646 161.33159,102.197885 159.007509,100.596945 C156.683429,98.9960047 149.536956,99.8025852 149.536956,99.8025852 C149.536956,99.8025852 145.47646,88.4035253 145.66841,85 Z" id="Shape" fill="#575988"></path>
                <path d="M145.66841,85 C145.66841,85 138.126223,89.0023502 136,88.000235 L141.22106,102.805875 C141.22106,102.805875 141.607914,106.407991 148.376392,107.999765 C155.14487,109.591539 158.431657,111 158.431657,111 L171,95.5955347 L164.618377,97.3950646 C164.618377,97.3950646 161.33159,102.197885 159.007509,100.596945 C156.683429,98.9960047 149.536956,99.8025852 149.536956,99.8025852 C149.536956,99.8025852 145.47646,88.4035253 145.66841,85 Z" id="Shape" fill="#000000" opacity="0.05"></path>
                <path d="M176.507481,92.7953221 C176.507481,92.7953221 186.906619,89.8365468 188,95.3326961 C188,95.3326961 183.193928,93.0015398 176.309231,97.1258933 C175.792578,97.4247595 175.287941,97.7624783 174.807334,98.1061744 C168.74868,102.329154 164.516333,108.865358 162.816185,116.289194 L158.421634,135.446517 L158.028137,140.595982 C158.028137,140.595982 151.720168,141.833288 150.554695,139.977329 C149.389223,138.12137 150.161198,131.940817 151.930433,129.881629 C153.699668,127.82244 156.445137,118.95508 156.445137,118.95508 L158.166311,113.814582 C159.607094,109.490937 161.89731,105.495377 164.903823,102.060174 L164.903823,102.060174 L165.318346,101.561068 C167.909314,98.4673746 171.194643,96.0227018 174.909463,94.4241429 C175.915734,93.9907869 176.645656,93.4438618 176.507481,92.7953221 Z" id="Shape" fill="#000000" opacity="0.1"></path>
                <path d="M176.507481,92.7953221 C176.507481,92.7953221 186.906619,89.8365468 188,95.3326961 C188,95.3326961 183.193928,93.0015398 176.309231,97.1258933 C175.792578,97.4247595 175.287941,97.7624783 174.807334,98.1061744 C168.74868,102.329154 164.516333,108.865358 162.816185,116.289194 L158.421634,135.446517 L158.028137,140.595982 C158.028137,140.595982 151.720168,141.833288 150.554695,139.977329 C149.389223,138.12137 150.161198,131.940817 151.930433,129.881629 C153.699668,127.82244 156.454148,118.961058 156.454148,118.961058 L158.175322,113.820559 C159.616105,109.496915 161.906321,105.501354 164.912834,102.066152 L164.912834,102.066152 L165.327358,101.567045 C167.918326,98.4733519 171.203654,96.0286791 174.918474,94.4301202 C175.915734,93.9907869 176.645656,93.4438618 176.507481,92.7953221 Z" id="Shape" fill="#E6E6F0"></path>
                <path d="M150,132.673968 L150.08629,136 L152.814832,134.263269 C152.814832,134.263269 157.673838,116.73968 161.095674,111.962932 C161.497368,111.399747 161.690776,110.559393 162.068666,110.41786 L176,97.0960404 L176,94 C176,94 168.888533,99.2131424 168.302358,100.192081 C168.052415,100.601938 164.318151,102.624684 162.053788,105.79444 C160.037245,108.712679 158.246811,111.778185 156.697871,114.964617 L152.020371,125.390901 L150,132.673968 Z" id="Shape" fill="#000000" opacity="0.1"></path>
                <path d="M176,94 L176,96.9934696 L161.978192,110.412471 C161.606088,110.554034 161.411177,111.394565 161.012494,111.957868 C157.613358,116.738572 152.79373,134.262903 152.79373,134.262903 L150.085643,136 L150,132.673267 L152.019991,125.382768 L156.662426,114.954287 C158.199694,111.767152 159.976708,108.700996 161.978192,105.782178 C164.210813,102.614704 167.920036,100.591531 168.179918,100.178639 C168.681963,99.346956 174.133576,95.3595955 175.633803,94.280177 L176,94 Z" id="Shape" fill="#787C9C"></path>
                <path d="M184.300645,74.4037635 C183.690138,74.1072674 183,73.6476984 183,72.9627924 C183,72.4617139 183.392258,72.0466193 183.805161,71.7768079 C184.908203,71.0207428 184.822673,69.6538957 186.090875,70.0808501 C186.940276,70.3773462 187.680553,70.9080743 188.506359,71.2520098 C189.084602,71.4924565 189.698539,71.6347321 190.323133,71.6730342 C190.718263,71.672971 191.112763,71.7046985 191.502857,71.767913 C191.813441,71.8496539 192.11122,71.9743868 192.38765,72.1385331 C194.148366,73.1288713 195.455967,74.7699194 196.032995,76.7134682 C196.557972,78.5161646 196.504884,80.6509367 197.855668,81.9466247 C198.09993,82.1453496 198.325068,82.3667189 198.52811,82.6078111 C198.701188,82.8775116 198.816682,83.1803994 198.867281,83.4972994 C199.110549,84.5734856 199.01786,85.6989024 198.601843,86.7202122 C198.174401,87.7435114 197.338381,88.5387714 196.298433,88.9113185 C195.84129,89.0625316 195.360553,89.1129359 194.894562,89.2315343 C192.676682,89.794877 191.1047,91.7517513 189.081474,92.8309972 C188.919971,92.9327719 188.735099,92.9909786 188.5447,93 C188.33629,92.9766236 188.139342,92.892064 187.978433,92.7568732 C187.196866,92.1964955 186.553917,91.3247969 186.574562,90.3582196 C186.637527,89.7546434 186.8126,89.1683058 187.090691,88.6296472 C187.514024,87.6212434 187.83803,86.5735579 188.058064,85.5016132 C188.128034,85.2553395 188.135134,84.9953098 188.07871,84.7455481 C187.931244,84.2741193 187.412166,84.0547121 187.05235,83.7196715 C186.368111,83.0822049 186.28553,81.9970291 186.53917,81.0927159 C186.792811,80.1884027 187.323687,79.3908282 187.718894,78.5398843 C187.85499,78.284261 187.934473,78.0020666 187.951889,77.7126602 C187.951889,76.57708 186.424147,75.9603681 185.781198,75.2102329 C184.943594,74.1843564 185.495115,74.9967557 184.300645,74.4037635 Z" id="Shape" fill="#000000" opacity="0.1"></path>
                <path d="M184.300645,74.4066038 C183.690138,74.1099164 183,73.6500511 183,72.9647033 C183,72.4633017 183.392258,72.0479394 183.805161,71.7779539 C184.908203,71.0214011 184.822673,69.6536724 186.090875,70.0809022 C186.940276,70.3775896 187.680553,70.9086599 188.506359,71.2528173 C189.084602,71.4934191 189.698539,71.6357864 190.323133,71.6741133 C190.72129,71.6978483 192.010138,71.0807386 192.38765,71.1756786 C192.698234,71.2574721 192.996012,71.3822855 193.272442,71.5465377 C195.033159,72.5375146 196.34076,74.1796212 196.917788,76.1244235 C197.442765,77.9282826 197.07705,80.1831065 198.427834,81.4647958 C198.65493,81.6843445 198.345253,82.3548579 198.52811,82.6011084 C198.701188,82.8709829 198.816682,83.174066 198.867281,83.4911704 C199.110549,84.5680507 199.01786,85.6941934 198.601843,86.7161619 C198.174401,87.7401211 197.338381,88.535894 196.298433,88.9086814 C195.84129,89.059992 195.360553,89.1104288 194.894562,89.2291038 C192.676682,89.7928097 191.1047,91.7509463 189.081474,92.8308882 C188.919971,92.9327285 188.735099,92.9909727 188.5447,93 C188.33629,92.9766085 188.139342,92.8919943 187.978433,92.7567164 C187.196866,92.1959773 186.553917,91.3237165 186.574562,90.3565157 C186.637527,89.7525503 186.8126,89.1658345 187.090691,88.6268285 C187.514024,87.6177742 187.83803,86.569413 188.058064,85.4967769 C188.128034,85.2503444 188.135134,84.990147 188.07871,84.7402242 C187.931244,84.2684913 187.412166,84.0489427 187.05235,83.713686 C186.368111,83.0758082 186.28553,81.9899325 186.53917,81.085036 C186.792811,80.1801396 187.323687,79.3820506 187.718894,78.530558 C187.85499,78.2747697 187.934473,77.9923933 187.951889,77.7028002 C187.951889,76.5664877 186.424147,75.949378 185.781198,75.198759 C184.943594,74.1870552 185.495115,74.9999785 184.300645,74.4066038 Z" id="Shape" fill="#B96B6B"></path>
                <path d="M175.024694,153 C171.544464,152.555903 167.159373,152.121188 165.233646,152.468335 C162.13334,153.02502 157.783052,150.044566 157,149.487881 C158.612507,144.702893 159.914693,141 159.914693,141 C159.914693,141 172.637836,141.625489 175.285712,146.52932 C176.518293,148.781079 175.973057,151.123534 175.024694,153 Z" id="Shape" fill="#000000" opacity="0.1"></path>
                <path d="M193.931011,102.069937 C193.127972,108.926424 185.100649,118.523114 185.100649,118.523114 C185.100649,118.523114 179.479378,124.206939 181.287748,143.597757 L181.486975,153 C181.486975,153 169.643686,151.238014 166.033076,151.824346 C162.422467,152.410677 157.202715,148.886706 157.202715,148.886706 C157.202715,148.886706 155.192053,114.99316 163.835447,107.948208 C164.896105,106.344137 166.050466,104.80097 167.292805,103.326361 C169.60997,100.589151 172.760825,97.5049276 175.709387,96.74509 C176.088757,96.6451322 176.478399,96.5869345 176.871035,96.5715838 C176.871035,96.5715838 185.903688,91.6745198 188.312805,95.3959294 C188.309739,95.4108869 194.730985,95.2134487 193.931011,102.069937 Z" id="Shape" fill="#575988"></path>
                <path d="M157,139 C157,139 160.117434,137.704751 165.376617,138.075226 C170.635799,138.445701 180,134 180,134" id="Shape" fill="#000000" opacity="0.1"></path>
                <path d="M161.996996,183 C161.996996,183 162.168036,183.610998 159.928729,184.399185 C157.689422,185.187373 157,186 157,186" id="Shape" fill="#000000" opacity="0.05"></path>
                <path d="M152.85,49 L157.15,49 C163.694574,49 169,54.3054257 169,60.85 L169,65.15 C169,71.6945743 163.694574,77 157.15,77 L152.85,77 C146.305426,77 141,71.6945743 141,65.15 L141,60.85 C141,54.3054257 146.305426,49 152.85,49 Z" id="Rectangle-path" fill="#6C63FF" transform="translate(155.000000, 63.000000) rotate(-180.000000) translate(-155.000000, -63.000000) "></path>
                <path d="M170.989937,73.6901381 C170.975127,74.5589835 170.722888,75.4128674 170.253318,76.1837551 L169.010272,78.2280717 L168.14869,79.6321353 L162.765449,80 C162.765449,80 162.653641,79.6209028 162.515525,78.9946904 C162.11433,77.1553671 161.479653,73.181867 162.765449,70.4383267 C164.488612,66.75968 165.133155,59.587723 168.355865,61.2445181 C170.927456,62.5643379 171.04913,70.4804486 170.989937,73.6901381 Z" id="Shape" fill="#F7C4A7"></path>
                <path d="M169,78.1276263 L169,78.1851493 L168.071392,79.6232243 L162.269367,80 C162.269367,80 162.148861,79.6117197 162,78.9703383 C164.076962,78.3289568 166.798987,77.7307176 169,78.1276263 Z" id="Shape" fill="#000000" opacity="0.1"></path>
                <path d="M170,78.1258044 L170,81.4750621 L162.636932,85 C162.636932,85 162.552586,84.3964536 162.39639,83.6143934 C162.127733,82.2741236 161.64665,80.4096468 161,80.1772956 C161,80.1687949 166.316904,77.383414 170,78.1258044 Z" id="Shape" fill="#E6E6F0"></path>
                <path d="M188.490698,112.864883 C186.794196,114.441661 184.550532,115.199332 182.301408,114.954969 C170.18583,113.657143 169.85854,109.140956 169.85854,109.140956 L168,104.781987 C170.209208,101.961297 173.213264,98.7830113 176.024452,98 C178.032026,101.412573 179.823355,103.875667 179.823355,103.875667 C179.823355,103.875667 188.817988,96.6096926 191.497676,103.471831 C193.049381,107.482451 190.711595,110.796377 188.490698,112.864883 Z" id="Shape" fill="#000000" opacity="0.05"></path>
                <path d="M168,82 L168,83.3497653 L161.221446,87 C161.221446,87 161.143796,86.375 161,85.5651408 C163.921939,84.5997653 166.812243,82.7893192 168,82 Z" id="Shape" fill="#000000" opacity="0.1"></path>
                <path d="M168.529265,82 C168.529265,82 163.383345,85.6529229 159,86.4222684 L167.95879,106.419379 C167.95879,106.419379 168.287686,110.721253 180.352073,111.957492 C182.591224,112.189054 184.824582,111.467437 186.513788,109.96659 C188.725834,107.996243 191.048484,104.839578 189.49423,101.03396 C186.825221,94.4974598 177.866431,101.418633 177.866431,101.418633 C177.866431,101.418633 168.718453,89.3058459 168.529265,82 Z" id="Shape" fill="#575988"></path>
            </g>
        </g>
    </g>
</svg>