<svg xmlns="http://www.w3.org/2000/svg" width="13" height="13" viewBox="0 0 13 13">
    <g fill="#4B5862" fill-rule="nonzero">
        <path d="M6.472 6.95a3.477 3.477 0 0 0 3.476-3.475A3.468 3.468 0 0 0 6.472.01a3.474 3.474 0 0 0-3.476 3.465A3.483 3.483 0 0 0 6.472 6.95zm0-6.034a2.567 2.567 0 0 1 2.56 2.559 2.566 2.566 0 0 1-2.56 2.559 2.567 2.567 0 0 1-2.559-2.56A2.566 2.566 0 0 1 6.473.917zM.458 12.378h12.07a.455.455 0 0 0 .459-.458c0-2.4-1.951-4.361-4.361-4.361H4.36C1.96 7.559 0 9.509 0 11.919c0 .256.203.459.458.459zm3.903-3.902h4.265c1.749 0 3.188 1.3 3.412 2.985H.949a3.45 3.45 0 0 1 3.412-2.985z"/>
    </g>
</svg>
