<svg xmlns="http://www.w3.org/2000/svg" width="16" height="17.579" viewBox="0 0 16 17.579">
    <defs>
        <style>
            .cls-1{fill:#59678e}
        </style>
    </defs>
    <g id="question" transform="translate(-23.001)">
        <g id="Group_54" data-name="Group 54" transform="translate(23.001)">
            <g id="Group_53" data-name="Group 53">
                <path id="Path_20" d="M186.382 139.985c-1.616 0-2.358.958-2.358 1.6a.686.686 0 0 0 .718.682c.646 0 .383-.922 1.6-.922.6 0 1.077.263 1.077.814 0 .646-.67 1.017-1.065 1.353a2.191 2.191 0 0 0-.8 1.819c0 .622.168.8.658.8.586 0 .706-.263.706-.491a1.5 1.5 0 0 1 .67-1.5 3.064 3.064 0 0 0 1.34-2.19c.003-1.115-1.014-1.965-2.546-1.965z" class="cls-1" data-name="Path 20" transform="translate(-178.495 -135.179)"/>
                <path id="Path_21" d="M222.579 343.232a.922.922 0 0 0 0 1.843.922.922 0 0 0 0-1.843z" class="cls-1" data-name="Path 21" transform="translate(-214.848 -331.447)"/>
                <path id="Path_22" d="M37.584 3.358L32.416.377a2.84 2.84 0 0 0-2.83 0l-5.168 2.98A2.84 2.84 0 0 0 23 5.811v5.956a2.84 2.84 0 0 0 1.417 2.454l5.168 2.98a2.84 2.84 0 0 0 2.83 0l5.168-2.98A2.841 2.841 0 0 0 39 11.767V5.811a2.84 2.84 0 0 0-1.416-2.453zm.044 8.41a1.463 1.463 0 0 1-.73 1.264l-5.168 2.98a1.463 1.463 0 0 1-1.458 0L25.1 13.031a1.463 1.463 0 0 1-.73-1.264V5.811a1.463 1.463 0 0 1 .73-1.264l5.168-2.98a1.463 1.463 0 0 1 1.458 0l5.174 2.98a1.463 1.463 0 0 1 .73 1.264z" class="cls-1" data-name="Path 22" transform="translate(-23.001)"/>
            </g>
        </g>
    </g>
</svg>
