<svg xmlns="http://www.w3.org/2000/svg" width="16" height="16" viewBox="0 0 16 16">
    <defs>
        <style>
            .cls-1{fill:#59678e}
        </style>
    </defs>
    <g id="goal_1_" data-name="goal (1)">
        <g id="Group_1" data-name="Group 1">
            <path id="Path_1" d="M15.925 15.278l-4.841-7.531a.469.469 0 0 0-.789 0l-2.063 3.209-2.453-4.58V3.95h3.548a.469.469 0 0 0 .473-.469V.469A.469.469 0 0 0 9.327 0H5.31a.469.469 0 0 0-.469.469v5.907L.055 15.31a.469.469 0 0 0 .414.69h15.062a.469.469 0 0 0 .394-.722z" class="cls-1" data-name="Path 1"/>
        </g>
    </g>
</svg>
