<svg xmlns="http://www.w3.org/2000/svg" width="15.008" height="17" viewBox="0 0 15.008 17">
    <g id="prefix__bookmark_1_" data-name="bookmark (1)" transform="translate(-30)">
        <path id="prefix__Path_261" fill="#8695bd" d="M42.767 0H32.241A2.244 2.244 0 0 0 30 2.241V17l5.761-2.88 5.76 2.88V9h3.486V2.241A2.244 2.244 0 0 0 42.767 0zm-2.242 2.241v13.147l-4.765-2.382L31 15.388V2.241A1.247 1.247 0 0 1 32.241 1H40.9a2.229 2.229 0 0 0-.375 1.241zM44.012 8h-2.49V2.241a1.245 1.245 0 0 1 2.49 0z" data-name="Path 261"/>
    </g>
</svg>
