<svg xmlns="http://www.w3.org/2000/svg" xmlns:xlink="http://www.w3.org/1999/xlink" width="15" height="15" viewBox="0 0 15 15">
    <defs>
        <path id="a" d="M0 0h15v15H0z"/>
    </defs>
    <g fill="none" fill-rule="evenodd">
        <mask id="b" fill="#fff">
            <use xlink:href="#a"/>
        </mask>
        <path fill="#C3CCE6" d="M6.948 13.245A6.303 6.303 0 0 1 .652 6.949 6.304 6.304 0 0 1 6.948.652a6.304 6.304 0 0 1 6.297 6.297 6.303 6.303 0 0 1-6.297 6.296zM15 14.539l-2.92-2.919a6.914 6.914 0 0 0 1.817-4.671 6.948 6.948 0 1 0-6.949 6.948 6.914 6.914 0 0 0 4.672-1.816L14.539 15l.461-.46z" mask="url(#b)"/>
    </g>
</svg>
