<svg xmlns="http://www.w3.org/2000/svg" width="15" height="14" viewBox="0 0 15 14">
    <path fill="#F2F4F6" fill-rule="nonzero" d="M.159 4.606l4.286-4.3a.514.514 0 0 1 .376-.16c.145 0 .271.054.377.16.106.107.16.233.16.378v2.15h1.874c3.98 0 6.42 1.128 7.325 3.385.295.75.443 1.682.443 2.796 0 .93-.354 2.192-1.063 3.788a19.843 19.843 0 0 1-.2.453.955.955 0 0 1-.11.185c-.067.095-.145.143-.234.143a.244.244 0 0 1-.197-.084.314.314 0 0 1-.071-.21c0-.05.007-.124.021-.222.014-.098.02-.164.02-.198.029-.38.043-.725.043-1.033 0-.565-.05-1.072-.147-1.52a4.574 4.574 0 0 0-.406-1.163 2.92 2.92 0 0 0-.67-.848 3.928 3.928 0 0 0-.882-.584 4.776 4.776 0 0 0-1.114-.357 10.581 10.581 0 0 0-1.289-.18 19.14 19.14 0 0 0-1.469-.05H5.357v2.15a.517.517 0 0 1-.159.377.515.515 0 0 1-.376.16.515.515 0 0 1-.377-.16l-4.286-4.3A.517.517 0 0 1 0 4.984c0-.145.053-.271.159-.378z"/>
</svg>
