<svg xmlns="http://www.w3.org/2000/svg" width="16" height="14.286" viewBox="0 0 16 14.286">
    <g>
        <path fill="#5779d9" d="M15.83 32.149l-4.571-4.571a.572.572 0 0 0-.973.4v2.286h-2q-6.366 0-7.813 3.6A8.131 8.131 0 0 0 0 36.837a10.722 10.722 0 0 0 1.134 4.027l.094.214q.067.151.121.268a1.015 1.015 0 0 0 .116.2.305.305 0 0 0 .25.152.261.261 0 0 0 .21-.089.333.333 0 0 0 .075-.228 1.818 1.818 0 0 0-.022-.237 1.847 1.847 0 0 1-.022-.21q-.045-.607-.045-1.1a7.6 7.6 0 0 1 .156-1.616 4.852 4.852 0 0 1 .433-1.234 3.106 3.106 0 0 1 .714-.9 4.192 4.192 0 0 1 .942-.621 5.107 5.107 0 0 1 1.188-.379 11.322 11.322 0 0 1 1.375-.192q.692-.054 1.567-.054h2v2.286a.568.568 0 0 0 .973.4l4.571-4.572a.561.561 0 0 0 0-.8z" transform="translate(0 -27.408)"/>
    </g>
</svg>
