<svg xmlns="http://www.w3.org/2000/svg" width="15" height="14.392" viewBox="0 0 15 14.392">
    <defs>
        <style>
            .prefix__cls-1{fill:#5293cc}
        </style>
    </defs>
    <g id="prefix__speech-bubble-with-text-lines" transform="translate(0 -.01)">
        <path id="prefix__Shape" d="M12.176 14.392a.526.526 0 0 1-.373-.154l-2.969-2.97H2.63A2.633 2.633 0 0 1 0 8.638V2.63A2.633 2.633 0 0 1 2.63 0h9.74A2.633 2.633 0 0 1 15 2.63v6.008a2.633 2.633 0 0 1-2.3 2.608v2.619a.526.526 0 0 1-.324.486.537.537 0 0 1-.2.041zM2.63 1.052A1.579 1.579 0 0 0 1.052 2.63v6.008a1.579 1.579 0 0 0 1.578 1.578h6.422a.525.525 0 0 1 .372.154l2.226 2.23v-1.859a.527.527 0 0 1 .526-.526h.194a1.579 1.579 0 0 0 1.578-1.578V2.63a1.579 1.579 0 0 0-1.578-1.578z" class="prefix__cls-1" transform="translate(0 .01)"/>
        <path id="prefix__Path" d="M8.268 0H.526a.526.526 0 1 0 0 1.052h7.742a.526.526 0 1 0 0-1.052z" class="prefix__cls-1" transform="translate(3.103 3.735)"/>
        <path id="prefix__Path-2" d="M8.268 0H.526a.526.526 0 1 0 0 1.052h7.742a.526.526 0 1 0 0-1.052z" class="prefix__cls-1" data-name="Path" transform="translate(3.103 6.68)"/>
    </g>
</svg>
