<svg xmlns="http://www.w3.org/2000/svg" width="25" height="25" viewBox="0 0 25 25">
    <g fill="none" fill-rule="evenodd">
        <path fill="#5779D9" d="M.353 4.097l.453-2.168L2.42.62 5.427.367l15.726.168L23 1.745l.907 1.747-.168 11.324.034 2.89-1.244 1.612-1.965.894-7.343-.457-1.512.235-7.93 3.697 1.344-3.865-2.453-.235-1.865-1.445-.453-2.083z"/>
        <path fill="#5779D9" d="M23.387 16.583a2.826 2.826 0 0 1-2.822 2.822h-8.468c-.06 0-.12.014-.174.04l-7.537 3.59 1.23-3.076a.404.404 0 0 0-.374-.554H3.629a2.826 2.826 0 0 1-2.823-2.822V3.679A2.826 2.826 0 0 1 3.63.857h16.936a2.826 2.826 0 0 1 2.822 2.822v12.904zM20.565.05H3.629A3.633 3.633 0 0 0 0 3.68v12.903a3.633 3.633 0 0 0 3.629 3.629h1.017l-1.392 3.48a.404.404 0 0 0 .548.512l8.388-3.992h8.375a3.633 3.633 0 0 0 3.629-3.63V3.68A3.633 3.633 0 0 0 20.564.05z"/>
        <path fill="#F2F4F6" d="M17.042 8.724a.813.813 0 0 0-.773-.562h-2.4a.271.271 0 0 1-.257-.187l-.741-2.282a.813.813 0 0 0-1.548 0l-.741 2.282a.271.271 0 0 1-.258.187h-2.4a.813.813 0 0 0-.477 1.471l1.94 1.41a.271.271 0 0 1 .1.303l-.742 2.282a.813.813 0 0 0 1.251.91l1.941-1.41a.271.271 0 0 1 .32 0l1.94 1.41a.801.801 0 0 0 .956 0 .802.802 0 0 0 .296-.91l-.742-2.282a.271.271 0 0 1 .099-.303l1.94-1.41a.813.813 0 0 0 .296-.91"/>
    </g>
</svg>
