<svg xmlns="http://www.w3.org/2000/svg" id="chat" width="17" height="17" viewBox="0 0 17 17">
    <defs>
        <style>
            .cls-1{fill:#8695bd}
        </style>
    </defs>
    <path id="Path" d="M6.581 4.387a1.22 1.22 0 0 1-.6-.158L.262.968a.519.519 0 1 1 .515-.9l5.717 3.26a.173.173 0 0 0 .172 0l5.718-3.26a.519.519 0 1 1 .515.9l-5.717 3.26a1.206 1.206 0 0 1-.6.159z" class="cls-1" transform="translate(0 1.645)"/>
    <path id="Shape" d="M11.257 9.871H1.905A1.924 1.924 0 0 1 0 7.932V1.939A1.924 1.924 0 0 1 1.905 0h9.351a1.924 1.924 0 0 1 1.9 1.939v5.993a1.924 1.924 0 0 1-1.899 1.939zM1.905 1.058a.875.875 0 0 0-.866.881v5.993a.875.875 0 0 0 .866.881h9.351a.875.875 0 0 0 .866-.881V1.939a.875.875 0 0 0-.866-.881z" class="cls-1"/>
    <path id="Path-2" d="M3.383 12.065a.541.541 0 0 1-.194-.036.533.533 0 0 1-.34-.5v-1.6h-.89A1.957 1.957 0 0 1 0 7.984V6.21a.534.534 0 0 1 1.068 0v1.774a.89.89 0 0 0 .89.887h1.425a.533.533 0 0 1 .534.532v.761l1.031-1.121a.535.535 0 0 1 .394-.172h6.41a.89.89 0 0 0 .89-.887V1.952a.89.89 0 0 0-.89-.887h-.534a.532.532 0 1 1 0-1.065h.534a1.957 1.957 0 0 1 1.958 1.952v6.032a1.957 1.957 0 0 1-1.959 1.952H5.576l-1.8 1.957a.535.535 0 0 1-.393.172z" class="cls-1" data-name="Path" transform="translate(3.29 4.935)"/>
</svg>
