<?xml version="1.0" encoding="UTF-8"?>
<svg width="25px" height="25px" viewBox="0 0 25 25" version="1.1" xmlns="http://www.w3.org/2000/svg" xmlns:xlink="http://www.w3.org/1999/xlink">
    <!-- Generator: sketchtool 54.1 (76490) - https://sketchapp.com -->
    <title>FF487E72-DC03-427F-BEFE-8C266B94F4CA</title>
    <desc>Created with sketchtool.</desc>
    <g id="Page-1" stroke="none" stroke-width="1" fill="none" fill-rule="evenodd">
        <g id="008.6-thread-history" transform="translate(-44.000000, -203.000000)" fill="#4B5862" fill-rule="nonzero">
            <g id="chat" transform="translate(44.000000, 203.000000)">
                <path d="M9.67741935,8.87096774 C9.37182508,8.87096774 9.06521215,8.79269088 8.79323324,8.63817033 L0.385316009,3.84295035 C0.0186028758,3.63353434 -0.108728073,3.16793952 0.101113331,2.80298638 C0.311973383,2.43701665 0.779532628,2.31197699 1.14318982,2.51935984 L9.55110705,7.31356324 C9.62852427,7.35829288 9.72631444,7.35829288 9.80373166,7.31356324 L18.2116489,2.51935984 C18.5763247,2.31197699 19.043884,2.43701665 19.2537254,2.80298638 C19.4635668,3.1689561 19.3362358,3.63455092 18.9695227,3.84295035 L10.5616055,8.63715375 C10.2896266,8.79370747 9.98301363,8.87096774 9.67741935,8.87096774 L9.67741935,8.87096774 Z" id="Path"></path>
                <path d="M16.5534805,14.516129 L2.80135823,14.516129 C1.25602716,14.516129 0,13.2376728 0,11.6647465 L0,2.85138249 C0,1.27845622 1.25602716,0 2.80135823,0 L16.5534805,0 C18.0988115,0 19.3548387,1.27845622 19.3548387,2.85138249 L19.3548387,11.6647465 C19.3548387,13.2376728 18.0988115,14.516129 16.5534805,14.516129 Z M2.80135823,1.55529954 C2.09949066,1.55529954 1.52801358,2.13698157 1.52801358,2.85138249 L1.52801358,11.6647465 C1.52801358,12.3791475 2.09949066,12.9608295 2.80135823,12.9608295 L16.5534805,12.9608295 C17.255348,12.9608295 17.8268251,12.3791475 17.8268251,11.6647465 L17.8268251,2.85138249 C17.8268251,2.13698157 17.255348,1.55529954 16.5534805,1.55529954 L2.80135823,1.55529954 Z" id="Shape"></path>
                <path d="M9.81357352,25 C9.71826561,25 9.62086301,24.9822581 9.52869711,24.9467742 C9.22706326,24.8298861 9.02806871,24.5397533 9.02806871,24.2172676 L9.02806871,21.8690702 L7.71889401,21.8690702 C6.1300796,21.8690702 4.83870968,20.5822581 4.83870968,18.9990512 L4.83870968,16.3899431 C4.83870968,15.9578748 5.19061584,15.6072106 5.6242145,15.6072106 C6.05781315,15.6072106 6.40971931,15.9578748 6.40971931,16.3899431 L6.40971931,18.9990512 C6.40971931,19.7181214 6.99727692,20.3036053 7.71889401,20.3036053 L9.81357352,20.3036053 C10.2471722,20.3036053 10.5990783,20.6542694 10.5990783,21.0863378 L10.5990783,22.2051233 L12.114579,20.5572106 C12.2633012,20.3954459 12.4738165,20.3036053 12.6937579,20.3036053 L22.1198157,20.3036053 C22.8414328,20.3036053 23.4289904,19.7181214 23.4289904,18.9990512 L23.4289904,10.1280835 C23.4289904,9.40901328 22.8414328,8.82352941 22.1198157,8.82352941 L21.3343109,8.82352941 C20.9007122,8.82352941 20.548806,8.47286528 20.548806,8.04079696 C20.548806,7.60872865 20.9007122,7.25806452 21.3343109,7.25806452 L22.1198157,7.25806452 C23.7086301,7.25806452 25,8.54487666 25,10.1280835 L25,18.9990512 C25,20.5822581 23.7086301,21.8690702 22.1198157,21.8690702 L13.03938,21.8690702 L10.3927524,24.7463947 C10.2408881,24.9112903 10.0293255,25 9.81357352,25 Z" id="Path"></path>
            </g>
        </g>
    </g>
</svg>