<svg xmlns="http://www.w3.org/2000/svg" xmlns:xlink="http://www.w3.org/1999/xlink" width="300" height="210" viewBox="0 0 300 210">
    <defs>
        <path id="a" d="M.112.152H111.89V70.34H.112z"/>
        <path id="c" d="M0 .792h299.162V17.6H0z"/>
        <path id="e" d="M0 .796h299.162V9H0z"/>
        <path id="g" d="M0 211h299V0H0z"/>
    </defs>
    <g fill="none" fill-rule="evenodd">
        <path fill="#231F20" d="M173.799 98h-46.6S64 129.86 64 194h173c0-64.14-63.201-96-63.201-96"/>
        <path fill="#E7E7E0" d="M149.5 98H126l23.5 96L173 98z"/>
        <path fill="#D32F2F" d="M151.472 135.664l5.46-6.892-3.488-7.772h-8.888l-3.488 7.772 5.46 6.892L136 164.553l12.998 28.44V193l.002-.003.002.003v-.007L162 164.553z"/>
        <path fill="#F2F1E8" d="M125 105l8.977 35L149 115.222zM173 105l-8.977 35L149 115.222z"/>
        <path fill="#EAB296" d="M172 100.5c0 8.56-9.85 15.5-22 15.5s-22-6.94-22-15.5c0-8.56 9.85-15.5 22-15.5s22 6.94 22 15.5"/>
        <path fill="#383334" d="M125.305 98L107 119.029l15.894 8.51L107 142.94 149 194zM172.694 98L191 119.029l-15.894 8.51L191 142.94 149 194z"/>
        <path fill="#FDD2B9" d="M112 68.5c0 5.799-4.701 10.5-10.5 10.5S91 74.299 91 68.5 95.701 58 101.5 58 112 62.701 112 68.5"/>
        <path fill="#EAB296" d="M106 69a5 5 0 1 1-10 0 5 5 0 0 1 10 0"/>
        <path fill="#FDD2B9" d="M208 68.5c0 5.799-4.7 10.5-10.5 10.5S187 74.299 187 68.5 191.7 58 197.5 58 208 62.701 208 68.5"/>
        <path fill="#EAB296" d="M202 69a5 5 0 1 1-10 0 5 5 0 0 1 10 0"/>
        <path fill="#FDD2B9" d="M196 62.5c0 25.68-20.818 46.5-46.5 46.5-25.68 0-46.5-20.82-46.5-46.5S123.82 16 149.5 16c25.682 0 46.5 20.82 46.5 46.5"/>
        <path fill="#EAB296" d="M157 73.233c0 2.633-3.134 4.767-7 4.767-3.865 0-7-2.134-7-4.767C143 70.6 146.135 61 150 61c3.866 0 7 9.6 7 12.233"/>
        <path fill="#231F20" d="M134.986 60.144a4.5 4.5 0 1 1-8.972.712 4.5 4.5 0 0 1 8.972-.712M173.986 60.144a4.5 4.5 0 1 1-8.973.71 4.5 4.5 0 0 1 8.973-.71"/>
        <path fill="#F4A7A2" d="M131 75c0 1.657-2.239 3-5 3-2.762 0-5-1.343-5-3s2.238-3 5-3c2.761 0 5 1.343 5 3M178 75c0 1.657-2.239 3-5 3s-5-1.343-5-3 2.239-3 5-3 5 1.343 5 3"/>
        <g transform="translate(93)">
            <mask id="b" fill="#fff">
                <use xlink:href="#a"/>
            </mask>
            <path fill="#231F20" d="M111.342 44.503c-2.667-11.972-5.193-23.528-16.421-27.147 0 0-6.878-13.782-16.282-16.149-5.372-1.352-11.367-1.431-15.878-.083a23.688 23.688 0 0 1-13.519 0c-4.512-1.348-10.507-1.27-15.88.083-9.403 2.367-16.28 16.149-16.28 16.149C5.854 20.976 3.327 32.531.66 44.503c-2.667 11.973 5.075 14.853 8.444 14.59 3.37-.264 1.66 9.965 1.66 9.965s6.457 4.124 5.335-2.42c-1.124-6.543 4.771-5.847 7.158-12.25 2.385-6.404-3.229-5.43-2.948-11.556.28-6.125 9.123-14.06 15.158-11.276 2.411 1.113 6.173 2.759 9.822 4.333a27.034 27.034 0 0 0 21.423 0c3.649-1.574 7.411-3.22 9.821-4.333 6.036-2.784 14.878 5.151 15.158 11.276.281 6.127-5.333 5.152-2.947 11.556 2.386 6.403 8.281 5.707 7.158 12.25-1.123 6.544 5.334 2.42 5.334 2.42s-1.71-10.229 1.66-9.965c3.37.263 11.11-2.617 8.445-14.59" mask="url(#b)"/>
        </g>
        <path fill="#231F20" d="M158.75 93c-.32 0-.64-.124-.885-.371a10.32 10.32 0 0 0-14.73 0 1.24 1.24 0 0 1-1.77 0 1.284 1.284 0 0 1 0-1.796 12.8 12.8 0 0 1 18.27 0c.487.496.487 1.3 0 1.796a1.237 1.237 0 0 1-.885.371"/>
        <g transform="translate(0 193)">
            <mask id="d" fill="#fff">
                <use xlink:href="#c"/>
            </mask>
            <path fill="#FFBD1A" d="M290.712 17.6H8.45C3.783 17.6 0 13.838 0 9.196 0 4.555 3.783.792 8.45.792h282.262c4.667 0 8.45 3.763 8.45 8.404 0 4.642-3.783 8.404-8.45 8.404" mask="url(#d)"/>
        </g>
        <g transform="translate(0 201)">
            <mask id="f" fill="#fff">
                <use xlink:href="#e"/>
            </mask>
            <path fill="#F9A91C" d="M290.712 9H8.45C3.783 9 0 5.327 0 .796h299.162c0 4.531-3.783 8.204-8.45 8.204" mask="url(#f)"/>
        </g>
        <path fill="#929FA9" d="M204.15 188H94.85c-2.126 0-3.85 1.751-3.85 3.912V194h117v-2.088c0-2.161-1.723-3.912-3.85-3.912"/>
        <path fill="#BEC9D2" d="M201.618 190H97.382c-3.525 0-6.382-2.896-6.382-6.467v-58.066c0-3.571 2.857-6.467 6.382-6.467h104.236c3.525 0 6.382 2.896 6.382 6.467v58.066c0 3.571-2.857 6.467-6.382 6.467"/>
        <path fill="#929FA9" d="M161 155.995c0 6.076-4.928 11.005-11.005 11.005-6.067 0-10.995-4.929-10.995-11.005 0-6.068 4.928-10.995 10.995-10.995.78 0 1.539.075 2.27.237a7.055 7.055 0 0 0 7.064 6.836c.313 0 .627-.019.921-.065.484 1.234.75 2.582.75 3.987"/>
        <path fill="#D2D2CC" d="M268.731 190H215.27c-1.253 0-2.269.671-2.269 1.5s1.016 1.5 2.269 1.5h53.462c1.253 0 2.269-.671 2.269-1.5s-1.016-1.5-2.269-1.5"/>
        <path fill="#E9E9E7" d="M269.909 191h-55.816c-2.26 0-4.093-1.343-4.093-3h64c0 1.657-1.831 3-4.091 3"/>
        <path fill="#F36C3B" d="M244.517 187h-22.035c-2.475 0-4.482-1.851-4.482-4.135v-1.73c0-2.284 2.007-4.135 4.482-4.135h22.035c2.476 0 4.483 1.851 4.483 4.135v1.73c0 2.284-2.007 4.135-4.483 4.135"/>
        <path fill="#4B2D23" d="M233.5 177h-11.001c-2.485 0-4.499 1.88-4.499 4.201 0 0 2.444.612 3.222-.84.778-1.451 2.778-1.108 2.889-.23.112.88.556 3.209 2.333 2.827 1.778-.381 1.056-3.094 2.056-3.476 1-.382 1.445.955 2.222 1.566.777.611 1.666-1.107 2.11-1.337.446-.229.668-.153.668-.153s.222-.076.667.153c.444.23 1.333 1.948 2.11 1.337.778-.61 1.223-1.948 2.223-1.566 1 .382.278 3.095 2.055 3.476 1.778.382 2.222-1.948 2.334-2.826.111-.879 2.11-1.222 2.89.229.777 1.452 3.221.84 3.221.84 0-2.32-2.014-4.201-4.499-4.201H233.5z"/>
        <path fill="#B46133" d="M275.643 194h-23.286L249 146h30z"/>
        <path fill="#6AC17B" d="M278.138 178h-27.276L250 161h29z"/>
        <mask id="h" fill="#fff">
            <use xlink:href="#g"/>
        </mask>
        <path fill="#D2D2CC" d="M250 147h31v-3h-31z" mask="url(#h)"/>
        <path fill="#E9E9E7" d="M279.939 145h-29.878c-.587 0-1.061.672-1.061 1.5 0 .83.474 1.5 1.061 1.5h29.878c.586 0 1.061-.67 1.061-1.5 0-.828-.475-1.5-1.061-1.5" mask="url(#h)"/>
        <path fill="#E7E7E0" d="M276.246 141h-23.493L250 144h29z" mask="url(#h)"/>
        <path fill="#207B5D" d="M271 170.5a6.5 6.5 0 1 1-13 0 6.5 6.5 0 0 1 13 0" mask="url(#h)"/>
        <path fill="#884637" d="M84 173.498c0 3.584-3.014 6.502-6.71 6.502H26v-2.08h2.148v-8.84H26V167h51.29c3.696 0 6.71 2.92 6.71 6.498" mask="url(#h)"/>
        <path fill="#FDD2B9" d="M76.447 168H26v9h50.447c2.515 0 4.553-2.015 4.553-4.5s-2.038-4.5-4.553-4.5" mask="url(#h)"/>
        <path fill="#D32F2F" d="M70 172v5l1.514-1.104L73 176.98V172zM21 194h58v-14H21z" mask="url(#h)"/>
        <path fill="#932424" d="M66 194h6v-14h-6zM29 194h6v-14h-6z" mask="url(#h)"/>
        <path fill="#E24949" d="M39 183h24v-1H39zM39 187h24v-1H39zM39 189h24v-1H39z" mask="url(#h)"/>
        <path fill="#7D97CD" d="M19 166h58v-6H19z" mask="url(#h)"/>
        <path fill="#5574AA" d="M64 166h6v-6h-6zM26 166h6v-6h-6zM37 161.858h24v-.716H37zM37 163.858h24v-.716H37zM37 164.858h24v-.716H37z" mask="url(#h)"/>
    </g>
</svg>
